{"glyphs":{"0":{"ha":804,"x_min":94,"x_max":781,"o":"m 201 342 l 201 300 q 244 136 201 199 q 358 73 288 73 q 579 212 496 73 q 652 398 627 293 q 677 591 677 504 l 677 602 q 588 831 677 781 q 513 851 551 851 l 503 851 q 388 812 441 851 q 227 532 272 726 q 201 342 201 419 m 94 300 l 94 341 q 132 574 95 450 q 357 894 203 813 q 507 937 438 937 q 755 777 700 937 q 781 633 781 700 l 781 581 q 745 349 781 473 q 519 30 675 115 q 357 -14 440 -14 l 344 -14 q 158 74 222 -14 q 94 300 94 161 z "},"1":{"ha":596,"x_min":180,"x_max":486,"o":"m 273 -3 q 180 69 180 -3 q 224 166 180 118 q 287 275 269 215 q 343 673 343 465 q 335 730 343 720 q 300 741 327 741 q 226 731 256 731 q 195 755 195 731 q 243 814 195 785 q 447 911 408 911 l 457 911 q 486 868 486 911 l 486 846 q 440 547 486 783 q 394 269 394 311 q 409 197 394 228 q 425 125 425 167 q 363 27 425 83 q 287 -3 330 -3 l 273 -3 z "},"2":{"ha":734,"x_min":62,"x_max":697,"o":"m 618 57 q 581 10 618 20 q 439 -3 529 -3 l 332 -3 l 311 -2 l 268 -2 l 225 -1 l 183 0 q 84 7 106 0 q 62 36 62 14 q 136 159 62 80 q 320 334 176 202 q 504 517 465 466 q 581 700 581 616 q 548 794 581 753 q 463 834 515 834 q 371 815 410 834 q 287 755 331 795 q 220 715 242 715 q 189 753 189 715 q 222 811 189 770 q 319 889 256 852 q 478 926 382 926 q 635 869 573 926 q 697 729 697 813 q 611 502 697 615 q 391 285 557 431 q 224 111 224 140 q 367 87 224 87 q 472 90 439 87 l 569 98 q 618 57 618 98 z "},"3":{"ha":734,"x_min":63,"x_max":667,"o":"m 570 760 q 461 840 570 840 q 326 809 402 840 q 245 778 250 778 q 214 815 214 778 q 302 889 214 852 q 479 927 390 927 q 610 905 568 927 q 648 865 630 894 q 667 806 667 836 l 667 789 q 557 567 667 673 q 510 511 510 521 q 552 473 510 500 q 643 294 643 415 q 547 85 643 174 q 427 8 492 33 q 302 -16 361 -16 l 281 -16 q 143 15 203 -16 q 63 95 63 56 q 99 134 63 134 q 181 102 111 134 q 309 71 251 71 q 477 136 414 71 q 541 280 541 202 q 503 396 541 359 q 391 449 465 433 q 318 494 318 466 q 397 553 318 514 q 523 645 476 591 q 570 760 570 699 z "},"4":{"ha":754,"x_min":71,"x_max":700,"o":"m 187 289 l 243 289 l 251 290 l 329 290 q 499 309 490 290 q 512 380 503 315 q 547 579 522 444 q 573 754 573 713 l 572 757 q 474 646 564 757 q 352 499 383 534 q 295 431 321 464 q 224 348 269 399 q 179 293 179 296 q 187 289 179 289 m 700 239 q 611 197 700 197 q 574 174 583 197 q 559 87 572 167 q 540 -11 547 7 q 508 -30 533 -30 q 449 4 449 -30 q 452 45 449 9 l 452 83 l 454 123 q 454 161 454 136 q 428 193 454 186 q 226 210 355 210 q 84 215 97 210 q 71 247 71 220 q 123 340 71 274 q 559 857 294 555 q 642 899 595 899 l 655 899 q 684 860 684 899 q 645 612 684 850 q 606 328 606 374 q 653 287 606 296 q 700 252 700 277 l 700 239 z "},"5":{"ha":735,"x_min":69,"x_max":715,"o":"m 220 469 q 179 528 179 469 q 218 721 179 559 q 269 895 257 882 q 449 916 288 916 l 559 916 l 686 921 q 715 913 715 921 l 715 897 q 676 841 715 859 q 596 831 655 831 l 553 830 l 488 830 q 333 806 349 830 q 300 700 322 791 q 278 585 278 608 q 300 562 278 562 l 319 566 l 340 569 q 415 574 372 574 q 507 555 457 574 q 591 500 557 537 q 654 328 654 433 q 628 202 654 264 q 455 19 577 79 q 311 -18 379 -18 l 290 -18 q 139 15 208 -18 q 69 81 69 49 q 84 113 69 95 q 126 130 100 130 q 193 99 129 130 q 306 68 256 68 q 480 140 410 68 q 533 225 515 176 q 551 314 551 274 q 502 444 551 400 q 376 488 454 488 q 295 478 351 488 q 220 469 239 469 z "},"6":{"ha":758,"x_min":100,"x_max":699,"o":"m 449 496 l 429 496 q 339 474 386 496 q 259 417 292 452 q 198 258 198 352 l 198 231 q 242 114 198 161 q 349 66 286 66 l 376 66 q 528 140 458 66 q 583 231 564 179 q 602 323 602 282 l 602 343 q 559 454 602 411 q 449 496 516 496 m 699 330 q 671 200 699 265 q 488 14 616 70 q 357 -15 422 -15 l 339 -15 q 163 56 226 -15 q 100 243 100 126 l 100 260 q 146 494 100 368 q 444 861 239 749 q 639 922 555 922 q 694 878 694 922 q 588 826 694 857 q 414 740 483 796 q 307 616 345 684 q 269 533 269 548 q 273 517 269 517 q 313 529 286 517 q 483 563 389 563 l 484 564 q 637 500 576 564 q 699 330 699 436 z "},"7":{"ha":704,"x_min":145,"x_max":726,"o":"m 689 911 q 726 876 726 905 q 704 809 726 848 q 527 517 682 771 q 334 192 372 262 q 272 66 296 121 q 244 5 248 11 q 187 -19 229 -19 q 145 5 145 -19 q 352 410 145 34 q 476 605 359 425 q 592 805 592 786 q 425 831 592 831 q 299 824 356 831 q 213 817 243 817 q 173 829 183 817 q 163 869 163 841 q 194 907 163 897 q 311 918 224 918 l 328 917 l 493 916 q 689 911 667 916 z "},"8":{"ha":751,"x_min":81,"x_max":718,"o":"m 497 864 l 470 864 q 352 815 406 864 q 298 706 298 767 l 298 686 q 335 593 298 633 q 429 552 372 552 l 434 552 l 439 553 q 562 609 506 553 q 618 738 618 665 l 618 748 q 583 832 618 800 q 497 864 548 864 m 578 277 l 578 302 q 534 406 578 365 q 404 460 474 460 q 259 392 333 460 q 185 238 185 323 l 185 213 q 232 108 185 147 q 336 68 278 68 l 370 68 q 514 132 450 68 q 578 277 578 196 m 202 674 q 288 871 202 799 q 484 944 374 944 q 655 894 593 944 q 718 769 718 844 q 685 637 718 695 q 618 557 667 606 q 568 502 568 507 q 586 482 568 496 q 680 285 680 408 q 585 77 680 163 q 473 9 536 33 q 347 -14 410 -14 l 332 -14 q 148 47 214 -14 q 81 201 81 109 q 243 473 81 375 q 273 501 273 491 q 255 534 273 511 q 202 674 202 605 z "},"9":{"ha":755,"x_min":149,"x_max":740,"o":"m 395 416 l 416 416 q 505 436 458 416 q 585 493 551 457 q 642 655 642 555 l 642 669 q 596 794 642 748 q 487 840 551 840 l 473 840 l 467 839 q 316 765 385 839 q 247 603 247 691 l 247 563 q 289 458 247 500 q 395 416 332 416 m 152 587 q 254 825 152 726 q 356 892 295 865 q 483 920 417 920 l 500 920 q 678 849 616 920 q 740 663 740 779 l 740 645 q 693 405 739 536 q 416 45 603 150 q 222 -12 315 -12 q 149 35 149 -12 q 256 91 149 62 q 427 168 363 120 q 528 277 491 216 q 565 356 565 338 q 552 374 565 374 q 551 374 552 374 q 505 355 544 374 q 407 336 465 336 q 221 406 291 336 q 152 587 152 475 z "},"\u0000":{"ha":781,"x_min":36,"x_max":741,"o":"m 552 44 q 626 51 626 44 q 458 310 626 65 q 421 366 452 318 q 387 414 390 414 l 354 363 l 351 357 l 325 318 q 317 307 322 313 q 150 47 150 63 q 162 47 150 47 l 169 46 l 175 45 l 222 44 l 552 44 m 102 492 l 102 242 q 105 109 102 109 q 180 218 109 109 l 221 279 q 245 315 236 302 q 268 350 254 328 q 315 418 283 372 q 347 467 347 463 l 347 474 q 257 610 347 479 q 163 749 168 741 l 104 835 q 102 492 102 835 m 673 431 l 673 511 q 670 836 673 836 q 633 785 667 836 q 514 611 600 734 q 429 477 429 488 q 480 391 429 465 q 599 214 532 317 q 670 112 666 112 q 673 431 673 112 m 459 903 l 438 903 l 431 902 l 390 902 q 149 896 149 902 q 184 839 149 890 q 238 759 219 788 q 271 709 256 730 q 336 611 286 688 q 390 533 387 533 q 433 594 393 533 q 478 664 472 654 q 494 687 484 673 l 577 813 q 631 897 631 890 q 459 903 631 903 m 36 27 l 36 163 l 37 180 l 37 486 q 38 958 37 955 q 94 970 43 970 l 667 970 q 737 959 734 970 q 740 686 740 948 l 740 399 l 741 331 l 741 9 q 719 -17 741 -15 q 532 -20 698 -20 l 227 -20 q 43 -16 50 -20 q 36 27 36 -12 z "}," ":{"ha":401,"x_min":0,"x_max":0,"o":""},"!":{"ha":407,"x_min":97,"x_max":372,"o":"m 319 980 l 341 980 q 372 960 372 980 q 235 302 372 908 q 191 269 227 269 l 184 269 q 164 279 164 269 l 164 286 q 170 323 164 288 q 179 377 176 358 q 182 404 181 395 q 186 428 184 412 l 190 452 q 193 476 191 460 q 269 943 235 793 q 319 980 277 980 m 139 6 q 97 33 97 6 l 97 48 l 98 50 l 100 66 q 100 70 100 68 l 102 79 q 174 137 102 137 l 193 137 l 195 136 l 210 134 q 214 134 212 134 q 231 104 231 134 l 231 100 l 231 98 q 231 94 231 96 l 229 78 q 228 74 228 75 l 226 64 q 211 28 226 46 q 176 10 197 10 q 169 9 171 9 l 146 6 l 139 6 z "},"\"":{"ha":497,"x_min":145,"x_max":482,"o":"m 186 947 q 243 997 186 997 l 257 997 q 280 988 280 997 l 280 985 q 207 698 280 899 q 164 669 196 669 l 157 669 q 145 680 145 669 l 145 683 l 180 902 l 183 922 q 186 947 186 943 m 449 998 l 456 998 q 482 985 482 998 q 407 695 482 902 q 366 669 397 669 l 359 669 q 347 677 347 669 l 347 687 q 356 742 356 731 l 390 956 q 449 998 390 998 z "},"#":{"ha":840,"x_min":92,"x_max":817,"o":"m 545 612 l 488 606 l 473 606 q 458 608 463 608 l 425 611 q 384 595 395 611 q 363 539 363 566 q 346 472 363 513 q 328 420 328 430 q 325 402 327 410 q 323 389 323 394 l 323 386 q 338 380 323 380 l 361 380 q 382 383 361 380 q 422 387 402 387 l 484 380 q 520 395 510 380 q 543 456 543 427 q 544 470 544 465 l 578 585 l 582 602 l 582 606 q 568 612 582 612 l 545 612 m 476 284 q 401 312 476 312 q 308 295 326 312 q 272 205 299 287 q 228 96 245 124 q 186 68 210 68 q 161 92 161 68 q 176 165 161 112 q 191 249 191 219 q 172 299 191 279 q 129 318 166 306 q 92 342 92 330 q 159 388 92 375 q 246 426 227 400 q 272 494 254 435 q 291 572 291 552 q 226 601 291 599 q 161 632 161 604 q 222 675 161 661 q 328 713 311 696 q 373 818 344 730 q 410 917 401 907 q 441 926 419 926 q 468 880 468 926 q 448 793 468 859 q 427 705 427 727 q 535 678 427 678 q 594 690 585 678 q 628 778 604 701 q 659 869 652 854 q 713 926 685 926 q 741 901 741 926 q 726 828 741 888 q 711 735 711 767 q 724 694 711 704 l 742 690 l 762 687 l 783 684 q 817 656 817 675 q 789 615 817 629 q 728 604 772 607 q 670 590 683 600 q 637 511 658 580 q 616 425 616 443 q 679 397 616 401 q 741 357 741 393 q 672 319 741 328 q 598 307 602 310 q 545 213 573 288 q 523 146 541 201 q 493 78 505 92 q 463 65 482 65 l 444 65 q 431 88 431 65 q 454 191 431 111 q 476 284 476 271 z "},"$":{"ha":768,"x_min":94,"x_max":749,"o":"m 301 703 l 301 690 q 338 608 301 650 q 416 566 376 566 l 419 566 q 431 585 427 566 q 485 863 485 799 q 477 874 485 874 l 465 874 q 350 820 398 874 q 301 703 301 765 m 394 94 l 394 86 q 402 77 394 77 l 411 77 q 546 136 487 77 q 605 260 605 195 l 605 289 q 563 379 605 332 q 475 426 521 426 l 471 427 q 457 412 460 427 q 394 94 394 138 m 322 -119 q 296 -72 296 -119 q 275 -5 296 -24 q 241 12 269 0 q 94 138 95 76 q 144 178 94 178 q 218 143 158 178 q 279 109 277 109 q 332 155 315 109 q 380 400 380 293 q 372 446 380 433 q 313 498 363 457 q 210 686 210 583 q 383 924 210 846 l 487 970 q 516 1014 496 977 q 557 1051 536 1051 q 582 1025 578 1051 q 596 971 589 978 q 676 916 604 964 q 749 835 749 868 q 692 802 749 802 q 643 821 678 802 q 594 841 608 841 q 539 788 559 841 q 494 575 494 667 q 559 503 494 540 q 660 421 625 466 q 695 296 695 377 q 624 110 695 190 q 537 43 584 64 q 450 8 491 21 q 394 -16 410 -5 q 361 -73 379 -27 q 322 -119 344 -119 z "},"%":{"ha":1046,"x_min":165,"x_max":990,"o":"m 313 574 l 327 574 q 423 636 383 574 q 463 778 463 699 l 463 783 q 441 867 463 836 q 384 898 419 898 l 366 898 q 274 836 314 898 q 235 694 235 773 l 235 689 q 256 605 235 635 q 313 574 278 574 m 742 88 l 756 88 q 859 154 811 88 q 906 309 906 219 l 906 328 q 888 398 906 368 q 829 429 870 429 l 824 429 q 714 358 759 429 q 669 208 669 288 l 669 189 q 671 155 671 174 q 693 112 671 136 q 742 88 714 88 m 326 495 l 312 495 q 209 538 252 495 q 165 654 165 582 l 165 689 q 234 869 165 790 q 389 949 302 949 l 403 949 q 508 904 467 949 q 549 797 549 860 l 550 783 l 550 769 l 549 762 q 480 575 549 654 q 326 495 412 495 m 192 46 q 797 882 192 85 q 892 960 855 960 l 904 960 q 932 951 932 960 q 688 600 932 920 q 319 104 445 279 q 231 37 270 37 q 192 46 192 37 m 595 189 l 595 210 q 663 401 595 322 q 827 480 732 480 l 835 480 q 948 434 905 480 q 990 307 990 389 l 990 300 q 922 103 990 189 q 848 44 892 66 q 757 22 805 22 l 749 22 q 637 68 680 22 q 595 189 595 115 z "},"&":{"ha":930,"x_min":96,"x_max":892,"o":"m 525 886 q 425 843 463 886 q 386 745 386 800 l 386 732 q 425 618 386 683 q 449 597 437 597 q 513 627 461 597 q 635 791 635 699 l 635 793 l 635 797 q 611 858 635 831 q 552 885 587 885 l 543 886 l 525 886 m 391 465 l 381 465 q 329 436 372 465 q 246 356 286 408 q 205 236 205 305 l 205 224 q 252 117 205 160 q 371 75 298 75 l 397 75 q 416 76 410 76 q 538 115 469 76 q 606 180 606 153 l 606 184 q 505 326 606 187 q 391 465 403 465 m 535 490 q 597 379 535 449 q 697 310 659 310 q 766 409 720 310 q 846 507 812 507 q 892 465 892 507 q 828 310 892 427 q 764 184 764 193 q 810 106 764 154 q 856 41 856 59 q 815 14 856 14 q 743 43 793 14 q 659 71 694 71 q 521 17 656 71 q 347 -12 450 -12 q 170 47 244 -12 q 96 220 96 105 q 134 359 96 300 q 250 485 172 419 q 328 576 328 551 q 316 606 328 580 q 293 665 305 633 q 281 739 281 696 q 354 903 281 836 q 541 969 427 969 q 681 929 625 969 q 736 823 736 890 q 712 714 736 756 q 653 637 688 672 q 605 583 619 602 q 563 534 591 564 q 535 490 535 505 z "},"'":{"ha":317,"x_min":170,"x_max":304,"o":"m 209 946 q 273 988 209 988 l 283 988 q 304 977 304 988 l 304 974 q 236 705 304 891 q 191 661 220 661 l 181 661 q 170 669 170 661 l 170 680 l 172 690 l 174 699 l 185 764 q 191 795 191 785 l 194 816 q 201 861 199 848 l 204 891 q 207 912 205 897 q 209 946 209 926 z "},"(":{"ha":477,"x_min":127,"x_max":524,"o":"m 240 437 q 218 203 218 320 q 238 23 218 85 q 287 -99 258 -40 q 317 -166 317 -159 q 277 -198 317 -198 q 245 -184 262 -198 q 178 -70 210 -153 q 127 193 127 60 l 127 249 q 155 472 127 346 q 363 920 214 736 q 495 1029 452 1029 q 524 1004 524 1029 q 460 920 524 989 q 240 437 298 736 z "},")":{"ha":483,"x_min":13,"x_max":404,"o":"m 319 621 q 243 949 319 816 q 224 994 224 983 q 256 1028 224 1028 l 267 1028 q 294 1007 277 1028 q 369 852 333 959 q 404 643 404 746 l 404 586 q 377 361 404 484 q 299 123 350 238 q 180 -74 248 9 q 41 -199 79 -199 q 13 -176 13 -199 q 68 -103 13 -166 q 300 408 250 104 q 319 621 319 525 z "},"*":{"ha":608,"x_min":174,"x_max":564,"o":"m 174 625 q 197 662 174 631 q 231 699 221 692 q 241 710 241 706 l 237 714 q 210 746 218 729 q 197 775 203 763 q 191 789 191 787 q 227 825 191 825 q 287 804 250 825 q 328 783 323 783 q 344 837 332 783 q 362 903 355 891 q 418 927 376 927 q 430 887 430 927 q 419 814 430 848 q 408 774 408 780 q 416 768 408 768 q 467 791 418 768 q 530 814 517 814 q 564 791 564 814 q 503 725 564 753 q 441 688 441 696 q 465 645 441 673 q 489 588 489 618 q 452 559 489 559 q 408 573 432 559 q 380 588 383 588 q 349 564 361 588 q 286 519 328 519 q 264 571 264 519 q 252 589 264 589 l 246 589 l 239 590 l 223 591 l 197 589 q 174 625 174 589 z "},"+":{"ha":758,"x_min":105,"x_max":694,"o":"m 123 358 q 105 392 105 361 q 123 432 105 422 q 247 441 140 441 q 361 450 353 441 q 381 561 362 451 q 403 675 401 671 q 445 698 413 698 l 456 698 q 483 670 483 698 q 477 624 483 659 q 467 566 471 589 l 458 508 q 452 463 452 469 q 573 452 452 452 q 694 433 694 452 l 694 423 q 676 377 694 385 q 552 369 659 369 q 438 361 446 369 q 417 253 431 353 q 395 131 402 153 q 355 109 387 109 l 332 109 q 315 134 315 109 l 346 353 q 227 359 346 359 l 180 357 q 123 358 127 357 z "},",":{"ha":357,"x_min":39,"x_max":224,"o":"m 97 54 l 98 75 q 181 142 98 142 l 186 142 q 224 125 224 142 l 224 113 q 181 -40 224 41 q 106 -145 137 -120 q 66 -170 75 -170 l 62 -170 q 39 -153 39 -170 l 39 -150 q 58 -119 39 -149 l 63 -113 q 103 -21 103 -50 l 100 3 l 98 20 l 96 39 l 96 46 l 97 54 z "},"-":{"ha":539,"x_min":97,"x_max":483,"o":"m 483 416 l 483 408 q 449 347 483 347 l 107 347 q 97 361 97 347 l 98 366 l 98 370 q 120 425 98 414 q 239 427 125 427 l 469 427 q 483 416 483 427 z "},".":{"ha":359,"x_min":92,"x_max":232,"o":"m 143 -7 q 94 18 94 -7 l 92 26 l 92 31 l 92 39 l 92 48 l 92 51 l 94 71 q 95 83 95 74 q 113 123 95 92 q 136 136 120 136 q 146 138 143 138 l 149 138 l 151 139 l 168 140 l 183 140 l 201 138 q 232 103 232 138 l 232 79 l 229 58 q 213 12 229 28 q 175 -4 197 -4 l 170 -5 l 165 -5 l 153 -7 l 143 -7 z "},"/":{"ha":542,"x_min":-18,"x_max":606,"o":"m 562 1004 l 574 1004 q 606 987 606 1004 q 552 881 606 981 q 320 422 499 780 q 85 -39 142 65 q 24 -90 58 -90 l 13 -90 q -18 -73 -18 -90 q 20 5 -18 -68 q 80 125 58 79 q 127 218 103 170 l 217 394 q 235 429 229 417 l 253 465 q 321 599 302 559 q 372 697 341 638 q 442 837 402 757 q 506 960 482 917 q 562 1004 530 1004 z "},":":{"ha":387,"x_min":96,"x_max":321,"o":"m 213 497 q 181 534 181 497 l 181 547 l 182 549 q 182 554 182 551 l 184 572 q 184 585 184 574 q 198 615 184 595 q 227 635 211 635 l 233 637 l 260 640 l 272 640 q 293 636 286 636 q 318 616 318 636 l 320 607 l 320 602 l 321 595 l 321 586 l 320 583 l 318 563 q 317 558 317 560 q 241 495 317 495 l 237 494 l 234 494 l 231 495 l 224 495 q 213 497 224 495 m 235 104 l 235 81 l 235 79 l 233 64 q 232 59 232 61 q 154 -2 232 -2 l 151 -2 l 149 -1 l 130 1 q 125 1 128 1 q 96 41 96 1 l 96 56 l 97 58 q 97 63 97 60 l 98 73 l 102 92 q 146 140 102 140 l 149 140 l 151 141 l 170 143 l 187 143 l 205 140 q 235 104 235 140 z "},";":{"ha":382,"x_min":61,"x_max":323,"o":"m 227 481 q 188 515 188 481 l 188 526 l 189 529 l 189 534 l 191 551 q 191 556 191 554 q 207 602 191 583 q 245 621 223 621 l 249 622 l 268 624 l 284 624 q 297 622 292 622 q 323 591 323 622 l 323 580 l 322 577 q 304 506 322 547 q 264 484 295 484 l 262 484 l 259 483 l 243 481 l 227 481 m 121 3 l 117 31 l 113 50 l 111 68 q 111 77 111 73 q 128 145 111 124 q 197 167 144 167 l 201 167 q 244 137 244 167 l 244 129 l 243 125 l 242 104 q 181 -53 242 35 q 90 -140 119 -140 l 86 -140 q 61 -123 61 -140 l 61 -119 q 67 -106 61 -115 l 76 -93 q 84 -81 79 -88 q 105 -45 89 -75 q 121 3 121 -16 z "},"<":{"ha":755,"x_min":123,"x_max":696,"o":"m 239 408 q 395 299 239 399 q 581 174 551 199 q 610 116 610 150 q 593 82 610 82 l 585 82 q 258 288 582 82 q 123 395 123 373 q 172 464 123 435 q 682 736 641 736 q 696 721 696 736 l 696 711 q 638 636 696 675 q 410 511 580 598 q 239 408 239 423 z "},"=":{"ha":812,"x_min":106,"x_max":746,"o":"m 141 503 l 141 514 q 178 562 141 556 q 463 564 190 564 l 728 566 q 746 547 746 566 q 709 494 746 500 q 431 492 696 492 l 205 492 l 178 491 l 159 491 q 141 503 141 491 m 711 304 l 711 294 q 675 245 711 252 q 389 243 663 243 l 171 243 l 144 243 l 119 243 q 106 255 106 243 l 106 266 q 142 314 106 308 q 435 316 155 316 l 646 317 l 699 317 q 711 304 711 317 z "},">":{"ha":751,"x_min":100,"x_max":664,"o":"m 559 407 q 409 515 559 418 q 223 641 258 612 q 187 703 187 670 q 200 736 187 736 l 208 736 q 610 477 234 736 q 664 412 664 439 q 629 360 664 385 q 531 307 627 359 l 454 264 q 423 248 435 255 l 321 193 q 190 117 250 153 q 113 81 130 81 l 104 81 q 100 96 100 81 l 100 106 q 152 174 100 141 q 269 241 205 208 l 334 277 q 458 346 357 289 q 559 407 559 403 z "},"?":{"ha":646,"x_min":178,"x_max":614,"o":"m 393 938 l 417 938 q 555 889 495 938 q 614 759 614 840 l 614 747 q 450 483 614 618 q 343 385 363 411 q 315 303 323 359 q 278 248 307 248 l 268 248 q 239 277 239 248 q 264 392 239 349 q 368 502 290 435 q 483 621 445 568 q 522 733 522 673 q 487 825 522 793 q 402 857 452 857 q 286 823 353 857 q 205 789 218 789 q 178 825 178 789 q 249 899 178 860 q 393 938 319 938 m 323 134 l 323 129 l 323 126 q 298 46 323 75 q 229 16 273 16 l 217 16 q 179 41 179 16 l 179 52 l 180 54 l 180 58 l 181 65 l 182 67 l 184 83 q 184 89 184 86 l 197 146 q 212 167 197 167 l 245 176 l 274 176 q 290 174 282 174 q 323 134 323 174 z "},"@":{"ha":1170,"x_min":140,"x_max":1099,"o":"m 663 587 q 518 511 589 587 q 447 350 447 435 l 447 325 q 454 281 447 309 q 461 245 461 252 q 494 199 461 199 l 499 199 q 515 200 510 200 q 684 276 591 200 q 721 343 698 288 q 745 430 745 399 l 747 451 l 748 470 l 762 547 l 762 552 q 723 580 762 580 l 673 587 l 663 587 m 838 163 q 785 185 819 163 q 735 207 751 207 l 712 199 l 653 170 q 549 144 597 144 q 452 187 500 144 q 404 297 404 229 q 488 539 404 439 q 663 639 572 639 q 727 631 696 639 q 786 623 759 623 q 822 616 814 623 q 829 579 829 609 q 812 458 829 549 q 794 310 794 368 q 844 253 794 253 q 941 339 901 253 q 971 484 971 401 q 887 699 971 623 q 673 774 803 774 q 507 732 586 774 q 373 621 429 690 q 265 300 265 488 q 354 52 265 149 q 587 -45 442 -45 q 693 -31 631 -45 q 760 -16 755 -16 q 782 -39 782 -16 l 766 -55 q 678 -89 739 -73 q 543 -104 617 -104 q 540 -104 541 -104 q 387 -72 468 -104 q 171 147 234 -12 q 140 332 140 224 q 185 547 140 439 q 301 731 229 655 q 475 855 373 806 q 679 904 576 904 l 718 904 q 866 877 793 904 q 1072 684 1018 821 q 1099 539 1099 613 q 1033 285 1099 389 q 939 192 991 220 q 838 163 887 163 z "},"A":{"ha":856,"x_min":39,"x_max":794,"o":"m 585 392 q 633 415 633 392 l 633 421 q 605 631 633 453 q 571 829 577 810 q 560 848 565 848 q 439 640 555 848 q 322 410 322 433 l 322 405 q 472 393 322 393 l 526 392 l 585 392 m 583 969 q 585 969 585 969 q 635 949 618 969 q 693 722 664 913 l 697 686 q 702 652 700 663 l 714 586 l 717 570 q 737 420 727 515 q 751 299 747 326 q 775 180 755 273 q 794 64 794 87 l 794 52 q 756 25 794 25 q 696 60 718 25 q 666 171 684 79 q 623 279 648 262 q 377 307 579 307 q 274 276 303 307 q 198 157 244 246 q 141 56 152 68 q 67 22 113 22 l 54 22 q 39 36 39 22 q 71 129 39 68 q 185 352 153 283 q 255 490 217 420 q 320 612 294 559 q 420 788 346 665 q 520 940 494 911 q 583 969 547 969 z "},"B":{"ha":793,"x_min":96,"x_max":765,"o":"m 366 882 q 332 854 338 882 q 287 575 287 661 l 287 570 q 305 553 287 553 l 361 553 l 367 554 l 404 554 l 448 555 l 473 557 q 609 616 554 557 q 665 756 665 676 l 664 763 q 627 849 664 814 q 522 883 589 883 l 509 884 l 421 884 l 415 884 l 397 883 l 385 883 q 366 882 372 882 m 452 472 l 389 472 q 272 461 279 472 q 249 347 264 450 l 248 339 l 245 326 l 243 311 q 237 277 241 298 q 229 228 233 256 q 218 164 225 199 q 212 117 212 129 l 212 111 q 272 97 212 97 l 279 97 l 286 98 l 321 98 q 540 136 484 98 q 640 315 640 205 l 640 330 q 592 434 640 396 q 452 472 543 472 m 740 313 q 709 186 739 244 q 355 12 621 12 l 248 12 q 116 16 136 12 q 96 41 96 20 q 167 463 96 62 l 170 478 l 174 509 q 180 540 179 534 l 205 692 q 225 836 218 769 q 239 927 231 903 q 272 959 247 951 q 429 966 298 966 l 509 966 q 743 866 689 966 q 765 781 765 826 l 765 765 q 663 558 765 637 l 652 550 l 627 536 q 609 517 609 524 q 654 486 609 515 q 740 313 740 431 z "},"C":{"ha":840,"x_min":100,"x_max":850,"o":"m 100 353 l 100 373 q 136 596 100 486 q 240 791 173 706 q 397 924 307 876 q 587 972 487 972 l 606 972 q 775 942 718 972 q 850 857 850 903 q 836 827 850 845 q 796 808 821 808 q 740 827 771 808 q 668 861 709 845 q 561 878 627 878 q 428 838 494 878 q 315 729 362 798 q 240 564 267 660 q 213 391 213 469 q 357 98 213 161 q 471 81 397 81 q 623 119 546 81 q 710 156 701 156 q 748 128 748 156 q 633 28 748 79 q 456 -10 547 -10 l 436 -10 q 189 92 279 -10 q 122 213 144 142 q 100 353 100 284 z "},"D":{"ha":886,"x_min":88,"x_max":867,"o":"m 285 94 l 353 94 q 729 391 629 94 q 758 576 758 479 l 758 587 q 739 713 758 661 q 507 874 682 874 l 473 874 l 406 871 q 346 862 363 871 q 321 818 329 852 q 281 577 313 783 q 227 252 249 370 q 205 113 205 133 q 285 94 205 94 m 494 960 q 840 758 757 960 q 867 574 867 692 q 821 339 867 456 q 532 39 734 118 q 296 5 444 5 l 237 5 q 88 35 88 5 q 114 190 88 47 q 158 442 140 332 q 191 647 176 552 q 218 826 207 741 q 232 920 229 910 q 269 952 241 945 q 433 960 296 960 l 494 960 z "},"E":{"ha":767,"x_min":93,"x_max":769,"o":"m 313 -2 l 265 -2 q 117 12 140 -2 q 93 62 93 26 q 193 629 93 138 l 197 653 q 205 699 202 684 l 217 766 q 231 862 227 819 q 239 913 235 905 q 288 943 251 935 q 517 962 369 962 l 566 964 l 637 964 q 746 956 723 964 q 769 920 769 947 q 661 865 769 865 l 659 865 q 655 865 657 865 q 591 869 639 865 q 456 875 536 875 q 353 834 376 875 q 299 598 299 736 q 357 557 299 568 q 564 547 416 547 q 639 519 639 547 q 595 460 639 470 q 439 449 587 458 q 272 424 291 440 q 248 389 254 407 q 227 163 227 316 q 238 105 227 123 q 297 87 250 87 q 449 96 344 87 q 582 105 554 105 q 626 96 610 105 q 642 55 642 86 q 595 14 642 23 q 313 -2 520 -2 z "},"F":{"ha":742,"x_min":98,"x_max":753,"o":"m 321 584 q 352 554 321 561 q 474 547 382 547 q 598 536 566 547 q 631 492 631 525 q 607 450 631 459 q 496 441 583 441 q 273 380 318 441 q 218 210 246 346 q 179 47 190 74 q 133 20 168 20 q 98 48 98 20 q 114 150 98 49 q 134 284 130 250 q 154 393 138 319 q 182 543 170 468 q 209 695 194 617 q 228 837 224 774 q 237 913 232 899 q 543 961 254 961 l 713 969 q 753 947 753 969 q 672 880 753 880 l 551 887 q 370 857 390 887 q 342 743 362 844 q 321 584 321 642 z "},"G":{"ha":890,"x_min":110,"x_max":842,"o":"m 660 420 q 779 338 779 420 q 751 174 779 267 q 699 52 724 81 q 623 4 674 22 q 481 -28 528 -28 l 460 -28 q 323 5 393 -28 q 203 102 254 38 q 110 395 110 218 q 151 621 110 514 q 264 807 193 730 q 621 958 404 958 l 623 958 l 648 958 q 778 929 714 958 q 842 869 842 899 q 828 834 842 851 q 792 817 814 817 q 731 833 770 817 q 690 851 693 850 q 561 871 627 871 q 432 837 496 871 q 318 733 369 802 q 239 575 267 665 q 211 406 211 485 q 290 182 211 259 q 460 119 353 119 q 675 214 619 119 q 698 282 698 252 q 643 341 698 312 q 589 397 589 371 q 660 420 589 420 z "},"H":{"ha":930,"x_min":87,"x_max":906,"o":"m 727 16 q 673 97 673 16 q 684 233 673 132 l 693 304 q 701 374 701 370 q 667 431 701 420 q 399 452 597 452 q 275 408 305 452 q 227 245 258 383 l 216 197 q 205 149 208 165 l 201 124 l 197 100 q 187 54 191 66 q 109 9 170 9 q 87 31 87 9 l 87 52 q 173 491 87 77 q 202 702 176 509 q 231 901 229 896 q 272 923 239 923 q 315 909 305 923 q 326 857 326 895 q 308 679 326 819 l 298 606 q 330 548 298 558 q 541 532 380 532 q 722 555 701 532 q 775 731 744 578 q 816 904 807 885 q 889 940 833 940 q 906 918 906 940 q 852 589 906 803 q 809 374 839 534 q 775 135 779 214 q 769 45 772 56 q 727 16 762 16 z "},"I":{"ha":421,"x_min":102,"x_max":385,"o":"m 231 779 q 224 854 224 808 q 246 928 224 900 q 329 956 267 956 l 340 956 q 385 895 385 956 l 385 885 q 364 806 385 854 q 312 549 343 758 l 279 359 q 256 178 256 221 l 260 119 q 231 15 260 48 q 176 -1 217 -1 l 154 -1 q 115 9 127 -1 q 102 57 102 20 l 102 67 q 123 152 102 109 q 151 229 144 195 q 194 478 157 262 q 231 779 231 694 z "},"J":{"ha":533,"x_min":-16,"x_max":498,"o":"m 45 16 l 116 9 q 264 159 204 9 q 336 441 301 253 q 371 670 371 629 l 374 720 l 374 744 l 373 755 q 373 823 373 789 l 374 846 l 374 870 q 392 932 374 912 q 459 951 410 951 l 472 951 q 498 844 498 951 l 498 821 q 446 456 498 741 q 355 88 393 171 q 257 -44 317 5 q 115 -94 196 -94 l 102 -94 q 15 -79 45 -94 q -16 -40 -16 -64 q 5 1 -16 -15 q 45 16 26 16 z "},"K":{"ha":816,"x_min":111,"x_max":802,"o":"m 281 551 q 380 606 310 551 q 522 739 399 621 l 587 802 q 627 842 603 817 q 671 884 651 867 q 779 941 739 941 q 802 929 802 941 q 764 883 802 923 q 615 720 725 844 q 480 561 505 597 q 455 491 455 525 q 581 252 455 456 q 707 9 707 48 q 680 -1 707 -1 q 590 41 622 -1 q 488 229 557 82 q 405 398 418 376 q 348 445 377 445 q 267 378 301 445 q 221 204 242 331 q 191 58 199 78 q 140 19 176 19 q 111 59 111 19 q 217 837 111 170 q 263 926 231 926 q 314 886 314 926 l 270 568 q 281 551 270 551 z "},"L":{"ha":705,"x_min":91,"x_max":633,"o":"m 633 45 l 633 33 q 616 -1 633 5 q 513 -7 600 -7 l 483 -7 l 467 -6 l 406 -5 q 374 -4 390 -4 l 281 -2 q 131 5 172 -2 q 91 36 91 12 l 91 50 q 225 919 91 113 q 259 954 231 954 l 273 954 q 333 918 333 954 q 274 508 333 830 q 216 131 216 185 q 236 94 216 103 q 332 85 257 85 l 377 83 l 440 81 l 590 87 q 633 45 633 87 z "},"M":{"ha":1133,"x_min":98,"x_max":1088,"o":"m 333 715 q 281 550 330 715 q 213 294 231 385 l 195 201 q 178 117 181 128 q 121 54 159 54 q 98 76 98 54 q 113 149 98 89 q 135 243 128 208 q 173 529 142 279 q 230 860 204 779 q 261 906 237 884 q 306 927 285 927 q 358 899 327 927 q 410 827 389 871 q 508 574 432 783 q 590 365 583 365 q 799 641 604 365 q 860 726 841 700 q 894 773 879 751 l 943 847 q 1040 920 998 920 q 1073 901 1057 920 q 1088 856 1088 882 q 987 80 1088 829 q 974 36 982 43 q 939 29 966 29 q 903 130 903 29 l 930 389 q 952 668 952 635 q 945 701 952 701 q 815 511 928 701 q 637 231 702 320 q 560 174 597 174 q 502 221 524 174 l 490 251 q 465 336 486 262 q 433 453 443 410 q 420 511 424 496 q 352 696 379 657 q 333 715 339 715 z "},"N":{"ha":949,"x_min":92,"x_max":942,"o":"m 750 30 q 654 83 684 30 q 513 399 632 123 q 336 758 395 675 l 325 772 q 250 443 310 772 q 176 66 191 113 q 125 18 162 18 q 92 54 92 18 q 229 876 92 128 q 281 930 239 930 q 357 907 328 930 q 434 806 387 884 q 597 468 482 728 q 718 208 712 208 q 783 528 728 208 q 841 857 838 848 q 911 932 862 932 q 942 897 942 932 q 786 75 942 876 q 750 30 777 30 z "},"O":{"ha":965,"x_min":106,"x_max":941,"o":"m 832 574 l 832 609 q 812 728 832 673 q 694 869 772 835 q 606 888 650 888 l 583 888 q 336 753 441 888 q 249 586 282 685 q 216 396 216 487 l 216 361 q 285 152 216 237 q 350 102 308 123 q 442 82 393 82 l 466 82 q 598 117 531 82 q 716 221 665 151 q 800 384 768 290 q 832 574 832 478 m 941 619 l 941 574 q 899 347 941 460 q 646 39 816 124 q 450 -8 551 -8 l 435 -8 q 196 89 286 -8 q 106 362 106 186 l 106 392 q 148 616 107 504 q 404 930 231 841 q 597 977 496 977 l 613 977 q 616 977 615 977 q 741 955 680 977 q 912 777 861 911 q 941 619 941 701 z "},"P":{"ha":762,"x_min":92,"x_max":798,"o":"m 313 481 l 368 481 l 376 482 l 433 484 q 447 485 440 485 q 621 553 548 485 q 694 724 694 620 l 694 726 l 694 734 q 650 844 694 804 q 522 885 606 885 l 471 885 l 465 884 q 351 863 362 884 q 329 771 339 841 q 299 608 318 701 q 281 508 281 515 l 281 503 l 281 497 q 313 481 281 481 m 505 965 l 536 965 q 777 849 719 965 q 798 751 798 806 l 798 735 q 754 574 798 649 q 654 465 709 500 q 541 416 598 430 q 385 396 484 403 q 267 373 286 389 q 236 264 255 363 q 210 113 217 164 q 196 45 202 62 q 131 1 180 1 l 118 1 q 92 31 92 1 q 110 142 92 60 q 136 264 128 223 l 157 382 q 179 498 163 412 q 201 629 195 585 q 219 731 206 673 q 238 851 232 789 q 248 920 245 913 q 295 950 257 943 q 505 965 374 965 z "},"Q":{"ha":997,"x_min":121,"x_max":968,"o":"m 215 417 l 215 366 q 235 252 216 310 q 347 105 269 147 q 462 77 399 77 l 487 77 q 583 104 540 77 q 789 282 720 189 q 847 414 827 333 q 868 562 868 495 l 868 600 q 848 718 868 658 q 715 872 808 835 q 620 892 665 892 l 594 892 q 344 767 448 892 q 250 599 286 696 q 215 417 215 502 m 968 588 q 888 274 968 449 q 809 144 854 199 q 757 89 797 129 q 717 36 717 49 q 770 -50 717 6 q 818 -82 796 -76 q 839 -95 839 -89 q 828 -107 839 -100 q 746 -129 792 -129 l 730 -129 q 495 -66 665 -129 q 263 50 326 -3 q 160 201 200 103 q 121 388 121 298 l 121 425 q 158 628 121 522 q 264 814 195 734 q 421 935 333 895 q 597 975 509 975 l 635 975 q 772 946 705 975 q 879 871 838 917 q 944 754 920 825 q 968 606 968 684 l 968 588 z "},"R":{"ha":796,"x_min":93,"x_max":771,"o":"m 300 515 l 380 515 l 387 516 l 441 517 q 455 518 448 518 q 610 580 548 518 q 672 721 672 642 l 672 749 q 626 844 672 808 q 489 881 579 881 l 429 881 l 422 880 l 370 878 q 357 878 363 878 q 323 846 332 878 q 273 532 273 665 q 300 515 273 515 m 308 431 q 247 386 261 431 q 217 214 243 373 q 177 35 191 54 q 110 15 163 15 q 93 58 93 15 q 147 405 93 100 q 213 807 201 709 q 229 922 224 904 q 255 951 235 941 q 343 961 275 961 l 382 962 l 439 963 l 477 963 q 754 842 701 963 q 771 749 771 802 q 634 492 771 589 q 568 415 568 445 q 636 225 568 407 q 704 36 704 43 q 661 12 704 12 q 596 45 618 12 q 537 204 585 62 q 452 389 488 347 q 308 431 416 431 z "},"S":{"ha":767,"x_min":63,"x_max":747,"o":"m 692 825 q 616 857 685 825 q 477 890 547 890 q 348 846 408 890 q 289 732 289 802 q 340 618 289 662 q 481 539 368 593 q 635 440 593 486 q 692 287 692 378 q 667 176 692 233 q 481 15 618 65 q 354 -8 418 -8 l 332 -8 q 150 31 236 -8 q 63 104 63 71 q 80 151 63 132 q 116 171 97 171 q 183 143 135 171 q 237 112 231 115 q 379 83 297 83 q 520 137 460 83 q 581 265 581 190 q 525 387 581 340 q 385 464 497 410 q 229 571 273 518 q 184 691 184 624 q 208 809 184 758 q 288 905 232 861 q 508 977 377 977 q 677 948 607 977 q 747 874 747 920 q 731 843 747 861 q 692 825 715 825 z "},"T":{"ha":759,"x_min":136,"x_max":823,"o":"m 609 974 q 807 959 775 974 q 823 942 823 951 l 823 928 q 808 884 823 897 q 755 871 793 871 l 640 878 q 537 832 557 878 q 470 520 527 809 q 407 169 414 231 q 393 71 401 106 q 332 -3 375 -3 l 315 -3 q 269 30 269 -3 q 289 148 269 64 q 352 451 310 233 q 394 798 394 669 q 385 859 394 850 q 331 867 375 867 q 245 861 286 867 q 171 854 205 854 q 136 896 136 854 q 192 955 136 937 q 390 972 248 972 l 437 972 l 505 975 l 574 975 l 591 974 l 609 974 z "},"U":{"ha":922,"x_min":132,"x_max":911,"o":"m 245 283 q 294 135 245 188 q 426 82 342 82 q 669 238 590 82 q 754 568 701 300 l 759 591 q 771 656 767 631 q 787 734 776 681 l 797 780 q 811 859 804 817 q 818 904 817 902 q 882 946 829 946 q 911 916 911 946 q 892 807 911 898 q 866 674 874 717 q 837 458 858 631 q 781 211 816 285 q 649 56 732 110 q 459 2 565 2 l 436 2 q 153 164 211 2 q 132 276 132 220 l 132 300 q 166 556 132 371 q 211 834 201 742 q 222 929 222 926 q 246 950 229 950 q 298 941 281 950 q 315 903 315 932 l 313 867 q 313 830 313 849 q 279 527 313 731 q 245 283 245 322 z "},"V":{"ha":846,"x_min":136,"x_max":905,"o":"m 386 148 q 511 368 397 148 q 683 704 625 587 l 766 874 q 783 909 781 904 q 878 962 815 962 l 896 962 q 905 941 905 962 q 881 887 905 937 q 462 98 693 504 q 405 19 426 35 q 355 3 384 3 l 336 3 q 282 77 298 3 q 247 298 266 151 q 213 517 227 446 q 178 711 199 589 q 147 870 157 833 q 136 916 136 906 l 136 931 q 171 946 136 946 q 226 925 205 946 q 261 850 247 903 q 342 424 302 701 q 386 148 382 148 z "},"W":{"ha":1251,"x_min":164,"x_max":1257,"o":"m 694 882 q 758 833 742 882 q 809 505 766 811 q 869 199 852 199 q 1086 672 907 199 q 1166 875 1158 861 q 1253 928 1199 928 l 1257 915 q 1208 766 1257 905 q 971 146 1054 322 q 912 77 949 100 q 857 54 874 54 q 787 143 817 54 q 719 416 746 265 q 686 591 691 568 l 680 624 l 671 646 q 583 496 664 646 q 486 317 503 345 q 315 64 340 64 q 266 89 291 64 q 235 149 241 113 q 201 503 220 251 q 173 809 181 755 q 164 882 164 863 l 164 905 q 192 924 164 924 q 237 906 220 924 q 300 530 276 866 q 348 195 325 195 q 528 546 375 195 q 583 686 547 587 l 620 791 l 631 824 l 644 856 q 694 882 662 882 z "},"X":{"ha":831,"x_min":24,"x_max":865,"o":"m 711 735 q 539 483 539 515 q 602 310 539 451 q 700 99 665 169 q 735 22 735 30 q 683 1 735 1 q 608 36 631 1 q 519 231 585 71 q 436 390 454 390 q 304 230 427 390 q 150 38 181 70 q 72 7 119 7 q 24 22 24 7 q 75 95 24 38 q 253 317 127 152 q 378 503 378 481 q 323 647 378 524 q 229 846 268 770 q 189 934 189 922 q 242 950 189 950 q 320 907 294 950 q 395 745 329 893 q 472 597 462 597 q 563 690 482 597 q 682 834 643 784 q 739 904 721 884 q 851 945 778 945 q 865 930 865 945 q 823 875 865 926 q 711 735 781 825 z "},"Y":{"ha":777,"x_min":140,"x_max":823,"o":"m 410 519 q 553 679 434 519 q 657 825 615 762 q 701 890 700 889 q 794 944 749 944 l 806 944 q 823 930 823 944 q 661 682 823 928 q 475 387 499 437 q 424 208 450 337 q 385 39 397 78 q 350 13 376 13 q 289 45 289 13 q 308 198 289 82 q 328 378 328 314 q 284 555 328 442 q 191 773 241 667 q 140 903 140 879 q 188 933 140 933 q 235 913 207 933 q 276 867 264 893 q 303 797 288 842 q 359 636 317 752 q 410 519 401 519 z "},"Z":{"ha":804,"x_min":52,"x_max":843,"o":"m 222 874 q 216 879 222 874 q 211 914 211 884 q 237 954 211 943 q 391 965 264 965 l 416 964 l 585 964 q 843 938 843 964 q 531 517 843 899 q 219 103 219 136 q 399 81 219 81 q 572 89 492 81 q 653 98 651 98 q 708 86 696 98 q 720 47 720 75 q 696 9 720 20 q 537 -5 661 -5 l 488 -5 l 464 -5 l 439 -5 l 295 -2 l 174 -1 q 68 9 83 -1 q 52 39 52 19 q 365 464 52 81 q 678 869 678 846 q 564 878 678 878 q 413 876 450 878 l 278 864 q 222 874 233 864 z "},"[":{"ha":498,"x_min":80,"x_max":562,"o":"m 537 1027 q 562 1010 562 1027 q 519 958 562 970 q 461 953 513 956 q 393 941 409 950 q 352 887 363 925 q 302 636 340 849 q 222 211 264 423 q 180 -72 180 -1 q 212 -119 180 -106 q 270 -126 221 -122 q 331 -140 318 -131 q 345 -182 345 -149 q 288 -203 345 -203 l 173 -203 q 97 -190 115 -203 q 80 -133 80 -176 l 80 -102 q 120 142 80 -56 q 209 622 159 340 q 271 948 258 903 q 302 1009 283 994 q 401 1024 321 1024 l 505 1027 l 537 1027 z "},"\\":{"ha":547,"x_min":120,"x_max":477,"o":"m 477 -67 q 424 -88 477 -88 q 378 -36 393 -88 q 147 871 277 319 q 120 987 120 986 q 174 1008 120 1008 q 220 956 206 1008 q 477 -67 477 -18 z "},"]":{"ha":498,"x_min":-1,"x_max":475,"o":"m 244 962 q 220 1001 220 975 q 294 1027 220 1027 l 310 1027 l 326 1026 q 357 1025 341 1025 q 459 1009 444 1025 q 475 931 475 993 l 475 916 q 387 418 475 916 q 281 -132 299 -79 q 226 -194 262 -185 q 62 -203 189 -203 l 16 -203 q -1 -192 -1 -203 q 37 -139 -1 -158 q 106 -130 55 -130 q 180 -113 158 -130 q 214 -51 201 -95 q 304 426 227 -7 q 382 892 382 859 q 361 937 382 925 q 298 952 340 949 q 244 962 256 956 z "},"^":{"ha":755,"x_min":159,"x_max":675,"o":"m 469 929 l 477 929 q 531 862 500 929 q 675 527 675 549 q 642 509 675 509 q 583 553 608 509 q 512 711 558 597 q 449 825 465 825 q 366 706 446 825 q 257 549 287 587 q 181 510 227 510 q 159 518 159 510 q 219 613 159 527 q 337 786 279 699 q 417 901 395 873 q 469 929 439 929 z "},"_":{"ha":716,"x_min":-5,"x_max":643,"o":"m 633 -77 q 643 -92 643 -77 l 643 -98 q 615 -144 643 -140 q 305 -146 602 -146 l 38 -146 l 10 -146 q -5 -137 -5 -146 l -5 -119 q 23 -80 -5 -84 q 341 -78 37 -78 l 441 -77 l 633 -77 z "},"`":{"ha":456,"x_min":174,"x_max":384,"o":"m 384 759 l 384 753 q 363 740 384 740 l 357 740 q 296 774 330 740 q 174 941 174 897 l 174 943 q 206 960 174 960 l 219 960 q 288 929 262 960 q 384 759 384 817 z "},"a":{"ha":726,"x_min":68,"x_max":673,"o":"m 171 275 l 171 253 q 203 132 171 182 q 287 81 236 81 l 309 81 q 396 111 348 81 q 475 184 444 140 q 530 300 506 228 q 554 459 554 373 l 554 481 q 528 580 554 555 q 443 604 502 604 l 429 604 q 254 509 333 604 q 194 398 216 463 q 171 275 171 334 m 673 565 l 673 553 q 652 420 673 536 q 632 273 632 303 q 631 220 632 243 l 629 186 l 629 165 l 629 155 l 629 135 l 630 109 l 632 92 q 633 76 633 81 q 587 39 633 39 q 553 74 566 39 q 521 110 540 110 q 483 85 519 110 q 418 51 447 61 q 267 12 306 12 q 125 76 181 12 q 68 249 68 139 q 97 408 68 326 q 178 549 126 490 q 422 675 286 674 l 435 675 q 567 629 500 675 q 604 612 593 612 q 628 616 616 612 q 643 621 640 621 q 673 565 673 621 z "},"b":{"ha":727,"x_min":89,"x_max":694,"o":"m 338 75 l 361 75 q 440 95 399 75 q 572 271 528 138 q 596 397 596 344 l 596 435 q 562 554 596 509 q 466 600 528 600 l 458 599 l 450 599 q 357 569 406 599 q 233 367 267 514 q 214 219 214 280 l 214 189 q 249 105 214 135 q 338 75 283 75 m 694 411 q 666 254 693 336 q 594 115 639 172 q 366 -2 502 -1 q 273 15 309 -2 q 211 52 237 33 q 182 71 185 71 q 156 52 180 71 q 107 32 132 32 q 89 60 89 32 l 89 73 q 224 926 89 74 q 258 987 234 987 q 308 974 295 987 q 321 920 321 960 q 300 760 321 880 q 279 622 279 639 q 292 605 279 605 q 350 631 293 605 q 441 666 406 658 q 500 673 473 673 q 574 658 540 673 q 662 572 629 633 q 694 427 694 512 l 694 411 z "},"c":{"ha":627,"x_min":74,"x_max":608,"o":"m 74 243 l 74 258 q 102 416 75 336 q 288 644 156 576 q 425 677 353 677 l 440 677 q 561 647 513 677 q 608 586 608 618 q 593 556 608 573 q 559 540 578 540 q 520 552 541 540 q 411 589 457 589 q 241 480 315 589 q 182 260 182 394 q 223 124 182 170 q 336 78 264 78 q 338 78 337 78 q 478 115 404 78 q 528 132 510 132 q 556 99 556 132 q 455 22 556 66 q 324 -7 388 -7 q 138 62 202 -7 q 74 243 74 132 z "},"d":{"ha":732,"x_min":82,"x_max":741,"o":"m 177 277 l 177 256 q 216 126 177 172 q 310 81 254 81 l 331 81 q 413 107 374 81 q 475 175 453 133 q 524 313 498 218 q 549 487 549 408 l 549 509 q 425 600 549 600 l 401 600 q 322 576 362 600 q 252 511 283 553 q 177 277 177 408 m 576 644 q 620 787 593 644 q 653 945 648 930 q 705 988 669 988 q 741 967 741 988 l 741 954 q 676 555 741 946 q 611 83 611 165 q 574 25 611 25 q 535 59 551 25 q 511 92 519 92 q 492 80 508 92 l 469 63 q 292 10 390 10 l 261 10 q 125 87 180 10 q 82 245 82 146 l 82 260 q 112 410 82 332 q 290 637 175 577 q 418 671 355 671 q 526 657 481 671 q 576 644 571 644 z "},"e":{"ha":671,"x_min":83,"x_max":643,"o":"m 442 606 l 422 606 q 286 545 354 606 q 229 463 254 515 q 205 393 205 410 q 227 370 205 370 l 250 370 l 307 376 q 509 424 405 376 q 551 492 551 443 l 551 502 l 550 507 q 517 579 550 553 q 442 606 484 606 m 301 -1 q 146 68 210 -1 q 83 238 83 136 l 83 267 q 113 429 83 349 q 306 652 174 592 q 431 682 370 682 l 460 682 q 591 636 538 682 q 643 514 643 591 l 643 499 q 568 368 643 410 q 306 296 494 325 q 219 279 233 284 q 195 222 195 271 q 252 115 195 155 q 361 87 292 87 q 503 123 430 87 q 547 141 538 141 q 581 111 581 141 q 497 39 581 80 q 331 -1 414 -1 l 316 -1 l 301 -1 z "},"f":{"ha":475,"x_min":54,"x_max":562,"o":"m 313 927 q 470 994 378 994 q 562 950 562 994 q 532 911 562 926 q 469 900 530 909 q 380 864 408 890 q 332 721 332 821 q 399 678 332 686 q 466 640 466 670 q 405 596 466 610 q 323 539 345 583 q 241 232 281 450 q 186 -28 202 14 q 100 -103 157 -103 l 85 -103 q 54 -72 54 -103 l 54 -57 q 86 33 54 -48 q 132 168 119 113 q 173 472 173 349 q 170 543 173 526 q 153 593 166 559 q 140 640 140 626 q 176 684 140 654 q 216 719 212 713 q 251 810 220 726 q 313 927 281 894 z "},"g":{"ha":739,"x_min":37,"x_max":675,"o":"m 184 259 q 315 71 184 71 l 335 71 q 418 98 367 71 q 498 164 469 125 q 552 284 527 204 q 578 425 578 365 l 578 441 l 577 448 l 577 456 q 547 556 577 524 q 440 589 517 589 l 425 589 l 416 588 q 267 502 338 588 q 208 400 231 459 q 186 302 186 341 l 184 288 l 184 259 m 675 555 q 620 192 675 468 q 523 -165 564 -85 q 404 -292 482 -245 q 240 -338 325 -338 q 97 -310 156 -338 q 37 -254 37 -281 l 37 -241 q 94 -197 37 -197 q 145 -205 106 -197 q 232 -214 183 -214 q 329 -193 281 -214 q 411 -140 377 -173 q 456 -62 446 -106 q 467 49 467 -18 q 450 73 467 73 l 438 66 l 425 54 l 410 43 q 235 -14 328 -14 q 106 33 142 -14 q 70 168 70 79 q 98 342 70 256 q 290 593 156 513 q 428 640 368 640 q 549 590 488 640 q 579 573 570 573 q 617 600 589 573 q 654 608 631 608 q 675 583 675 608 l 675 555 z "},"h":{"ha":724,"x_min":87,"x_max":635,"o":"m 547 438 q 436 574 547 574 q 277 469 337 574 q 214 251 245 415 q 178 73 182 87 q 124 12 161 12 q 87 48 87 12 q 107 172 87 56 l 115 216 q 129 294 119 237 q 155 448 138 351 l 174 553 q 204 750 195 671 q 231 920 213 828 q 272 978 243 978 q 321 938 321 978 q 305 813 321 909 q 281 680 288 716 q 273 630 273 644 q 293 607 273 607 q 319 619 296 607 q 466 656 389 656 q 590 606 544 656 q 635 463 635 556 l 635 443 q 624 326 635 412 q 602 151 612 239 q 591 55 593 62 q 541 26 583 26 q 513 99 513 26 q 530 296 513 173 q 547 438 547 419 z "},"i":{"ha":368,"x_min":114,"x_max":353,"o":"m 285 798 l 261 802 q 233 833 233 802 l 233 859 l 236 879 q 251 920 236 898 q 277 942 265 942 q 286 945 284 945 l 298 947 l 302 947 q 318 943 312 943 q 353 902 353 943 l 353 890 l 353 888 q 353 882 353 885 l 352 875 l 349 861 q 334 820 349 839 q 309 802 319 802 q 300 799 302 799 l 296 798 l 285 798 m 252 161 l 252 144 q 232 58 252 83 q 156 33 212 33 l 149 33 q 114 106 114 33 l 114 120 q 133 243 114 127 q 168 445 151 360 q 185 560 185 530 l 181 612 q 193 666 181 650 q 234 681 205 681 l 257 681 q 294 656 294 681 l 294 642 l 293 634 q 270 491 293 610 q 246 313 246 373 l 245 298 q 244 281 244 292 l 244 257 l 250 180 q 252 161 252 170 z "},"j":{"ha":365,"x_min":-73,"x_max":361,"o":"m 358 861 q 356 843 356 854 q 340 811 356 831 q 301 792 324 792 l 296 791 l 292 791 q 285 789 288 789 l 275 788 l 271 788 q 266 789 268 789 q 238 831 238 789 l 238 844 l 239 846 l 241 866 q 241 880 241 869 q 258 917 241 892 q 304 941 275 941 l 315 943 l 322 943 q 358 914 358 943 l 360 905 l 360 900 l 361 893 l 361 886 l 360 884 l 360 876 l 358 861 m 193 616 q 203 672 193 659 q 248 686 212 686 l 271 686 q 300 623 300 686 l 300 593 q 248 257 300 553 q 169 -102 196 -39 q 88 -206 142 -166 q -35 -245 34 -245 q -73 -215 -73 -245 q 7 -147 -73 -184 q 81 -64 60 -123 q 147 258 102 -5 q 192 565 192 522 l 193 585 l 193 616 z "},"k":{"ha":669,"x_min":99,"x_max":611,"o":"m 117 22 q 99 48 99 22 q 224 917 99 113 q 266 981 234 981 q 305 972 298 981 q 312 920 312 964 q 277 685 312 877 q 243 441 243 493 q 256 430 243 430 q 343 488 269 430 q 458 583 416 545 q 522 636 500 621 q 577 652 544 652 q 611 643 611 652 q 500 489 611 617 q 389 342 389 361 q 427 260 389 322 l 448 229 q 507 120 464 204 q 549 22 549 37 q 511 8 549 8 q 452 31 472 8 q 371 183 431 54 q 286 313 311 313 q 227 264 247 313 q 193 143 212 229 q 172 52 174 58 q 117 22 155 22 z "},"l":{"ha":364,"x_min":104,"x_max":336,"o":"m 225 940 q 225 953 225 940 q 240 983 225 966 q 288 1000 255 1000 l 300 1000 q 336 962 336 1000 l 336 920 q 284 595 336 898 q 233 197 233 293 q 233 170 233 183 l 235 135 l 241 81 q 226 22 241 43 q 170 1 210 1 l 159 1 q 127 12 136 1 q 104 100 104 44 l 104 122 q 125 234 104 143 q 157 400 146 325 q 176 517 168 475 l 200 660 q 229 863 229 826 l 227 883 q 225 940 225 913 z "},"m":{"ha":1064,"x_min":81,"x_max":992,"o":"m 839 644 q 992 458 992 644 q 943 95 992 312 q 886 6 922 6 q 854 29 854 6 q 884 236 854 52 q 914 450 914 420 q 877 532 914 505 q 818 547 855 547 q 740 525 780 547 q 667 448 701 502 q 603 264 633 395 q 564 83 573 133 q 552 29 555 34 q 493 11 542 11 q 465 35 465 11 q 496 228 465 63 q 526 446 526 393 q 433 567 526 567 q 338 539 382 567 q 273 475 294 511 q 225 341 252 439 q 181 158 199 243 q 153 49 163 72 q 112 26 143 26 q 81 60 81 26 q 104 244 81 125 l 138 406 q 152 494 142 430 q 165 576 161 559 q 212 626 178 626 q 241 607 222 626 q 267 589 260 589 q 302 604 274 589 q 378 641 330 620 q 478 662 426 662 q 558 648 530 662 q 612 604 586 634 q 652 574 638 574 q 719 609 656 574 q 839 644 782 644 z "},"n":{"ha":730,"x_min":75,"x_max":652,"o":"m 652 467 q 643 376 652 442 q 629 274 633 310 q 625 151 625 238 q 618 49 625 63 q 579 35 610 35 q 541 55 547 35 q 535 151 535 76 q 545 305 535 225 q 555 446 555 385 q 425 576 555 576 q 343 549 387 576 q 269 465 300 522 q 205 239 237 408 q 160 43 173 71 q 113 15 146 15 l 100 15 q 75 35 75 15 q 165 552 75 151 q 220 644 186 644 q 260 578 260 644 q 268 563 260 563 q 302 585 275 563 q 481 662 400 662 q 608 614 563 662 q 652 486 652 567 l 652 467 z "},"o":{"ha":717,"x_min":83,"x_max":692,"o":"m 333 76 l 349 76 q 433 99 389 76 q 565 281 519 144 q 584 394 584 338 l 584 424 q 546 558 584 509 q 441 608 508 608 l 425 608 q 334 582 376 608 q 208 403 248 529 q 187 290 187 339 l 187 251 q 228 123 187 171 q 333 76 269 76 m 692 443 l 692 422 q 659 253 692 341 q 578 110 625 165 q 329 -7 477 -7 l 318 -6 l 307 -6 q 217 14 261 -6 q 143 67 172 34 q 83 250 83 137 l 83 271 q 114 438 83 355 q 297 656 174 597 q 437 688 365 688 l 448 688 q 551 667 505 688 q 625 617 598 645 q 692 443 692 546 z "},"p":{"ha":728,"x_min":12,"x_max":700,"o":"m 609 437 q 574 558 609 515 q 479 601 540 601 l 471 601 q 368 572 417 601 q 290 494 319 544 q 238 359 262 445 q 215 201 215 274 l 215 163 q 237 99 215 118 q 329 64 277 64 l 351 64 q 446 95 393 64 q 531 170 499 125 q 608 399 608 276 l 609 414 l 609 437 m 700 396 l 700 381 q 594 109 700 224 q 338 -6 488 -6 q 254 8 287 -6 l 191 35 q 150 -102 180 35 q 111 -263 119 -240 q 43 -318 89 -318 q 12 -299 12 -318 q 24 -238 12 -294 l 39 -161 q 54 -89 45 -130 q 114 246 62 -48 q 178 588 165 540 q 209 635 191 635 q 255 611 230 635 q 284 586 279 586 q 324 609 289 586 q 478 662 403 662 l 492 662 q 628 604 581 662 q 700 396 700 516 z "},"q":{"ha":725,"x_min":85,"x_max":691,"o":"m 182 279 l 182 250 q 213 133 182 182 q 304 85 244 85 l 327 85 q 409 109 363 85 q 485 172 455 133 q 539 297 514 210 q 564 435 564 384 l 565 450 l 566 471 l 566 486 q 542 570 566 547 q 434 606 507 606 l 427 605 l 419 605 q 332 579 376 605 q 204 401 241 524 q 182 279 182 326 m 408 676 l 439 676 q 549 642 493 676 q 588 625 578 625 q 625 639 597 625 q 665 653 652 653 q 691 628 691 653 l 691 617 q 550 -242 691 481 q 508 -292 541 -292 q 454 -235 454 -292 q 474 -79 454 -208 q 494 60 494 50 q 484 70 494 70 l 448 48 q 399 20 410 25 q 293 -3 347 -3 q 137 75 189 -3 q 85 261 85 152 l 85 291 q 115 439 85 360 q 289 646 170 589 q 408 676 352 676 z "},"r":{"ha":512,"x_min":83,"x_max":533,"o":"m 476 666 l 486 666 q 533 632 533 666 q 509 576 533 591 q 461 568 504 572 q 387 547 418 563 q 295 466 327 517 q 231 241 262 414 q 185 31 199 68 q 130 6 176 6 l 118 6 q 83 36 83 6 q 111 193 83 47 q 155 464 140 340 q 179 622 170 589 q 205 656 189 656 q 270 585 265 656 q 281 551 273 551 q 318 586 284 551 q 476 666 395 666 z "},"s":{"ha":610,"x_min":56,"x_max":559,"o":"m 437 203 q 410 257 437 233 q 302 314 382 281 q 184 384 222 347 q 146 494 146 422 q 207 619 146 566 q 352 672 268 672 l 382 672 q 499 649 439 672 q 559 604 559 627 q 526 563 559 563 q 465 585 524 563 q 357 606 406 606 q 274 576 308 606 q 241 503 241 546 q 288 427 241 460 q 379 382 304 416 q 493 310 454 348 q 532 211 532 272 q 382 11 532 71 q 279 -9 330 -9 l 264 -9 q 120 17 185 -9 q 56 73 56 43 q 71 105 56 89 q 100 121 86 121 q 137 107 113 121 q 195 80 161 94 q 293 65 229 65 q 396 104 356 65 q 437 203 437 143 z "},"t":{"ha":487,"x_min":114,"x_max":471,"o":"m 273 -1 q 140 161 140 -1 q 163 355 140 236 q 186 545 186 475 q 155 591 186 583 q 114 616 114 602 q 153 665 114 648 q 225 706 216 692 q 250 788 233 719 q 271 866 267 857 q 332 899 289 899 q 359 866 359 899 q 351 811 359 864 q 343 722 343 758 q 407 679 343 694 q 471 646 471 663 l 471 636 q 416 600 471 608 q 323 564 334 588 q 280 425 312 541 q 248 223 248 309 q 265 115 248 137 q 330 92 281 92 l 372 95 q 393 55 393 95 q 361 16 393 32 q 286 -1 330 -1 l 273 -1 z "},"u":{"ha":732,"x_min":100,"x_max":667,"o":"m 628 176 q 561 37 628 37 q 526 53 537 37 l 504 81 q 470 63 500 81 q 399 29 439 45 q 279 13 359 13 q 157 47 199 13 q 100 187 100 95 l 100 204 q 130 408 100 210 q 168 632 161 606 q 209 659 175 659 q 250 645 243 659 q 258 572 258 630 q 229 373 258 513 q 199 184 199 232 q 300 81 199 81 q 399 111 350 81 q 479 186 449 142 q 546 387 509 231 q 570 502 559 444 q 629 635 593 634 q 667 592 667 635 q 661 530 667 575 q 642 355 655 485 q 628 176 628 226 z "},"v":{"ha":660,"x_min":109,"x_max":682,"o":"m 275 -2 q 229 16 241 -1 q 172 262 199 58 q 127 553 144 465 q 109 646 109 642 q 157 664 109 664 q 223 595 204 664 q 264 324 242 526 q 305 122 287 122 q 446 369 323 122 q 479 437 453 382 l 492 464 q 508 500 502 486 q 539 567 515 513 q 571 632 564 621 q 650 672 595 672 l 663 672 q 682 665 682 672 q 652 590 682 651 q 386 86 490 258 q 330 13 350 27 q 275 -2 309 -2 z "},"w":{"ha":983,"x_min":130,"x_max":973,"o":"m 664 31 q 599 131 638 31 q 547 299 584 170 q 507 429 510 429 q 470 374 505 429 q 347 181 435 318 q 232 45 258 45 q 180 83 192 45 q 175 123 178 90 q 169 183 172 157 q 146 509 146 354 q 141 574 146 542 l 138 593 l 130 629 l 130 643 l 139 649 q 210 599 193 649 q 238 359 218 573 q 286 146 257 146 q 484 602 291 146 q 532 640 500 640 q 592 618 581 640 q 625 381 595 612 q 662 150 654 151 q 770 341 682 150 q 785 378 774 351 q 838 499 796 405 q 884 601 880 593 q 968 646 911 646 l 973 637 l 956 590 q 935 534 943 556 q 749 90 846 273 q 664 31 719 31 z "},"x":{"ha":645,"x_min":6,"x_max":643,"o":"m 561 21 q 498 5 561 5 q 437 42 463 5 q 374 149 428 56 q 314 243 321 243 q 227 143 307 243 q 131 26 147 43 q 48 -16 90 -16 q 6 -7 6 -16 l 6 2 q 54 63 6 10 q 181 219 102 117 q 260 345 260 321 q 196 487 260 368 q 133 641 133 605 q 179 660 133 660 q 240 643 224 660 q 303 519 255 625 q 357 414 351 414 q 420 478 370 414 q 497 581 470 543 q 528 623 524 620 q 616 663 563 663 q 643 651 643 663 l 421 330 q 450 264 421 319 q 520 121 479 208 q 561 21 561 33 z "},"y":{"ha":679,"x_min":76,"x_max":680,"o":"m 296 29 q 238 141 296 62 q 156 290 180 220 q 110 572 110 426 q 130 616 110 601 q 174 631 149 631 q 249 496 215 631 q 274 289 264 436 q 296 142 284 142 q 390 224 331 142 q 496 414 448 306 l 536 510 q 559 564 548 536 q 575 601 570 592 q 652 659 607 659 l 666 659 q 680 646 680 659 q 570 354 680 633 q 395 -23 460 76 q 255 -182 330 -122 q 89 -271 142 -271 q 76 -258 76 -271 q 143 -197 76 -236 q 241 -117 210 -159 q 296 29 296 -41 z "},"z":{"ha":635,"x_min":37,"x_max":623,"o":"m 37 27 q 254 314 37 66 q 471 577 471 563 q 412 591 471 591 q 282 583 353 591 q 189 576 210 576 q 157 584 168 576 q 146 625 146 593 q 171 665 146 658 q 357 672 196 672 l 374 672 l 392 671 l 495 670 q 530 669 513 669 q 623 648 623 669 q 414 367 623 608 q 205 109 205 125 q 292 92 205 92 q 427 98 380 92 q 477 103 475 103 q 530 91 519 103 q 541 54 541 79 q 524 17 541 28 q 415 5 507 5 l 398 4 q 364 3 381 3 l 210 3 l 88 2 l 71 2 q 37 15 37 2 l 37 27 z "},"{":{"ha":501,"x_min":98,"x_max":562,"o":"m 214 406 q 229 382 214 401 q 257 339 245 363 q 269 273 269 314 q 248 139 269 233 q 227 -8 227 45 q 244 -88 227 -62 q 303 -134 261 -114 q 345 -186 345 -154 q 309 -214 345 -214 q 181 -170 227 -214 q 135 -41 135 -127 q 159 116 135 9 q 183 269 183 224 q 158 339 183 314 q 123 363 148 349 q 98 392 98 377 q 150 456 98 431 q 222 519 203 480 q 268 713 242 557 q 326 918 293 869 q 413 996 359 968 q 531 1025 468 1025 l 547 1025 q 562 1010 562 1025 q 540 964 562 983 q 481 941 537 962 q 399 876 426 920 q 351 699 373 833 q 316 530 330 565 q 236 428 294 473 q 214 406 213 410 z "},"|":{"ha":402,"x_min":117,"x_max":334,"o":"m 117 -216 q 252 988 117 -70 q 296 1027 257 1027 l 308 1027 q 334 1006 334 1027 q 198 -199 334 859 q 155 -239 193 -239 l 142 -239 q 117 -216 117 -239 z "},"}":{"ha":508,"x_min":1,"x_max":456,"o":"m 342 425 q 294 529 294 481 q 316 676 294 578 q 338 824 338 774 q 325 899 338 873 q 266 945 311 924 q 222 996 222 966 q 253 1025 222 1025 q 373 980 328 1025 q 418 839 418 935 q 397 690 418 787 q 376 549 376 593 q 400 478 376 505 q 431 456 406 472 q 456 422 456 439 q 405 360 456 385 q 334 293 354 334 q 290 98 315 251 q 227 -107 264 -54 q 136 -187 189 -161 q 29 -213 82 -213 l 14 -213 q 1 -199 1 -213 q 47 -144 1 -157 q 96 -130 94 -131 q 165 -65 139 -112 q 212 116 191 -18 q 246 285 233 250 q 321 381 269 345 q 355 408 355 405 q 342 425 355 410 z "},"~":{"ha":716,"x_min":112,"x_max":682,"o":"m 505 366 q 389 413 467 366 q 274 460 311 460 q 194 417 236 460 q 132 375 151 375 q 112 394 112 375 q 168 484 112 437 q 283 530 224 530 l 290 530 q 407 483 323 530 q 527 437 492 437 q 601 479 562 437 q 662 522 641 522 q 682 508 682 522 l 682 502 q 625 410 682 454 q 512 366 567 366 l 505 366 z "},"":{"ha":401,"x_min":0,"x_max":0,"o":""},"":{"ha":398,"x_min":82,"x_max":355,"o":"m 217 718 l 219 735 l 221 744 q 239 780 221 762 q 298 798 256 798 l 302 798 l 305 797 l 323 795 q 327 794 325 794 q 352 774 352 794 q 353 768 353 770 l 355 760 l 355 744 q 351 721 351 734 q 336 689 351 708 q 302 671 321 671 l 300 670 l 297 669 l 277 667 l 264 667 l 262 668 l 247 670 q 243 671 245 671 q 216 709 216 671 l 216 715 l 217 718 m 130 -184 l 114 -184 q 82 -162 82 -184 q 214 488 82 -121 q 262 538 225 538 l 276 538 q 289 528 289 538 q 277 445 289 513 q 242 185 266 376 q 189 -137 218 -5 q 130 -184 178 -184 z "},"":{"ha":705,"x_min":121,"x_max":675,"o":"m 218 303 q 253 182 218 236 q 328 129 289 129 q 357 155 349 129 q 391 305 380 239 q 431 502 402 371 q 460 641 460 633 l 460 646 q 446 660 460 660 l 441 660 q 367 630 414 660 q 282 545 319 600 q 219 349 219 450 l 218 336 l 218 303 m 121 330 l 121 345 q 148 469 121 398 q 220 595 174 539 q 315 680 265 650 q 409 723 364 709 q 466 744 454 736 q 496 804 477 751 q 541 857 516 857 q 572 808 572 857 l 571 794 l 570 781 q 623 709 570 751 q 675 640 675 667 q 623 613 675 613 q 589 626 614 613 q 549 640 563 640 q 504 575 522 640 q 425 165 425 287 q 453 131 426 131 q 538 157 488 131 q 591 183 589 183 q 622 152 622 183 q 491 66 622 113 q 436 42 450 52 q 387 -21 422 31 q 328 -74 352 -74 q 304 -34 314 -74 q 287 16 294 5 q 234 62 279 27 q 165 146 189 97 q 121 330 121 233 z "},"":{"ha":759,"x_min":62,"x_max":718,"o":"m 324 559 q 344 524 324 535 q 442 506 364 513 q 520 475 520 498 q 434 426 520 453 q 326 371 347 399 q 271 244 304 342 q 238 112 238 146 q 378 79 238 79 q 532 85 471 79 l 552 87 q 588 91 585 91 q 631 49 631 91 q 597 10 631 20 q 515 4 577 4 l 471 5 l 241 4 q 196 3 219 4 l 151 2 l 129 2 q 78 14 94 2 q 62 46 62 25 q 100 99 62 67 q 158 169 138 132 q 205 320 205 256 q 183 411 205 385 q 149 457 149 450 q 167 489 149 464 q 201 528 184 514 q 224 554 218 541 q 233 596 230 567 q 404 910 262 839 q 530 941 465 941 q 656 913 595 941 q 718 863 718 885 q 673 829 718 829 q 621 842 661 829 q 533 854 581 854 q 445 834 486 854 q 381 781 405 814 q 340 686 357 748 q 324 559 324 623 z "},"":{"ha":793,"x_min":158,"x_max":734,"o":"m 411 309 l 430 309 q 570 374 514 309 q 627 535 627 439 l 627 541 q 588 672 627 625 q 477 720 550 720 l 458 720 q 326 663 376 720 q 285 587 306 640 q 264 467 264 534 q 301 355 264 401 q 411 309 337 309 m 240 214 q 223 197 240 214 q 182 180 205 180 q 158 228 158 180 q 182 276 158 231 q 206 335 206 321 q 196 380 206 349 q 185 472 185 412 q 198 567 185 532 q 226 629 210 602 q 242 676 242 656 q 222 731 242 696 q 203 777 203 766 q 236 825 203 825 q 283 795 254 825 q 332 766 312 766 q 399 776 351 766 q 470 786 447 786 q 534 777 493 786 q 598 767 575 767 q 655 797 621 767 q 699 827 688 827 l 707 827 q 734 781 734 827 q 705 731 734 770 q 676 665 676 692 q 685 622 676 659 q 693 527 693 585 q 648 391 693 469 q 628 339 628 358 q 653 283 628 321 q 677 239 677 245 q 650 197 677 197 q 602 227 639 197 q 537 256 566 256 q 484 247 536 256 q 392 237 431 237 l 295 248 q 240 214 275 248 z "},"":{"ha":785,"x_min":150,"x_max":757,"o":"m 419 519 q 498 623 427 519 q 606 784 570 727 q 656 859 642 842 q 753 922 707 922 q 757 910 757 922 q 641 729 757 898 q 526 509 526 559 q 557 466 526 499 q 589 419 589 433 q 529 385 589 405 q 460 356 469 366 q 450 320 450 346 q 512 284 450 306 q 574 245 574 262 q 552 214 574 222 l 536 210 l 501 203 q 421 182 425 184 q 390 102 403 168 q 371 28 377 37 q 320 -1 351 -1 q 280 45 280 -1 l 287 111 q 267 171 287 159 q 231 180 259 176 l 193 187 q 150 218 150 200 q 158 244 150 235 q 206 257 166 253 q 296 295 246 261 q 315 336 315 309 q 253 371 315 357 q 191 410 191 385 q 204 427 191 416 q 235 447 217 438 q 260 462 253 455 q 290 545 290 492 q 225 720 290 559 q 161 895 161 881 q 202 927 161 927 q 273 871 243 927 q 306 787 275 867 l 340 696 q 419 519 408 519 z "},"":{"ha":366,"x_min":107,"x_max":300,"o":"m 214 993 q 257 1040 214 1040 l 273 1040 q 300 1028 300 1040 l 300 1013 l 294 959 q 293 940 293 946 l 291 922 q 283 837 283 854 l 281 819 q 276 761 277 782 q 273 724 274 739 q 271 703 271 709 l 269 684 q 268 666 268 672 l 266 648 q 262 582 262 611 q 253 537 262 553 q 210 521 244 521 l 200 521 q 172 537 172 521 l 172 543 l 175 566 q 178 598 177 583 q 182 631 180 614 q 186 686 186 674 l 189 722 q 192 753 192 747 l 194 771 q 195 789 195 783 l 197 808 q 203 869 203 857 l 205 888 q 210 949 210 937 l 212 968 q 214 993 214 986 m 146 -212 l 131 -212 q 107 -196 107 -212 l 107 -191 l 113 -138 l 115 -119 q 119 -71 119 -83 l 121 -52 q 127 27 127 9 l 130 45 q 136 124 136 106 l 138 142 q 145 222 145 203 l 147 240 q 149 271 149 252 q 201 308 149 308 l 212 308 q 235 292 235 308 l 235 287 l 230 233 q 227 203 227 209 l 225 184 q 221 136 221 148 l 219 117 q 215 68 215 81 l 213 50 q 212 32 212 38 l 210 14 q 208 -5 208 1 l 206 -23 q 205 -41 205 -35 l 203 -60 q 199 -109 199 -96 l 195 -144 q 184 -201 195 -190 q 146 -212 173 -212 z "},"":{"ha":677,"x_min":96,"x_max":604,"o":"m 498 458 l 498 467 q 463 565 498 524 q 359 629 406 629 l 349 629 q 271 573 321 629 q 247 510 247 545 l 247 489 q 290 406 247 454 q 413 315 373 315 l 416 315 q 462 360 426 315 q 498 458 498 404 m 189 338 q 153 458 153 386 q 233 589 153 531 q 258 613 252 602 q 259 626 260 617 q 255 661 259 639 q 247 736 247 697 q 268 818 247 775 q 319 890 289 861 q 475 954 387 954 l 493 954 q 589 926 548 954 q 604 906 604 916 q 570 855 604 855 q 525 866 557 855 q 467 878 492 878 q 380 849 410 878 q 351 784 351 821 q 372 721 351 747 q 467 638 394 694 q 569 540 540 582 q 599 431 599 498 q 547 304 599 365 q 496 216 496 243 l 498 202 q 499 174 499 191 q 430 -2 499 76 q 254 -79 361 -79 l 236 -79 q 121 -47 177 -79 q 96 -17 96 -33 q 130 36 96 36 q 176 26 143 36 q 233 16 209 16 q 346 45 314 16 q 378 133 378 75 q 293 239 378 168 q 189 338 209 310 z "},"":{"ha":538,"x_min":146,"x_max":512,"o":"m 272 806 l 272 795 l 269 779 q 250 743 269 762 q 204 724 231 724 l 191 724 q 146 768 146 724 l 146 783 l 149 800 q 170 840 149 823 q 210 856 190 856 l 223 856 l 238 853 q 272 806 272 853 m 430 724 q 387 768 387 724 l 387 785 q 390 808 390 795 q 408 839 390 821 q 453 857 426 857 l 462 857 l 481 853 q 509 823 509 853 q 511 817 511 819 l 512 808 l 512 793 l 509 779 q 494 746 509 766 q 460 727 478 727 q 454 726 456 726 l 444 724 l 430 724 z "},"":{"ha":1080,"x_min":130,"x_max":1044,"o":"m 540 83 l 566 83 q 711 115 637 83 q 930 341 861 180 q 966 513 966 426 l 966 526 l 965 538 q 870 780 965 682 q 641 879 774 879 l 602 879 q 450 841 528 879 q 320 747 372 804 q 234 615 268 691 q 201 462 201 539 l 201 423 q 225 301 201 364 q 293 190 249 237 q 403 112 338 142 q 540 83 468 83 m 626 762 l 648 762 q 733 743 692 762 q 774 699 774 723 q 736 664 774 664 q 702 674 726 664 q 655 691 679 684 q 593 699 632 699 q 464 627 518 699 q 410 439 410 555 q 453 315 410 358 q 566 272 496 272 q 652 285 610 272 q 702 298 694 298 q 733 273 733 298 q 681 223 733 248 q 572 197 628 197 l 562 197 q 414 265 468 197 q 359 442 359 333 q 381 557 359 499 q 519 730 423 674 q 626 762 573 762 m 1044 538 l 1044 509 q 1001 319 1044 410 q 889 161 958 228 q 550 22 745 23 l 535 22 q 254 134 374 22 q 162 268 195 189 q 130 423 130 347 l 130 452 q 169 632 130 545 q 273 788 207 720 q 431 898 339 857 q 625 939 522 939 l 640 939 q 921 827 803 939 q 1013 693 981 772 q 1044 538 1044 614 z "},"":{"ha":536,"x_min":140,"x_max":483,"o":"m 408 762 q 359 790 408 790 l 345 790 q 243 746 293 790 q 193 646 193 702 l 193 642 q 210 586 193 606 q 253 565 228 565 l 260 565 q 359 617 313 565 q 404 724 404 669 q 406 734 406 734 l 408 752 l 408 762 m 450 534 q 422 546 433 534 q 405 559 411 559 q 359 543 399 559 q 278 528 320 528 l 262 526 l 254 526 q 219 528 239 528 q 170 552 199 528 q 140 616 140 576 l 140 623 q 170 701 140 665 q 240 763 200 737 q 281 792 279 789 q 301 854 301 823 q 294 892 301 885 l 293 892 q 297 893 293 893 q 303 889 302 889 l 315 889 q 376 898 354 889 q 414 907 399 907 l 426 907 q 457 891 446 907 q 483 804 483 856 l 483 781 q 477 731 483 764 l 476 714 q 471 645 471 654 l 481 582 q 450 534 481 534 z "},"":{"ha":739,"x_min":121,"x_max":686,"o":"m 418 639 q 435 615 435 639 q 271 427 435 591 q 218 368 218 374 q 286 260 218 362 q 354 140 354 159 q 328 104 354 104 l 322 104 q 234 194 298 104 q 121 368 121 350 q 257 512 121 385 q 412 639 392 639 l 418 639 m 665 635 q 686 609 686 635 q 579 483 686 583 q 473 368 473 383 q 540 260 473 353 q 607 138 607 168 q 579 109 607 109 q 526 142 552 109 q 376 370 376 326 q 504 506 376 378 q 665 635 633 635 z "},"":{"ha":844,"x_min":134,"x_max":749,"o":"m 692 513 q 736 502 722 513 q 749 462 749 491 l 749 422 q 721 208 749 252 q 709 201 717 201 l 701 201 q 646 246 646 201 q 648 270 648 264 q 650 292 648 275 l 654 377 q 621 436 654 426 q 371 440 608 440 q 134 458 134 440 l 134 473 q 152 513 134 513 l 197 513 l 206 512 l 407 513 l 692 513 z "},"":{"ha":570,"x_min":102,"x_max":522,"o":"m 143 457 l 279 457 l 284 456 l 324 456 q 522 440 522 456 l 522 436 q 486 364 522 364 l 304 364 l 299 365 l 229 365 l 209 364 l 119 364 q 102 376 102 364 l 102 385 q 143 457 102 457 z "},"":{"ha":976,"x_min":66,"x_max":873,"o":"m 492 665 q 552 675 538 665 q 578 730 578 693 l 578 749 l 574 779 q 547 827 574 810 q 484 844 519 844 l 470 844 l 466 844 l 459 844 q 403 827 415 844 q 391 729 391 810 l 387 686 q 393 657 387 657 l 397 657 l 440 665 l 492 665 m 811 639 l 811 672 q 784 800 811 739 q 609 967 728 923 q 500 987 555 987 l 478 987 q 349 958 415 987 q 234 878 283 930 q 154 757 184 825 q 124 622 124 688 l 124 589 q 224 369 124 465 q 316 312 260 334 q 435 290 372 290 l 458 290 q 587 319 521 290 q 783 513 722 377 q 811 639 811 576 m 435 890 l 486 890 q 596 857 558 890 q 634 772 634 826 q 568 651 634 695 q 541 621 541 633 l 592 534 q 640 448 640 454 q 616 441 640 441 q 579 451 593 441 q 528 529 566 461 q 474 614 490 596 q 425 632 458 632 q 385 610 393 632 q 374 537 380 595 q 358 460 367 478 q 315 443 349 443 q 304 456 304 443 l 304 478 q 320 610 304 502 q 336 792 336 719 q 353 878 336 865 q 435 890 369 890 m 873 694 l 873 668 q 838 505 873 586 q 739 363 802 423 q 456 240 519 240 q 446 241 450 240 q 171 349 278 241 q 95 463 124 395 q 66 612 66 531 l 66 626 l 66 639 q 101 787 66 709 q 195 925 136 865 q 333 1018 255 985 q 491 1052 412 1052 l 517 1052 q 657 1022 589 1052 q 840 842 785 966 q 873 694 873 767 z "},"":{"ha":541,"x_min":116,"x_max":549,"o":"m 549 819 l 549 803 q 525 764 549 769 q 315 761 513 761 l 159 761 l 139 760 l 125 760 q 116 768 116 760 l 116 785 q 140 824 116 819 q 351 826 149 826 l 525 827 l 538 827 q 549 819 549 827 z "},"":{"ha":488,"x_min":136,"x_max":486,"o":"m 199 736 q 225 672 199 703 q 290 642 252 642 l 304 642 q 386 683 350 642 q 422 770 422 724 l 422 789 q 421 800 421 796 q 391 861 421 835 q 323 888 361 888 l 320 887 q 240 852 280 887 q 200 770 200 817 l 199 763 l 199 736 m 136 734 l 136 756 q 191 882 136 822 q 318 941 245 941 l 340 941 q 442 897 398 941 q 486 789 486 853 l 486 779 q 434 649 486 711 q 304 587 382 587 l 281 587 q 178 633 220 587 q 136 734 136 680 z "},"":{"ha":766,"x_min":91,"x_max":716,"o":"m 476 537 q 582 519 476 519 q 702 516 688 519 q 716 490 716 512 l 716 479 q 694 443 716 448 q 572 438 671 438 q 467 429 473 438 q 449 324 460 419 q 434 222 437 229 q 392 205 427 205 l 381 205 q 354 231 354 205 l 371 407 q 361 434 371 430 q 242 437 352 437 q 132 457 132 437 l 132 467 q 154 513 132 507 q 277 519 177 519 q 384 528 378 519 q 398 629 390 537 q 414 736 407 721 q 456 752 422 752 l 467 752 q 494 725 494 752 l 476 537 m 671 125 l 671 108 q 642 59 671 64 q 439 56 623 56 l 118 56 q 91 68 91 56 l 91 85 q 121 134 91 128 q 396 137 140 137 l 644 137 q 671 125 671 137 z "},"":{"ha":549,"x_min":121,"x_max":504,"o":"m 370 423 l 308 423 l 296 424 l 271 424 l 233 425 l 220 426 l 183 427 q 121 442 121 427 q 233 584 121 484 q 383 735 345 683 q 421 840 421 788 q 400 883 421 867 q 346 899 379 899 q 269 866 313 899 q 216 833 224 833 q 195 853 195 833 q 251 927 195 890 q 357 964 307 964 l 382 964 q 469 932 433 964 q 504 848 504 899 l 504 836 q 466 729 504 781 q 338 597 429 677 q 248 504 248 517 q 318 491 248 491 l 424 495 q 459 459 459 495 q 370 423 459 423 z "},"":{"ha":543,"x_min":123,"x_max":486,"o":"m 262 410 l 238 410 q 142 445 188 410 q 123 475 123 459 q 163 508 123 508 q 199 496 170 508 q 276 484 229 484 q 356 514 324 484 q 387 600 387 544 q 306 675 387 655 q 260 705 260 686 q 309 748 260 724 q 405 854 405 796 q 342 899 405 899 q 271 884 315 899 q 225 869 227 869 q 199 893 199 869 q 253 942 199 918 q 356 966 306 966 l 381 966 q 486 879 486 966 q 419 747 486 807 q 396 719 396 726 q 416 699 396 712 q 469 592 469 665 q 405 464 469 519 q 262 410 340 410 z "},"":{"ha":423,"x_min":176,"x_max":423,"o":"m 392 947 l 399 947 q 423 939 423 947 q 325 822 423 907 q 216 736 227 736 l 200 734 l 187 734 q 176 739 176 734 l 176 743 q 311 922 176 787 q 392 947 336 947 z "},"":{"ha":741,"x_min":-1,"x_max":671,"o":"m 229 197 q 326 93 229 93 q 419 125 373 93 q 559 410 543 210 q 585 583 572 556 q 634 610 597 610 q 671 560 671 610 q 639 332 671 486 q 607 129 607 178 q 593 63 607 80 q 551 47 578 47 q 498 64 523 47 q 465 75 472 75 q 428 62 458 75 l 412 53 l 394 45 q 229 9 319 9 q 197 12 219 9 l 171 14 q 121 -93 153 14 q 103 -169 113 -122 q 90 -222 93 -215 q 22 -262 71 -262 q -1 -237 -1 -262 q 153 515 -1 -120 q 213 617 177 617 q 260 603 248 617 q 272 528 272 588 q 250 357 272 467 q 229 197 229 247 z "},"":{"ha":800,"x_min":118,"x_max":787,"o":"m 537 -88 q 496 -47 496 -88 q 564 370 496 -41 q 633 821 633 781 q 585 861 633 861 q 503 819 514 861 q 496 773 501 812 l 489 726 q 460 576 487 713 q 417 350 433 439 q 391 203 401 260 q 372 78 380 146 q 362 7 363 10 q 312 -43 352 -43 q 289 12 289 -43 q 310 104 289 15 q 331 245 331 194 q 294 424 331 345 q 242 490 281 451 q 207 515 239 493 q 146 580 175 538 q 118 683 118 622 l 118 709 q 154 827 118 768 q 362 969 220 939 q 570 985 435 985 l 597 985 l 623 983 q 672 983 640 983 q 781 960 763 983 l 787 943 q 752 862 787 927 q 713 767 718 798 l 709 741 q 702 690 706 718 l 670 481 q 662 429 666 456 l 654 376 q 588 -14 593 9 q 537 -88 570 -88 z "},"":{"ha":342,"x_min":121,"x_max":271,"o":"m 232 496 q 269 462 269 496 q 270 455 270 458 l 271 446 l 271 434 l 271 432 l 271 427 q 269 420 269 422 q 244 374 269 393 q 184 354 220 354 l 181 354 l 178 355 l 171 355 q 159 357 161 357 q 121 402 121 357 l 121 419 l 121 421 l 121 426 q 123 433 123 431 q 143 475 123 455 q 182 495 163 495 q 190 496 188 496 l 199 498 l 217 498 q 232 496 225 496 z "},"":{"ha":467,"x_min":98,"x_max":322,"o":"m 322 -152 l 322 -168 q 280 -249 322 -216 q 184 -281 237 -281 l 178 -281 q 98 -248 98 -281 q 130 -224 98 -224 q 151 -228 142 -228 l 160 -229 l 174 -229 q 225 -211 207 -229 q 244 -168 244 -192 q 217 -126 244 -144 q 189 -76 189 -108 q 205 -18 189 -43 q 246 -3 215 -3 q 256 -18 256 -3 l 250 -56 q 270 -76 250 -63 q 293 -92 291 -90 q 322 -152 322 -121 z "},"":{"ha":456,"x_min":180,"x_max":373,"o":"m 250 422 l 227 422 q 180 456 180 422 l 180 463 q 204 527 180 500 q 237 583 229 554 q 264 786 264 683 q 222 839 264 839 q 191 863 191 839 q 222 901 191 883 q 351 956 312 956 l 357 956 q 373 936 373 956 l 373 929 l 372 922 q 345 746 372 873 q 317 591 317 620 q 323 545 317 562 q 329 495 329 528 q 304 442 329 462 q 250 422 280 422 z "},"":{"ha":532,"x_min":119,"x_max":530,"o":"m 449 736 l 449 746 l 448 751 q 424 841 448 806 q 350 876 399 876 l 345 875 q 245 822 292 875 q 198 692 198 770 l 198 664 q 226 586 198 616 q 289 555 254 555 l 307 555 q 407 613 364 555 q 449 736 449 671 m 341 933 l 370 933 q 481 887 432 933 q 530 774 530 842 l 530 753 q 510 656 530 709 q 456 568 490 604 q 302 496 389 496 l 281 496 q 165 542 212 496 q 119 664 119 589 l 119 678 l 119 685 q 183 854 119 781 q 262 913 218 894 q 341 933 306 933 z "},"":{"ha":730,"x_min":95,"x_max":663,"o":"m 174 604 q 203 633 174 633 q 256 602 232 633 q 404 379 404 404 q 276 237 404 366 q 120 109 147 109 l 115 109 q 95 131 95 109 l 95 137 q 201 261 95 148 q 307 378 307 374 q 240 482 307 382 q 174 604 174 582 m 564 374 q 497 483 564 390 q 430 607 430 576 q 459 638 430 638 q 513 605 488 638 q 663 379 663 410 q 531 235 663 366 q 368 104 400 104 q 350 128 350 104 q 457 260 350 153 q 564 374 564 367 z "},"":{"ha":1128,"x_min":224,"x_max":1011,"o":"m 909 447 q 802 322 908 444 q 692 195 692 197 q 695 192 692 192 l 745 192 l 749 193 l 777 193 q 870 200 863 193 q 877 243 877 208 l 889 321 l 892 340 q 895 359 895 356 l 903 405 q 905 416 905 412 l 909 439 l 909 447 m 366 511 q 370 503 366 511 q 375 466 375 495 q 342 411 375 437 q 288 398 326 398 l 280 398 q 239 413 254 398 q 224 440 224 429 q 251 506 224 478 q 283 554 279 533 q 315 793 315 694 q 279 832 315 832 q 237 865 237 832 q 269 899 237 876 q 385 945 331 945 l 392 945 q 410 920 410 945 l 410 912 l 409 905 q 384 728 409 887 q 358 560 358 569 l 357 546 q 366 511 357 527 m 902 972 q 913 972 902 972 q 942 955 942 972 q 340 14 942 916 q 280 -30 311 -30 q 249 -14 249 -30 q 690 684 249 22 q 902 972 882 972 m 959 553 q 975 553 959 553 q 991 524 991 553 q 969 374 991 495 q 947 218 947 254 q 979 189 947 193 q 1011 164 1011 184 q 987 133 1011 138 q 931 121 933 123 q 917 59 922 111 q 909 5 911 8 q 878 -9 903 -9 l 870 -9 q 842 21 842 -9 q 844 46 842 21 q 846 64 846 62 l 847 73 l 849 90 q 851 115 851 114 q 812 131 851 131 l 796 132 q 780 133 788 133 l 763 134 l 737 135 l 692 135 q 607 159 607 135 q 896 513 607 176 q 959 553 930 553 z "},"":{"ha":1152,"x_min":233,"x_max":1049,"o":"m 248 453 q 272 525 248 494 q 305 596 297 556 q 331 772 331 720 q 320 836 331 824 q 287 849 319 838 q 256 878 256 861 q 289 915 256 895 q 406 962 367 962 l 412 962 q 427 915 427 962 l 426 908 q 415 826 426 892 q 401 741 404 760 l 395 701 l 389 669 l 386 652 q 374 572 374 583 q 379 544 374 562 q 383 497 383 526 q 359 442 383 467 q 301 416 336 416 l 294 416 l 287 417 q 248 453 248 417 m 928 978 l 939 978 q 960 965 960 978 q 336 47 960 926 q 264 -6 298 -6 l 253 -6 q 233 6 233 -6 q 857 925 233 34 q 928 978 895 978 m 671 22 q 700 85 671 53 q 808 187 730 117 q 928 310 886 256 q 971 420 971 364 q 952 467 971 448 q 897 486 932 486 q 837 469 861 486 q 791 433 812 452 q 758 413 770 413 q 740 431 740 413 q 794 511 740 475 q 912 547 848 547 q 1012 517 975 547 q 1049 435 1049 487 l 1049 423 q 993 290 1049 363 q 883 178 979 271 q 787 73 787 86 q 869 64 787 64 l 954 66 l 975 67 q 1002 34 1002 67 q 917 -3 1002 -3 l 892 -3 l 742 4 q 671 22 671 4 z "},"":{"ha":1206,"x_min":142,"x_max":1038,"o":"m 905 240 q 915 302 915 288 l 918 325 q 921 343 921 340 l 932 413 l 939 454 l 939 459 l 939 460 l 909 426 q 882 395 892 409 q 802 302 872 382 q 732 219 732 222 q 743 216 732 216 l 769 216 l 772 216 l 810 216 q 905 240 905 216 m 271 705 q 319 745 271 716 q 416 865 416 802 q 357 901 416 901 q 283 883 322 901 q 240 866 243 866 q 214 889 214 866 q 270 936 214 913 q 390 958 326 958 q 471 943 454 958 q 488 888 488 928 q 420 749 488 821 q 397 718 397 724 q 423 700 397 716 q 465 658 448 683 q 482 587 482 633 q 415 456 482 508 q 263 404 349 404 q 163 435 207 404 q 142 456 142 449 l 142 463 q 165 486 142 486 q 216 476 182 486 q 293 467 250 467 q 373 503 336 467 q 410 582 410 538 q 325 677 410 663 q 271 705 271 686 m 406 39 q 340 -13 372 -13 q 309 3 309 -13 q 407 168 309 10 q 669 591 505 325 q 893 948 832 857 q 954 991 922 991 q 985 976 985 991 q 406 39 985 936 m 987 559 l 1002 559 q 1017 526 1017 559 q 996 386 1017 492 q 976 238 976 280 q 999 214 976 218 q 1038 194 1038 206 l 1038 187 q 1013 159 1038 164 q 958 142 964 151 q 946 78 951 134 q 920 21 941 21 l 905 21 q 876 50 876 21 l 878 66 l 880 90 q 884 140 884 139 q 843 157 884 157 l 795 161 l 770 161 l 735 161 q 651 180 651 161 q 937 534 651 214 q 987 559 960 559 z "},"":{"ha":620,"x_min":64,"x_max":527,"o":"m 465 804 l 479 804 q 524 781 524 804 q 526 774 526 777 l 527 766 l 527 751 l 524 733 q 509 696 524 715 q 474 677 494 677 l 470 675 l 449 673 l 437 673 l 435 674 l 420 676 q 415 677 418 677 q 391 698 391 677 l 389 706 l 389 711 l 389 717 l 389 721 l 389 723 l 389 728 l 393 747 q 409 783 393 763 q 465 804 425 804 m 480 -31 q 513 -60 513 -31 l 513 -68 q 440 -138 513 -102 q 302 -175 367 -175 l 289 -175 q 125 -123 186 -175 q 64 13 64 -71 q 107 161 64 96 q 239 299 151 225 q 348 399 328 372 q 376 488 368 427 q 410 550 385 550 q 452 511 452 550 q 432 396 452 435 q 324 276 412 357 q 214 163 236 194 q 163 31 163 92 q 198 -63 163 -30 q 285 -96 232 -96 q 370 -82 338 -96 q 433 -50 401 -68 q 480 -31 465 -31 z "},"":{"ha":882,"x_min":60,"x_max":805,"o":"m 581 853 q 574 872 581 853 q 564 890 568 890 q 444 682 559 890 q 328 448 328 473 q 479 433 328 433 l 587 431 q 648 463 648 431 q 635 559 648 478 l 633 566 l 631 578 l 629 592 l 625 618 q 608 719 623 622 q 581 853 594 816 m 673 1061 l 667 1061 q 580 1132 635 1061 q 510 1213 524 1203 q 463 1271 463 1247 q 483 1277 463 1277 l 497 1277 q 589 1217 537 1277 q 684 1073 684 1105 l 684 1068 q 673 1061 684 1061 m 602 990 q 643 965 630 990 q 674 852 655 939 q 702 709 694 765 q 721 598 709 653 q 748 417 733 543 q 771 256 763 291 q 805 87 805 114 q 782 60 805 60 q 712 98 734 60 q 683 196 705 111 q 642 294 661 281 q 391 330 588 330 q 289 300 321 330 q 211 190 256 271 q 159 100 166 109 q 81 56 121 56 q 60 71 60 56 q 88 159 60 109 q 209 401 169 308 q 371 702 250 494 q 524 950 493 909 q 602 990 555 990 z "},"":{"ha":882,"x_min":58,"x_max":804,"o":"m 606 434 q 650 462 650 434 q 620 697 650 505 q 576 890 589 890 q 539 836 568 890 q 503 768 511 782 q 482 732 494 755 l 469 708 q 412 604 421 623 q 367 521 403 586 q 331 445 331 456 q 472 433 331 433 l 492 433 l 586 433 q 606 434 600 434 m 754 1277 l 760 1277 q 777 1272 777 1277 l 777 1270 q 671 1161 777 1267 q 529 1056 566 1056 l 526 1056 q 513 1065 513 1056 l 513 1067 q 682 1250 513 1102 q 754 1277 713 1277 m 600 989 q 643 960 629 989 q 671 859 652 943 q 697 725 690 776 q 717 613 704 673 q 738 486 730 552 l 741 454 q 754 355 743 436 q 766 271 766 273 q 804 92 804 100 q 781 60 804 60 q 710 98 732 60 q 681 196 703 111 q 640 294 659 281 q 390 329 584 329 q 287 299 319 329 q 209 188 254 269 q 157 100 163 106 q 80 55 119 55 q 58 71 58 55 q 86 159 58 106 q 216 420 172 320 q 384 726 260 519 q 522 950 508 932 q 600 989 553 989 z "},"":{"ha":875,"x_min":57,"x_max":802,"o":"m 647 476 q 625 646 647 539 l 623 659 l 617 686 l 615 699 l 606 744 q 585 849 595 815 q 571 882 574 882 q 509 783 567 882 q 326 439 326 473 l 326 435 q 483 428 326 428 l 577 426 l 597 426 q 649 452 649 426 q 647 476 647 470 m 566 1221 q 641 1257 606 1257 q 709 1200 675 1257 q 750 1146 712 1195 q 787 1076 787 1097 l 787 1073 q 770 1062 787 1062 q 693 1119 730 1062 q 627 1204 639 1204 q 547 1131 627 1204 q 429 1057 468 1057 l 425 1057 q 414 1064 414 1057 q 566 1221 414 1081 m 802 84 q 779 52 802 52 q 709 90 731 52 q 680 190 699 107 q 639 286 661 272 q 389 321 583 321 q 285 292 319 321 q 211 185 252 262 q 156 92 170 109 q 79 48 119 48 l 68 48 q 57 64 57 48 q 92 165 57 102 q 197 374 127 228 q 380 714 267 521 q 523 945 493 907 q 590 983 553 983 q 639 957 627 983 q 671 847 652 932 q 699 698 690 762 q 719 587 708 634 q 744 415 730 539 q 781 192 759 291 q 802 84 802 92 z "},"":{"ha":882,"x_min":54,"x_max":825,"o":"m 646 446 q 645 475 645 458 q 623 640 645 492 q 587 830 601 787 q 570 873 574 873 l 567 873 q 500 766 564 873 q 323 433 323 465 q 479 422 323 422 l 553 420 l 593 420 q 646 440 646 420 l 646 446 m 808 1194 l 817 1194 q 825 1186 825 1194 l 825 1181 q 785 1116 825 1145 q 686 1086 745 1086 l 665 1087 q 597 1110 643 1087 q 526 1133 552 1133 q 461 1098 499 1133 q 411 1063 424 1063 l 401 1063 q 392 1076 392 1063 q 441 1152 392 1109 q 532 1194 491 1194 l 548 1194 q 632 1160 587 1194 q 706 1127 677 1127 q 763 1160 735 1127 q 808 1194 790 1194 m 800 79 q 777 47 800 47 q 706 85 728 47 q 677 184 696 102 q 636 281 658 267 q 386 316 581 316 q 281 285 316 316 q 206 177 247 254 q 154 87 165 101 q 76 42 116 42 q 54 58 54 42 q 82 146 54 94 l 117 206 q 186 346 158 279 q 223 429 214 412 q 410 764 328 625 q 521 940 492 903 q 587 977 550 977 q 636 951 624 977 q 669 838 649 926 q 695 696 689 749 q 714 590 701 644 q 742 410 726 537 q 778 185 757 283 q 800 79 800 87 z "},"":{"ha":875,"x_min":57,"x_max":802,"o":"m 604 423 q 642 445 642 423 l 642 450 q 612 673 642 467 q 566 878 575 871 q 508 785 557 878 q 326 435 326 441 q 465 423 326 423 l 553 422 l 585 422 q 604 423 597 423 m 542 1224 q 571 1191 571 1224 l 571 1175 l 568 1158 q 551 1128 568 1148 q 514 1107 535 1107 q 508 1106 510 1106 l 498 1105 l 486 1105 q 448 1139 448 1105 l 448 1153 l 451 1168 q 467 1202 451 1182 q 498 1222 483 1222 q 507 1225 506 1225 l 519 1226 l 530 1226 q 542 1224 538 1224 m 791 1162 q 761 1098 791 1128 q 692 1067 730 1067 q 682 1071 685 1071 q 667 1099 667 1071 l 667 1111 l 671 1126 q 705 1175 671 1148 q 753 1202 739 1202 l 764 1204 l 775 1204 l 786 1202 q 795 1186 795 1202 l 796 1183 q 791 1162 791 1162 m 599 980 q 661 890 638 980 q 755 310 661 886 q 783 188 764 261 q 802 82 802 115 q 779 50 802 50 q 709 87 731 50 q 679 186 701 100 q 638 284 657 272 q 389 319 583 319 q 286 291 319 319 q 209 181 254 262 q 156 90 163 100 q 79 45 119 45 q 57 61 57 45 q 85 149 57 98 q 165 298 158 283 q 191 357 172 312 q 369 694 245 483 q 523 943 493 905 q 599 980 553 980 z "},"":{"ha":859,"x_min":55,"x_max":801,"o":"m 605 1259 q 553 1237 574 1259 q 531 1194 531 1215 q 530 1187 530 1190 l 529 1178 l 529 1175 l 532 1157 q 550 1128 532 1143 q 585 1114 568 1114 l 600 1114 q 648 1137 625 1114 q 671 1190 671 1160 l 671 1197 l 668 1215 q 653 1241 668 1226 q 626 1257 637 1257 l 616 1259 l 605 1259 m 589 420 q 645 442 645 420 l 645 448 q 604 679 645 475 q 557 882 564 882 l 554 882 q 438 667 552 882 q 324 434 324 452 q 481 421 324 421 l 555 420 l 589 420 m 476 1166 l 476 1183 q 477 1194 477 1190 q 518 1270 477 1234 q 610 1305 559 1305 l 614 1305 q 689 1279 656 1305 q 723 1214 723 1253 l 724 1206 l 724 1190 q 723 1179 723 1182 q 681 1101 723 1135 q 598 1068 638 1068 l 578 1068 q 508 1096 541 1068 q 476 1166 476 1124 m 587 997 q 633 966 616 997 q 694 758 664 909 q 801 97 801 212 l 801 82 q 773 39 801 39 q 688 89 708 39 q 683 116 686 96 q 668 216 681 136 q 646 307 654 297 q 425 337 621 337 q 280 310 311 337 q 186 144 249 282 q 153 87 170 109 q 64 47 122 47 q 55 54 55 47 l 55 62 q 103 190 55 102 q 179 353 152 277 q 213 441 206 428 q 353 711 336 683 q 501 958 484 935 q 587 997 530 997 z "},"":{"ha":1221,"x_min":109,"x_max":1178,"o":"m 588 387 q 614 413 614 387 l 610 443 q 645 585 610 445 q 687 741 680 726 q 700 769 694 757 l 713 800 l 720 813 q 730 837 730 836 l 730 850 q 711 876 730 876 q 670 848 687 876 q 642 789 665 840 q 607 713 619 739 q 583 646 594 687 q 565 595 572 606 q 477 512 557 585 q 396 437 396 439 q 408 422 396 427 q 511 394 479 394 q 569 387 544 394 l 588 387 m 585 302 q 487 314 559 314 q 362 279 415 314 q 264 182 333 260 q 182 94 195 104 q 115 66 144 66 l 109 73 q 146 163 109 100 q 511 724 403 584 q 648 882 619 864 q 756 912 693 912 l 781 911 l 806 909 l 858 909 q 960 913 928 909 l 987 918 l 1015 922 q 1070 928 1037 926 l 1097 930 q 1178 913 1178 930 q 1050 881 1178 881 q 897 846 923 881 q 859 729 880 825 q 838 606 838 633 q 953 569 838 578 q 1095 550 1067 559 q 1122 506 1122 540 q 1023 472 1122 472 q 898 457 964 472 q 812 428 831 442 q 784 374 793 413 q 774 224 774 336 q 808 128 774 149 q 947 116 827 116 l 1050 122 q 1097 95 1097 122 q 1067 57 1097 64 q 970 49 1038 49 l 943 49 l 806 54 q 667 61 684 54 q 620 168 620 81 l 621 194 l 625 244 q 585 302 625 283 z "},"":{"ha":863,"x_min":122,"x_max":905,"o":"m 122 379 l 122 400 q 164 639 122 528 q 432 962 250 863 q 631 1015 532 1015 l 653 1015 q 806 996 760 1015 q 879 948 852 977 q 905 908 905 918 q 886 864 905 884 q 847 844 867 844 q 804 867 846 844 q 728 899 761 890 q 613 907 695 907 q 349 753 451 907 q 247 378 247 598 q 399 104 247 157 q 491 91 438 91 q 604 109 543 91 q 708 146 664 127 q 763 166 753 166 q 793 118 793 166 q 779 92 793 106 q 480 -7 680 -7 l 458 -7 q 323 24 389 -7 q 146 230 193 84 q 122 379 122 302 m 404 -293 l 387 -293 q 319 -260 319 -293 l 319 -248 q 351 -239 319 -239 q 452 -172 452 -239 q 425 -135 452 -153 q 397 -112 397 -117 q 427 -24 397 -54 q 474 -12 440 -12 q 485 -30 485 -12 q 481 -58 485 -47 q 515 -93 481 -66 q 549 -151 549 -120 l 549 -172 q 501 -256 549 -220 q 404 -293 453 -293 z "},"":{"ha":774,"x_min":121,"x_max":776,"o":"m 606 1084 l 595 1084 q 585 1086 588 1086 q 484 1173 561 1086 q 408 1279 408 1261 l 408 1284 q 434 1295 408 1295 l 446 1295 q 456 1294 453 1294 q 525 1260 496 1294 q 621 1097 621 1147 l 621 1095 q 606 1084 621 1084 m 334 16 l 286 16 q 139 38 170 16 q 121 89 121 51 q 185 473 121 197 q 250 882 250 748 q 300 955 250 941 q 574 984 408 984 l 646 984 q 752 975 728 984 q 776 944 776 966 q 755 905 776 922 q 707 888 734 888 q 623 897 680 888 q 485 905 567 905 q 376 862 403 905 q 334 749 355 829 q 313 635 313 669 q 338 593 313 602 q 421 581 354 589 q 522 570 489 572 l 559 569 q 597 567 591 568 q 631 540 631 562 q 587 481 631 493 q 433 462 575 477 q 272 426 291 447 q 245 190 245 397 q 262 117 245 139 q 323 95 279 95 q 476 106 367 95 q 594 117 585 117 q 659 77 659 117 q 616 35 659 47 q 334 16 549 16 z "},"":{"ha":774,"x_min":121,"x_max":776,"o":"m 480 1082 q 470 1088 470 1082 l 470 1090 q 501 1142 470 1093 q 585 1238 532 1192 q 670 1284 638 1284 q 681 1286 677 1286 l 698 1288 l 704 1288 q 727 1278 727 1288 q 629 1170 727 1256 q 507 1084 530 1084 l 490 1082 l 480 1082 m 334 16 l 310 16 q 157 31 210 16 q 121 88 121 41 q 185 472 121 197 q 250 882 250 747 q 300 955 250 941 q 549 983 399 983 l 670 983 q 753 974 730 983 q 776 944 776 964 q 755 905 776 923 q 707 888 734 888 q 617 896 680 888 q 479 905 555 905 q 376 861 404 905 q 335 750 356 831 q 313 636 313 670 q 338 593 313 602 q 422 580 353 589 q 522 570 491 572 l 559 568 q 597 566 591 567 q 631 539 631 561 q 587 480 631 493 q 433 461 576 477 q 272 426 291 446 q 245 189 245 398 q 262 116 245 138 q 319 94 279 94 q 469 105 359 94 q 606 117 580 117 q 645 109 631 117 q 659 76 659 102 q 594 31 659 41 q 334 16 505 16 z "},"":{"ha":771,"x_min":121,"x_max":776,"o":"m 370 1090 q 468 1193 370 1103 q 593 1282 566 1282 q 637 1260 620 1282 q 738 1097 738 1128 l 738 1093 q 708 1081 738 1081 q 630 1146 679 1081 q 577 1211 581 1211 q 547 1187 573 1211 q 488 1135 521 1163 q 387 1080 422 1080 q 370 1087 370 1080 l 370 1090 m 358 13 l 286 13 q 139 35 172 13 q 121 85 121 47 q 185 469 121 194 q 250 879 250 745 q 300 951 250 938 q 598 981 408 981 l 623 981 q 751 971 727 981 q 776 941 776 962 q 754 902 776 920 q 707 884 733 884 q 653 889 681 884 q 555 897 625 893 q 475 901 486 901 q 376 859 403 901 q 334 746 356 827 q 313 631 313 664 q 338 590 313 598 q 559 565 401 571 l 597 564 q 631 536 631 559 q 587 477 631 489 q 430 458 566 471 q 270 420 294 446 q 245 186 245 394 q 262 113 245 135 q 320 91 279 91 q 469 102 361 91 q 604 113 578 113 q 644 106 630 113 q 659 73 659 99 q 616 32 659 43 q 358 13 545 13 z "},"":{"ha":772,"x_min":131,"x_max":787,"o":"m 530 1173 l 528 1150 q 510 1124 528 1142 q 476 1107 492 1107 l 472 1105 l 454 1103 l 450 1103 l 448 1104 l 444 1104 l 436 1105 q 410 1129 410 1105 l 408 1141 l 408 1152 l 411 1167 q 428 1201 411 1181 q 462 1222 444 1222 l 464 1223 l 465 1223 l 481 1225 l 486 1225 q 504 1223 496 1223 q 531 1187 531 1223 l 531 1175 l 530 1173 m 648 1139 l 648 1151 l 649 1152 l 651 1166 q 652 1176 652 1168 q 668 1203 652 1183 q 702 1223 684 1223 l 706 1224 l 724 1226 l 726 1226 q 744 1223 734 1223 q 769 1199 769 1223 l 771 1192 q 771 1188 771 1190 l 772 1183 l 772 1179 l 771 1177 l 771 1171 q 769 1155 769 1162 q 752 1128 769 1149 q 714 1107 735 1107 l 706 1105 l 702 1105 l 696 1104 l 686 1104 l 672 1107 q 648 1139 648 1107 m 605 29 q 367 14 513 14 q 167 29 220 14 q 131 87 131 39 q 196 468 131 197 q 260 880 260 739 q 311 953 260 939 q 560 981 410 981 l 681 981 q 764 972 741 981 q 787 941 787 962 q 765 903 787 920 q 718 886 743 886 q 663 890 692 886 q 565 899 633 895 q 486 903 496 903 q 387 859 414 903 q 346 751 368 831 q 323 635 323 671 q 352 590 323 600 q 511 570 380 581 q 642 538 642 558 q 597 478 642 491 q 450 461 579 473 q 297 436 321 449 q 265 385 273 422 q 257 252 257 347 l 256 231 q 256 173 256 209 q 273 115 256 138 q 335 92 290 92 q 477 103 354 92 l 500 105 q 544 109 522 107 l 565 111 q 620 115 599 115 q 655 107 641 115 q 669 74 669 100 q 605 29 669 40 z "},"":{"ha":397,"x_min":104,"x_max":395,"o":"m 376 1071 l 361 1071 q 352 1072 355 1072 q 258 1151 337 1072 q 179 1262 179 1230 l 179 1264 q 205 1275 179 1275 l 220 1275 q 294 1250 269 1275 q 335 1191 304 1240 q 380 1122 366 1141 q 395 1084 395 1102 l 395 1082 q 376 1071 395 1071 m 303 975 l 323 975 q 354 936 354 975 q 340 852 354 897 q 322 759 326 806 q 306 646 318 711 l 302 623 l 300 611 l 296 587 q 236 155 236 185 q 220 43 236 77 q 161 9 204 9 l 151 9 q 104 56 104 9 l 104 64 q 125 157 104 101 q 185 485 146 214 q 224 804 224 756 l 222 850 q 240 947 222 920 q 303 975 258 975 z "},"":{"ha":399,"x_min":114,"x_max":503,"o":"m 263 1069 q 249 1075 249 1069 q 287 1138 249 1082 q 380 1244 324 1194 q 443 1270 411 1270 q 453 1272 450 1272 l 470 1273 l 479 1273 q 503 1265 503 1273 l 503 1263 q 407 1156 503 1240 q 294 1072 311 1072 q 283 1070 287 1070 l 276 1069 l 263 1069 m 323 975 q 363 930 363 975 q 350 851 363 897 q 332 761 336 806 q 318 659 328 717 q 277 390 308 601 q 245 155 245 178 q 230 43 245 77 q 171 9 214 9 l 161 9 q 114 55 114 9 l 114 64 q 136 157 114 102 q 196 484 157 212 q 234 804 234 756 l 232 850 q 250 948 232 920 q 323 975 268 975 z "},"":{"ha":406,"x_min":104,"x_max":507,"o":"m 355 1266 l 360 1266 q 425 1215 391 1266 q 507 1081 507 1087 l 507 1077 q 475 1067 507 1067 q 396 1130 444 1067 q 344 1193 349 1193 q 270 1129 339 1193 q 163 1066 201 1066 l 159 1066 q 140 1075 140 1066 q 232 1175 140 1084 q 355 1266 323 1266 m 313 972 q 354 926 354 972 q 340 848 354 893 q 322 758 326 802 q 308 655 318 713 q 267 386 298 597 q 236 151 236 175 q 220 40 236 73 q 161 6 204 6 l 151 6 q 104 52 104 6 l 104 61 q 124 148 104 99 q 184 470 143 196 q 224 800 224 744 l 222 846 q 240 944 222 917 q 313 972 258 972 z "},"":{"ha":406,"x_min":117,"x_max":531,"o":"m 201 1088 q 176 1122 176 1088 l 176 1141 l 178 1157 q 195 1195 178 1173 q 239 1216 212 1216 l 254 1216 q 292 1174 292 1216 l 292 1164 l 288 1141 q 272 1109 288 1129 q 238 1089 256 1089 q 232 1088 234 1088 l 222 1086 l 212 1086 l 210 1087 l 206 1087 q 201 1088 203 1088 m 531 1178 l 531 1160 q 514 1112 531 1134 q 481 1090 496 1090 l 465 1087 l 449 1087 q 418 1109 418 1087 q 416 1117 416 1115 l 414 1126 l 414 1137 l 415 1139 l 417 1156 q 418 1166 418 1158 q 435 1196 418 1175 q 478 1217 452 1217 l 492 1217 q 531 1178 531 1217 m 316 972 l 336 972 q 368 928 368 972 l 368 919 q 309 573 368 918 q 250 150 250 229 q 234 39 250 71 q 180 7 219 7 q 130 15 142 7 q 117 52 117 22 l 117 62 q 135 144 117 100 q 161 252 153 189 q 204 505 170 314 q 237 803 237 696 l 235 849 q 252 945 235 918 q 316 972 269 972 z "},"":{"ha":916,"x_min":80,"x_max":880,"o":"m 260 89 l 288 89 l 302 90 l 342 90 q 370 91 356 91 q 662 218 543 91 q 753 378 722 282 q 785 558 785 473 l 785 587 q 711 808 785 728 q 503 888 636 888 l 448 888 q 396 887 420 887 q 353 877 372 887 q 318 829 333 866 q 280 595 280 732 q 307 551 280 570 q 388 529 334 532 q 442 494 442 526 q 416 461 442 471 q 336 451 408 458 q 252 419 264 443 q 229 286 248 413 q 210 127 210 159 q 260 89 210 89 m 880 608 l 880 559 q 837 340 880 452 q 716 153 793 228 q 544 43 640 78 q 304 9 448 9 l 271 9 q 121 20 167 9 q 104 47 104 24 q 132 232 104 71 q 159 405 159 393 q 129 457 159 449 q 80 493 80 471 q 127 528 80 522 q 184 555 175 533 q 217 836 217 629 q 244 944 217 929 q 469 965 281 965 l 502 965 q 504 965 502 965 q 852 757 765 965 q 880 608 880 689 z "},"":{"ha":969,"x_min":111,"x_max":972,"o":"m 870 1206 l 870 1196 q 826 1123 870 1158 q 739 1089 781 1089 l 734 1089 q 648 1120 700 1089 q 569 1152 595 1152 q 514 1123 543 1152 q 465 1094 485 1094 q 446 1110 446 1094 q 492 1185 446 1149 q 581 1220 538 1220 l 591 1220 q 672 1190 616 1220 q 751 1160 728 1160 q 803 1189 774 1160 q 851 1218 831 1218 q 870 1206 870 1218 m 814 68 q 766 41 806 41 q 698 88 727 41 q 535 429 669 136 q 345 785 401 722 l 332 795 l 258 435 q 223 239 245 370 q 189 68 201 108 q 134 28 176 28 q 111 48 111 28 q 141 252 111 69 q 177 473 172 435 q 199 599 183 511 l 203 626 q 227 764 222 725 l 231 791 q 238 847 235 824 l 246 901 q 301 939 256 939 q 475 785 383 939 q 631 473 510 728 q 758 218 752 218 q 798 422 764 218 q 848 723 832 626 q 865 826 863 820 l 870 852 q 899 922 882 899 q 951 944 916 944 q 972 921 972 944 q 954 818 972 878 q 902 602 936 757 q 845 285 869 448 q 818 95 822 122 l 814 68 z "},"":{"ha":987,"x_min":111,"x_max":956,"o":"m 848 591 l 848 638 q 826 758 848 699 q 589 931 762 931 q 331 793 438 931 q 249 637 279 726 q 218 456 218 547 l 218 433 q 286 214 218 300 q 463 130 353 130 q 465 130 464 130 l 477 130 q 620 168 551 130 q 814 409 755 242 q 848 591 848 505 m 689 1053 l 684 1053 q 672 1055 675 1055 q 608 1114 659 1055 q 517 1207 556 1173 q 478 1257 478 1241 l 478 1259 q 496 1264 478 1264 l 509 1265 l 515 1265 q 581 1233 549 1265 q 605 1197 582 1232 q 637 1153 629 1162 q 658 1126 646 1143 l 686 1093 q 704 1063 704 1073 l 704 1061 q 689 1053 704 1053 m 956 608 l 956 593 q 916 370 956 477 q 655 60 834 152 q 460 14 564 14 l 445 14 q 312 41 376 14 q 135 243 181 96 q 111 388 111 317 l 111 418 q 152 643 111 535 q 413 954 234 862 q 594 1000 504 1000 q 860 898 763 1000 q 956 608 956 795 z "},"":{"ha":987,"x_min":111,"x_max":956,"o":"m 858 616 l 858 640 q 838 760 858 704 q 721 906 799 865 q 624 930 673 930 l 600 930 q 341 789 454 930 q 257 630 290 726 q 224 442 224 534 l 224 418 q 244 298 224 355 q 469 129 304 129 l 481 130 l 493 130 q 495 130 494 130 q 629 172 560 130 q 823 421 762 253 q 858 616 858 521 m 784 1266 q 795 1265 789 1265 q 800 1261 800 1265 q 686 1148 800 1251 q 549 1046 571 1046 l 543 1046 q 532 1050 532 1046 q 551 1080 532 1055 q 687 1230 617 1168 q 772 1266 729 1266 l 784 1266 m 956 622 l 956 592 l 956 588 q 916 369 956 475 q 654 60 833 148 q 475 13 561 13 l 444 13 q 211 110 305 13 q 138 230 166 156 q 111 387 111 304 l 111 417 q 151 640 111 532 q 413 952 233 859 q 592 999 504 999 l 623 999 q 865 890 770 999 q 932 767 909 840 q 956 622 956 694 z "},"":{"ha":987,"x_min":111,"x_max":956,"o":"m 217 446 l 217 422 q 286 205 217 287 q 467 124 354 124 q 741 262 625 124 q 826 417 794 326 q 857 606 857 509 l 857 618 q 784 842 857 760 q 608 924 711 924 l 595 924 q 455 886 524 924 q 249 620 311 806 q 217 446 217 524 m 661 1238 l 666 1238 q 752 1169 695 1238 q 809 1078 809 1099 l 809 1075 q 792 1065 809 1065 q 707 1110 753 1065 q 664 1156 691 1126 q 637 1185 637 1185 q 557 1116 627 1185 q 450 1046 488 1046 l 446 1046 q 433 1050 433 1046 l 433 1054 q 535 1152 433 1065 q 661 1238 638 1238 m 956 615 l 956 585 l 956 581 q 916 362 956 468 q 654 53 834 144 q 459 6 564 6 l 444 6 q 312 33 376 6 q 134 235 181 89 q 111 380 111 310 l 111 411 q 111 415 111 413 q 151 635 111 530 q 425 952 235 862 q 597 993 511 993 q 928 773 846 993 q 956 615 956 699 z "},"":{"ha":987,"x_min":109,"x_max":954,"o":"m 217 437 l 217 402 q 237 286 217 342 q 366 135 276 176 q 467 115 410 115 l 479 115 q 624 155 556 115 q 829 427 772 241 q 856 602 856 511 l 856 613 q 777 840 856 750 q 606 913 713 913 l 594 913 q 453 876 520 913 q 248 612 309 797 q 217 437 217 521 m 639 1149 q 666 1136 639 1149 q 717 1124 693 1124 q 772 1158 741 1124 q 819 1192 803 1192 l 823 1192 q 841 1177 841 1192 q 799 1107 841 1139 q 713 1076 758 1076 q 615 1103 669 1076 q 534 1130 562 1130 q 479 1096 507 1130 q 430 1062 451 1062 q 410 1071 410 1062 l 410 1076 q 450 1141 410 1108 q 533 1173 490 1173 l 544 1175 l 555 1174 q 639 1149 585 1174 m 473 -2 l 443 -2 q 200 105 296 -2 q 131 232 153 158 q 109 372 109 306 l 109 402 q 109 406 109 404 q 149 627 109 521 q 411 937 231 846 q 591 984 502 984 l 621 984 q 749 958 687 983 q 926 765 874 905 q 954 592 954 691 l 954 576 q 914 354 954 458 q 640 38 828 123 q 473 -2 553 -2 z "},"":{"ha":987,"x_min":112,"x_max":957,"o":"m 848 581 l 848 629 q 772 845 848 753 q 700 899 744 879 q 615 918 656 918 l 580 918 q 441 876 512 918 q 322 763 371 833 q 247 605 273 694 q 220 432 220 516 l 220 420 q 287 202 220 285 q 465 119 354 119 l 477 119 q 479 119 478 119 q 613 155 547 119 q 816 410 754 230 q 848 581 848 505 m 585 1156 q 583 1144 583 1152 q 565 1114 583 1137 q 515 1092 547 1092 l 498 1092 q 465 1115 465 1092 q 463 1120 463 1119 l 462 1128 l 462 1143 q 479 1188 462 1167 q 510 1209 496 1209 q 518 1211 516 1211 l 530 1213 l 547 1213 q 557 1211 553 1211 q 582 1190 582 1211 q 584 1184 584 1185 l 585 1175 l 585 1162 l 585 1160 l 585 1156 m 700 1059 q 690 1074 690 1059 l 690 1083 l 690 1085 q 690 1089 690 1087 l 693 1104 q 694 1111 694 1108 q 723 1174 694 1145 q 771 1202 752 1202 l 781 1204 l 789 1204 q 808 1187 808 1204 l 808 1173 q 779 1094 808 1129 q 724 1059 750 1059 l 713 1057 l 709 1057 l 707 1058 l 705 1058 q 700 1059 702 1059 m 956 566 q 915 355 956 465 q 807 169 874 246 q 650 47 739 92 q 460 3 562 3 l 446 3 q 313 30 377 3 q 136 232 186 83 q 112 377 112 302 l 112 408 q 112 412 112 410 q 152 632 112 526 q 427 949 237 859 q 605 989 513 989 q 864 882 770 989 q 957 597 957 775 l 956 582 l 956 566 z "},"":{"ha":759,"x_min":144,"x_max":663,"o":"m 463 387 q 539 289 463 383 q 615 183 615 194 q 597 154 615 172 q 568 136 580 136 q 471 229 545 136 q 388 321 397 321 q 290 229 378 321 q 186 137 201 137 q 144 176 144 137 q 245 278 144 178 q 346 398 346 379 q 323 428 346 401 q 246 524 300 455 q 193 602 193 593 q 212 630 193 611 q 241 649 231 649 q 337 555 263 649 q 412 462 412 462 q 519 555 427 462 q 621 648 612 648 q 663 607 663 648 q 563 503 663 604 q 463 387 463 403 z "},"":{"ha":981,"x_min":176,"x_max":941,"o":"m 655 907 l 627 907 q 355 774 471 907 q 266 610 298 708 q 233 431 233 513 l 233 391 q 258 252 233 313 q 302 190 283 190 l 309 190 q 358 218 323 190 q 547 434 442 286 q 727 744 652 583 q 754 812 754 803 l 754 821 q 723 884 754 861 q 655 907 692 907 m 413 86 l 426 86 q 427 86 427 86 q 557 149 487 86 q 770 494 697 275 q 819 721 819 641 l 819 745 q 802 812 819 812 q 710 655 791 812 q 541 372 628 498 q 453 254 535 365 q 371 130 371 142 q 413 86 371 86 m 907 949 l 895 856 q 906 807 895 841 q 929 729 918 773 q 941 622 941 686 l 940 604 l 940 587 q 899 379 940 497 q 580 31 816 135 q 427 5 522 5 l 412 5 q 325 14 370 5 q 267 23 280 23 l 227 15 q 176 45 176 15 l 176 58 q 182 81 176 62 q 190 110 188 101 l 205 178 q 192 233 205 180 q 179 378 179 287 q 223 619 179 470 q 311 790 253 720 q 476 916 370 861 q 676 971 583 971 l 705 970 q 745 969 719 969 l 796 961 q 830 969 808 961 q 852 977 851 977 q 907 949 907 977 z "},"":{"ha":935,"x_min":151,"x_max":932,"o":"m 687 1095 l 687 1093 q 667 1081 687 1081 l 664 1081 l 661 1082 q 594 1118 630 1082 q 473 1276 473 1239 q 498 1290 473 1290 l 511 1290 l 533 1286 q 591 1257 566 1286 q 687 1095 687 1145 m 255 321 q 308 150 255 206 q 442 93 361 93 q 692 243 607 93 q 787 599 736 321 q 813 733 797 655 q 836 852 830 812 l 840 892 q 846 929 843 923 q 916 959 859 959 q 932 937 932 959 q 917 854 932 914 q 862 511 879 704 q 799 227 844 319 q 671 79 754 136 q 481 23 589 23 l 458 23 q 174 186 240 23 q 151 322 151 244 q 182 575 151 400 q 216 773 214 749 q 219 823 218 797 q 223 869 220 849 q 226 918 225 890 q 228 949 227 946 q 249 967 233 967 q 302 950 291 967 q 313 867 313 932 l 313 848 q 314 783 314 828 q 284 538 314 739 q 255 321 255 338 z "},"":{"ha":935,"x_min":151,"x_max":932,"o":"m 551 1079 q 536 1086 536 1079 l 536 1089 q 582 1154 536 1093 q 665 1248 628 1215 q 737 1280 702 1280 l 744 1282 l 768 1283 q 795 1274 795 1283 l 795 1272 q 696 1167 795 1253 q 574 1081 598 1081 l 557 1079 l 551 1079 m 255 320 q 308 150 255 207 q 441 92 360 92 q 585 127 523 92 q 692 241 647 163 q 787 598 736 320 q 813 733 797 654 q 836 852 830 811 l 846 928 q 916 958 859 958 q 932 937 932 958 q 906 808 932 929 q 864 534 880 688 q 838 329 848 380 q 793 213 827 277 q 659 71 743 119 q 481 22 575 22 l 458 22 q 174 186 239 22 q 151 322 151 244 q 182 574 151 399 q 216 772 214 749 q 219 822 218 796 q 223 869 220 848 q 226 917 225 889 q 228 948 227 945 q 249 966 233 966 q 302 948 291 966 q 313 866 313 931 l 313 847 q 314 783 314 827 q 284 537 314 738 q 255 320 255 337 z "},"":{"ha":935,"x_min":151,"x_max":932,"o":"m 466 1076 l 452 1076 q 436 1083 436 1076 q 529 1183 436 1090 q 656 1276 622 1276 q 709 1249 690 1276 q 805 1095 805 1109 l 805 1087 q 777 1077 805 1077 q 696 1140 749 1077 q 642 1202 644 1202 q 567 1139 636 1202 q 466 1076 498 1076 m 916 954 q 932 934 932 954 q 906 806 932 924 q 865 533 881 688 q 838 327 848 378 q 793 210 827 275 q 658 67 743 116 q 477 18 574 18 q 471 18 474 18 q 326 38 379 18 q 151 320 151 100 q 182 571 151 399 q 216 767 214 742 q 219 819 218 792 q 223 865 220 845 q 226 914 225 886 q 228 945 227 942 q 249 962 233 962 q 302 945 291 962 q 313 863 313 928 l 313 844 q 314 779 314 824 q 284 534 314 734 q 255 317 255 334 q 294 162 255 215 q 458 88 349 88 q 584 124 521 88 q 692 238 647 160 q 787 595 736 315 q 813 727 796 646 q 836 848 830 807 l 840 888 q 846 924 843 918 q 916 954 859 954 z "},"":{"ha":935,"x_min":155,"x_max":937,"o":"m 456 1153 l 459 1177 q 476 1202 459 1185 q 509 1219 494 1219 q 515 1221 513 1221 l 524 1222 l 538 1222 q 579 1183 579 1222 l 579 1169 q 561 1125 579 1147 q 527 1103 543 1103 q 517 1100 519 1100 l 505 1099 l 496 1099 l 478 1102 q 455 1134 455 1102 l 455 1151 l 456 1153 m 734 1099 q 697 1133 697 1099 l 697 1151 q 701 1170 701 1161 q 716 1199 701 1179 q 747 1219 732 1219 q 755 1221 753 1221 l 768 1223 l 780 1223 l 793 1220 q 819 1194 819 1220 l 821 1184 l 821 1168 l 819 1155 q 802 1124 819 1144 q 770 1103 786 1103 q 762 1101 764 1101 l 749 1099 l 734 1099 m 260 316 q 312 145 260 203 q 446 88 365 88 q 590 123 528 88 q 696 237 652 159 q 791 594 741 316 q 819 732 802 650 q 843 867 836 814 q 850 924 849 920 q 920 954 864 954 q 937 932 937 954 q 925 863 937 909 q 900 748 913 817 q 866 493 886 680 q 803 219 846 307 q 677 75 760 132 q 486 18 593 18 l 463 18 q 178 182 243 18 q 155 295 155 240 q 190 581 155 349 q 224 821 224 813 q 254 962 224 962 q 307 943 296 962 q 319 823 319 925 q 289 538 319 720 q 260 316 260 355 z "},"":{"ha":791,"x_min":157,"x_max":805,"o":"m 654 1271 l 682 1271 q 698 1264 698 1271 l 698 1262 q 524 1084 698 1236 q 470 1065 503 1065 l 456 1065 q 444 1070 444 1065 l 444 1073 q 494 1147 444 1080 q 577 1243 545 1215 q 654 1271 609 1271 m 157 928 q 203 948 157 948 q 285 882 250 948 q 352 700 296 860 q 416 540 408 540 q 559 700 440 540 q 646 828 603 760 q 703 913 688 897 q 785 966 752 966 q 805 958 805 966 q 652 704 805 950 q 479 418 499 458 q 440 288 460 378 q 417 177 420 198 q 411 140 414 156 l 392 52 q 359 26 385 26 l 345 26 q 307 64 307 26 l 333 372 q 297 568 333 450 q 229 748 260 686 q 157 928 157 885 z "},"":{"ha":761,"x_min":122,"x_max":768,"o":"m 683 566 l 683 589 q 626 710 683 665 q 471 755 569 755 l 458 757 l 450 756 l 443 756 q 342 721 359 756 q 316 616 326 685 q 303 533 306 548 l 298 505 q 293 474 295 488 q 289 453 290 461 q 284 424 288 444 q 279 395 280 404 q 275 374 278 386 l 273 359 q 268 330 268 333 l 268 323 q 323 306 268 306 l 360 306 q 477 327 402 306 q 594 382 552 349 q 659 467 635 416 q 683 566 683 517 m 296 959 l 309 959 q 355 911 332 959 q 435 840 387 846 q 479 829 441 839 l 539 810 q 696 743 660 773 q 768 572 768 682 q 672 351 768 441 q 519 269 614 296 q 409 250 492 262 q 307 230 326 239 q 248 170 266 211 q 230 96 239 149 q 209 27 220 44 q 172 10 198 10 q 122 38 122 10 q 149 171 122 54 q 193 420 176 288 q 233 773 233 749 q 249 930 233 879 q 296 959 258 959 z "},"":{"ha":769,"x_min":13,"x_max":699,"o":"m 524 402 q 489 444 524 402 q 454 546 454 486 q 513 682 454 606 q 571 788 571 757 q 551 842 571 819 q 489 864 530 864 q 392 821 448 864 q 301 699 336 779 q 218 361 266 619 q 145 19 171 102 q 94 -94 119 -65 q 41 -123 70 -123 q 13 -83 13 -123 q 32 -21 13 -76 q 67 105 51 34 q 128 440 83 177 q 179 714 174 703 q 293 878 240 838 q 508 966 410 966 q 623 933 576 966 q 688 819 688 887 q 633 684 688 751 q 578 568 578 616 q 638 428 578 519 q 699 243 699 336 q 614 70 699 149 q 402 -9 530 -9 q 320 6 353 -9 q 288 48 288 21 q 329 86 288 72 q 376 92 340 90 l 429 94 q 529 131 487 100 q 594 249 594 179 q 524 402 594 318 z "},"":{"ha":728,"x_min":87,"x_max":678,"o":"m 184 334 l 184 304 q 221 176 184 224 q 310 128 257 128 l 332 128 q 419 161 374 129 q 559 454 559 263 l 561 469 l 562 498 q 537 613 562 583 q 443 644 513 644 l 435 644 l 428 643 q 268 557 344 643 q 209 456 234 518 q 184 334 184 395 m 538 775 l 532 775 q 459 836 500 775 q 379 932 418 897 q 339 988 339 966 l 339 989 q 363 997 339 997 l 369 998 q 439 963 408 998 q 549 789 549 838 l 549 785 q 538 775 549 775 m 678 570 q 657 424 678 569 q 635 222 635 279 l 634 202 l 634 173 q 635 146 634 157 l 637 130 l 640 114 q 591 67 640 67 q 560 99 576 67 q 535 130 544 130 q 497 110 527 130 q 399 64 467 89 q 282 39 332 39 q 143 101 200 39 q 87 269 87 163 l 87 281 q 117 435 87 354 q 197 574 146 515 q 440 693 300 693 q 553 664 484 693 q 627 634 622 634 l 651 637 q 678 570 678 637 z "},"":{"ha":728,"x_min":86,"x_max":677,"o":"m 189 315 l 189 292 q 234 159 189 211 q 315 126 262 126 l 322 126 q 408 153 361 126 q 547 341 508 212 q 571 472 571 422 l 572 486 l 573 508 l 573 515 q 544 620 573 596 q 458 643 514 643 l 451 643 l 444 642 q 349 614 396 642 q 210 430 254 556 q 189 315 189 370 m 608 997 l 623 997 q 638 993 638 997 l 638 991 l 637 989 q 532 879 637 985 q 404 773 426 773 l 399 773 q 391 777 391 773 l 391 779 q 534 966 391 802 q 608 997 561 997 m 677 580 l 677 568 q 655 416 677 566 q 633 214 633 266 q 634 154 633 162 q 640 113 634 146 q 590 66 640 66 q 560 97 576 66 q 535 129 544 129 q 496 108 527 129 q 397 62 465 87 q 282 38 328 38 q 143 100 199 38 q 86 267 86 161 l 86 280 q 86 283 86 281 q 114 429 86 355 q 297 654 173 589 q 425 692 368 692 q 553 662 481 692 q 627 633 624 633 l 650 636 q 677 580 677 636 z "},"":{"ha":728,"x_min":86,"x_max":677,"o":"m 182 319 l 182 290 q 216 170 182 218 q 304 121 250 121 l 319 121 q 420 155 366 121 q 506 239 474 189 q 570 481 570 338 l 570 489 q 546 604 570 574 q 447 634 522 634 l 440 634 l 433 633 q 356 612 401 633 q 269 539 311 591 q 204 425 227 488 q 182 319 182 362 m 515 982 q 570 930 536 982 q 653 790 653 800 l 653 787 q 639 779 653 779 q 559 850 603 779 q 498 922 515 922 q 416 849 489 922 q 307 777 344 777 l 302 777 q 292 784 292 777 q 396 887 292 791 q 515 982 500 982 m 633 193 q 633 163 633 178 q 635 136 633 148 l 637 119 l 640 104 q 590 57 640 57 q 559 89 576 57 q 535 121 543 121 q 495 99 528 121 q 437 68 462 78 q 294 30 339 30 l 269 30 q 140 95 193 30 q 86 259 86 161 l 86 272 q 115 422 86 345 q 194 561 144 500 q 308 652 243 621 q 427 683 372 683 l 452 683 q 552 653 495 683 q 627 624 609 624 l 650 627 q 676 582 676 627 l 677 559 q 669 500 677 541 l 665 477 q 644 330 652 391 q 635 213 635 269 l 633 193 z "},"":{"ha":730,"x_min":85,"x_max":690,"o":"m 181 305 l 181 290 q 215 169 181 218 q 302 120 248 120 l 325 120 q 414 151 363 121 q 548 336 510 209 q 569 460 569 406 l 570 475 l 570 505 q 545 601 570 573 q 453 628 519 628 l 439 628 q 265 535 347 628 q 203 427 226 490 q 181 305 181 363 m 289 795 l 281 795 q 269 804 269 795 l 269 808 q 336 887 269 847 q 417 911 375 911 q 505 882 460 911 q 577 852 551 852 q 628 883 604 852 q 669 913 653 913 l 673 913 q 690 899 690 913 q 651 832 690 861 q 571 804 612 804 q 475 831 530 804 q 391 859 420 859 q 333 827 361 859 q 289 795 304 795 m 675 570 l 675 559 q 653 406 675 556 q 631 203 631 256 q 631 173 631 186 q 632 142 631 148 l 635 119 l 638 103 q 588 56 638 56 q 558 87 574 56 q 534 119 542 119 q 492 97 527 119 q 427 64 456 74 q 280 28 315 28 l 268 28 q 141 90 197 28 q 85 245 85 151 l 85 283 q 118 434 85 357 q 317 656 187 596 q 430 682 375 682 q 551 652 485 682 q 625 623 618 623 l 648 627 q 675 570 675 627 z "},"":{"ha":730,"x_min":88,"x_max":680,"o":"m 185 319 l 185 296 q 220 169 185 216 q 309 122 255 122 l 323 122 q 413 153 363 122 q 497 236 463 183 q 564 477 564 338 l 564 513 q 535 611 564 588 q 445 634 506 634 l 438 633 q 258 530 336 633 q 203 421 222 483 q 185 319 185 360 m 440 891 q 424 849 440 869 q 390 828 407 828 q 380 825 385 825 l 368 824 l 356 824 l 343 827 q 323 844 323 827 q 321 854 321 852 l 320 862 l 320 869 l 321 871 l 321 877 q 323 893 323 886 q 339 920 323 901 q 372 940 355 940 q 378 941 376 941 l 386 943 l 402 943 l 416 940 q 438 917 438 940 l 440 906 l 440 891 m 656 911 l 656 901 l 655 899 l 655 895 l 652 874 q 630 817 652 844 q 592 790 608 790 l 586 790 q 553 824 553 790 l 550 833 l 550 841 l 560 870 q 562 877 562 876 q 582 916 562 896 q 627 937 602 937 l 632 937 l 642 934 q 656 911 656 934 m 635 167 q 637 140 635 151 l 639 123 l 642 108 q 592 60 642 60 q 561 92 577 60 q 538 124 545 124 q 497 103 530 124 q 439 72 464 81 q 296 33 341 33 l 271 33 q 142 99 195 33 q 88 262 88 164 l 88 275 q 117 425 88 346 q 309 655 175 587 q 429 686 370 686 l 454 686 q 554 657 497 686 q 629 627 611 627 l 652 631 q 678 585 678 631 l 680 564 q 658 418 680 563 q 637 216 637 273 l 635 196 l 635 167 z "},"":{"ha":728,"x_min":85,"x_max":677,"o":"m 502 981 l 495 981 l 492 980 l 488 980 q 481 979 482 979 q 441 956 464 979 q 419 913 419 934 l 417 902 l 417 887 q 435 846 417 864 q 476 828 453 828 l 486 828 q 538 852 515 828 q 562 897 562 876 q 564 904 564 901 l 564 914 l 564 916 q 544 964 564 947 q 502 981 523 981 m 175 293 l 175 277 q 209 150 175 202 q 297 98 243 98 l 312 98 l 319 98 q 418 134 363 99 q 546 303 524 203 q 568 446 568 403 l 569 460 l 569 506 q 543 601 569 576 q 454 625 517 625 l 439 625 l 432 625 q 345 601 391 625 q 259 528 299 576 q 197 415 218 480 q 175 293 175 349 m 615 928 l 615 904 q 573 821 615 858 q 480 784 532 784 l 476 784 q 398 813 431 784 q 366 885 366 842 l 366 901 q 367 913 367 909 q 411 991 367 957 q 493 1025 454 1025 l 513 1025 q 585 995 555 1025 q 615 928 615 964 m 85 257 l 85 282 q 114 427 85 351 q 189 561 142 504 q 299 652 236 617 q 432 688 361 688 l 445 688 q 512 674 475 688 q 573 644 549 660 q 608 627 597 627 q 631 631 618 627 q 646 635 644 635 q 677 572 677 635 q 661 454 677 550 l 649 373 q 632 197 632 254 q 635 123 632 140 q 637 103 637 107 q 593 62 637 62 q 559 94 575 62 q 533 125 543 125 q 492 104 523 125 q 396 59 462 83 q 288 35 330 35 l 263 35 q 139 99 193 35 q 85 257 85 163 z "},"":{"ha":1069,"x_min":113,"x_max":1078,"o":"m 215 275 l 215 244 q 242 137 215 178 q 319 95 269 95 q 421 128 369 95 q 504 205 473 161 q 564 373 512 218 q 616 578 616 528 l 616 590 q 602 610 616 600 q 510 633 568 633 l 503 633 q 315 532 404 633 q 248 416 280 492 q 215 275 215 340 m 924 638 l 901 638 q 767 567 846 638 q 707 485 732 535 q 682 425 682 435 l 682 422 q 707 399 682 399 l 716 399 q 949 456 812 399 q 1003 485 994 475 q 1012 525 1012 495 l 1012 543 q 986 612 1012 587 q 924 638 960 638 m 301 52 q 165 117 217 52 q 113 260 113 182 q 146 413 113 338 q 232 546 180 489 q 350 636 284 604 q 474 669 416 669 l 492 669 l 509 667 l 526 664 q 571 676 535 664 q 627 688 607 688 q 671 669 647 688 q 706 640 696 650 q 723 630 715 630 q 759 650 730 630 q 800 677 788 671 q 927 705 856 705 q 1038 661 998 705 q 1078 547 1078 617 l 1078 528 q 1028 404 1078 439 q 885 340 1000 383 q 727 285 770 297 q 684 270 684 273 q 847 119 684 119 q 1049 199 864 119 q 1071 179 1071 209 q 1053 134 1071 161 q 985 79 1035 106 q 818 29 896 29 q 665 77 739 29 q 576 106 618 106 q 545 111 557 111 l 518 115 q 484 103 512 115 q 391 71 456 90 q 301 52 326 52 z "},"":{"ha":652,"x_min":98,"x_max":646,"o":"m 98 274 l 98 304 q 129 448 99 370 q 322 669 190 604 q 464 703 390 703 l 479 703 q 576 682 538 703 q 646 612 646 644 l 646 602 q 628 578 646 595 q 603 561 610 561 q 564 578 595 561 q 532 595 532 595 q 445 610 494 610 q 352 582 395 610 q 277 507 309 553 q 215 284 215 418 q 267 127 215 184 q 378 86 303 86 q 508 112 454 86 q 573 137 562 137 q 602 100 602 137 q 523 33 602 70 q 373 -3 444 -3 l 342 -3 q 245 19 293 -3 q 168 77 198 41 q 98 274 98 159 m 454 -159 l 454 -170 q 410 -256 454 -216 q 303 -296 366 -296 l 298 -296 q 224 -267 224 -296 l 224 -251 q 256 -242 224 -242 l 275 -241 q 284 -240 279 -240 q 335 -222 312 -240 q 357 -180 357 -203 q 330 -137 357 -157 q 302 -115 302 -118 q 304 -102 304 -109 q 333 -28 304 -60 q 380 -15 345 -15 q 391 -40 391 -15 l 388 -66 q 404 -85 388 -76 q 454 -159 454 -114 z "},"":{"ha":655,"x_min":102,"x_max":641,"o":"m 405 644 q 282 571 349 644 q 216 432 216 498 q 245 407 216 407 l 254 407 l 259 408 l 277 409 l 300 411 l 332 414 q 509 464 418 414 q 557 531 557 490 l 557 540 q 523 615 557 585 q 438 646 489 646 l 429 646 q 405 644 414 644 m 479 782 q 420 834 457 782 q 330 998 330 960 l 330 1003 q 349 1013 330 1013 l 357 1013 q 413 987 391 1013 q 445 927 417 982 q 498 841 472 872 q 525 794 525 810 l 525 789 q 513 783 525 783 l 507 781 l 489 781 q 479 782 482 782 m 358 39 l 330 39 q 168 109 233 39 q 102 297 102 178 q 204 576 102 456 q 453 696 305 696 q 590 651 540 696 q 641 533 641 606 l 641 519 q 591 423 641 457 q 319 328 518 374 q 224 301 233 307 q 216 243 216 296 q 272 150 216 190 q 371 122 311 122 q 466 136 432 122 q 528 164 499 149 q 569 178 556 178 q 586 147 586 178 q 504 77 586 116 q 358 39 422 39 z "},"":{"ha":655,"x_min":102,"x_max":640,"o":"m 465 645 l 446 645 q 301 577 369 645 q 242 491 264 541 q 219 427 219 442 l 219 422 q 245 402 219 402 l 258 402 q 497 460 359 402 q 566 539 566 489 l 566 543 l 566 548 q 534 616 566 588 q 465 645 502 645 m 393 774 q 383 779 383 774 l 383 783 q 439 872 383 788 q 503 962 496 956 q 612 1002 547 1002 l 614 1001 q 627 996 627 1001 l 627 994 q 587 945 627 980 q 518 878 547 910 q 412 776 427 776 l 398 774 l 393 774 m 357 37 l 328 37 q 166 107 231 37 q 102 281 102 177 l 102 310 q 133 457 102 384 q 319 665 197 608 q 438 695 382 695 l 452 695 q 591 649 541 695 q 640 532 640 603 l 640 518 q 587 420 640 456 q 317 327 507 368 q 226 302 237 310 q 214 250 214 295 q 281 142 214 182 q 382 121 316 121 q 529 163 448 121 q 568 178 557 178 q 585 145 585 178 q 503 75 585 113 q 357 37 420 37 z "},"":{"ha":655,"x_min":99,"x_max":637,"o":"m 212 421 l 212 412 q 226 394 212 394 l 243 394 q 491 446 357 394 q 563 517 563 473 l 563 522 l 562 526 q 528 605 562 574 q 449 636 493 636 l 425 636 q 287 562 361 636 q 212 421 212 488 m 288 769 l 279 769 q 272 774 272 769 q 377 881 272 785 q 489 978 483 978 l 493 978 q 555 922 511 978 q 635 794 635 818 q 616 784 635 784 q 542 844 597 784 q 503 893 522 866 q 473 921 484 921 q 392 845 462 921 q 288 769 322 769 m 565 169 q 582 138 582 169 q 502 67 582 106 q 351 28 421 28 q 164 98 229 28 q 99 273 99 168 l 99 301 q 130 448 99 376 q 304 651 191 593 q 435 686 372 686 l 464 686 q 588 640 538 686 q 637 523 637 594 l 637 509 q 585 412 637 446 q 315 318 503 358 q 222 294 233 301 q 212 241 212 286 q 278 134 212 174 q 371 113 313 113 q 462 126 429 113 q 524 154 496 140 q 565 169 553 169 z "},"":{"ha":656,"x_min":104,"x_max":642,"o":"m 450 637 l 435 637 q 300 576 367 637 q 243 497 269 548 q 217 424 217 446 l 218 420 l 218 416 q 245 399 218 399 l 250 399 l 273 401 q 281 401 277 401 q 496 454 370 401 q 558 526 558 479 l 558 535 q 557 549 557 545 q 527 607 557 578 q 450 637 498 637 m 358 822 l 343 822 q 311 859 311 822 l 311 871 l 311 873 l 313 887 q 314 898 314 889 q 329 926 314 907 q 358 945 345 945 l 373 949 l 389 949 q 397 947 395 947 q 419 927 419 947 l 422 913 l 422 895 l 420 880 q 400 841 420 861 q 358 822 381 822 m 634 907 l 634 887 l 633 884 l 633 880 l 631 863 q 630 849 630 860 q 610 806 630 838 q 589 792 602 792 l 578 792 q 540 810 569 792 q 524 848 524 819 l 524 853 q 552 910 524 881 q 597 939 581 939 l 600 940 l 611 940 q 634 907 634 940 m 359 33 l 330 33 q 159 113 230 33 q 104 277 104 178 l 104 292 q 213 580 104 454 q 316 659 254 627 q 440 690 377 690 l 469 690 q 593 645 544 690 q 642 527 642 599 l 642 513 q 642 512 642 513 q 590 416 642 450 q 307 319 509 362 q 227 297 238 304 q 216 238 216 290 q 273 144 216 185 q 396 117 312 117 q 465 129 433 117 q 527 157 496 142 q 570 173 558 173 q 587 141 587 173 q 502 69 587 106 q 359 33 418 33 z "},"":{"ha":351,"x_min":117,"x_max":315,"o":"m 315 773 l 315 771 q 304 764 315 764 l 301 764 q 240 792 264 764 q 144 939 178 863 q 130 966 138 953 q 122 983 122 979 l 122 985 q 143 997 122 997 l 149 997 l 151 996 l 170 994 q 227 964 209 994 q 315 773 315 823 m 234 106 q 234 97 234 106 q 219 70 234 87 q 153 52 204 52 q 121 162 121 52 q 119 190 119 182 l 117 204 l 117 227 q 142 420 117 269 q 168 616 168 570 q 178 675 168 662 q 223 689 189 689 l 244 689 q 270 670 270 689 l 270 656 q 255 555 270 644 l 237 449 q 225 252 225 351 l 226 240 l 226 216 l 227 205 l 227 195 l 229 163 q 234 106 234 125 z "},"":{"ha":353,"x_min":130,"x_max":434,"o":"m 221 763 q 208 768 208 763 l 208 773 q 330 958 208 802 q 402 991 355 991 l 408 991 q 434 979 434 991 l 433 977 l 433 974 q 363 883 433 952 q 342 859 351 871 q 238 764 269 764 l 232 763 l 221 763 m 170 50 l 163 50 q 135 135 135 50 q 132 168 132 161 l 131 182 l 130 204 l 130 212 q 158 402 130 267 q 187 561 186 538 q 188 589 188 583 l 187 602 l 187 615 q 200 674 187 660 q 246 688 214 688 l 260 688 q 291 662 291 688 q 268 517 291 655 q 245 357 245 378 l 242 326 q 241 311 241 319 l 241 298 l 241 258 l 240 246 l 240 212 l 241 201 l 241 185 l 247 133 q 230 68 247 87 q 170 50 212 50 z "},"":{"ha":366,"x_min":90,"x_max":420,"o":"m 286 977 l 290 977 q 332 958 318 977 q 420 781 420 829 q 402 770 420 770 l 398 770 q 335 819 366 770 q 281 888 291 888 q 213 833 280 888 q 108 779 146 779 q 90 785 90 779 l 90 788 q 172 887 90 797 q 286 977 254 977 m 230 683 l 244 683 q 277 656 277 683 q 272 608 277 642 q 262 546 266 573 l 253 489 q 227 220 227 338 q 227 210 227 215 l 228 194 l 228 184 l 229 169 q 232 151 229 165 q 235 110 235 136 q 153 47 235 47 q 117 180 117 47 l 116 194 l 116 231 q 144 407 116 236 q 173 616 173 578 q 184 669 173 655 q 230 683 195 683 z "},"":{"ha":368,"x_min":109,"x_max":446,"o":"m 220 868 q 217 847 217 860 q 200 813 217 834 q 174 791 183 791 q 170 790 171 790 l 163 789 l 155 789 l 140 792 q 109 829 109 792 l 109 848 l 113 876 q 130 915 113 894 q 158 935 146 935 l 167 937 l 174 937 q 180 936 178 936 l 187 933 q 217 911 217 933 l 220 894 l 220 876 l 220 873 l 220 868 m 367 817 q 328 858 328 817 l 328 866 q 347 923 328 899 q 393 947 366 947 l 407 947 q 416 945 413 945 q 443 920 443 945 q 444 913 444 916 l 446 906 l 446 890 l 443 876 q 426 841 443 862 q 393 821 410 821 l 389 819 l 373 817 l 367 817 m 168 54 q 134 198 134 54 l 134 235 q 160 414 134 258 q 186 616 186 571 q 198 676 186 662 q 249 690 209 690 l 256 690 q 288 671 288 690 l 288 664 q 265 513 288 625 q 241 336 241 401 q 240 314 240 321 l 239 300 l 239 224 l 240 218 q 240 207 240 212 l 241 181 l 248 124 q 233 72 248 90 q 168 54 218 54 z "},"":{"ha":718,"x_min":94,"x_max":665,"o":"m 583 454 q 538 549 583 502 q 456 596 494 596 l 449 596 q 300 527 355 596 q 212 386 245 457 q 178 265 178 315 l 178 235 q 218 118 178 167 q 323 70 258 70 l 331 70 q 427 96 379 71 q 562 292 524 150 q 584 412 584 371 l 584 433 q 583 454 583 446 m 652 892 q 625 856 652 884 q 597 812 597 827 q 616 732 597 798 q 641 642 635 667 q 665 448 665 538 l 665 397 q 641 250 665 319 q 475 41 589 102 q 340 5 406 5 l 323 5 q 320 5 321 5 q 233 24 280 5 q 94 243 94 81 l 94 260 q 118 382 94 318 q 186 496 142 447 q 425 611 286 611 l 478 604 q 528 642 528 604 q 484 751 528 711 q 389 776 456 776 q 351 795 351 776 q 388 822 351 804 q 425 859 425 839 q 404 910 425 880 q 383 952 383 940 q 413 982 383 982 q 490 948 439 982 q 557 913 541 913 l 631 921 q 652 892 652 921 z "},"":{"ha":732,"x_min":109,"x_max":704,"o":"m 414 935 l 434 935 q 509 905 452 935 q 586 875 565 875 q 637 903 606 875 q 695 930 667 930 q 704 915 704 930 q 663 842 704 879 q 578 804 622 804 l 564 804 q 484 836 536 804 q 405 867 431 867 q 351 839 379 867 q 304 811 323 811 q 286 823 286 811 l 286 827 q 330 898 286 861 q 414 935 374 935 m 551 433 q 449 579 551 579 q 292 471 355 579 q 225 237 260 417 q 189 53 191 58 q 144 23 180 23 q 109 53 109 23 q 148 269 109 64 l 161 341 q 172 411 171 397 l 175 446 q 187 543 177 475 q 205 636 197 611 q 235 662 214 662 q 272 597 272 662 q 278 570 272 570 q 312 590 284 570 q 491 665 415 665 q 605 618 566 665 q 643 490 643 572 l 643 473 q 634 372 643 447 q 625 227 625 297 l 625 199 q 625 172 625 185 l 624 145 l 624 117 q 615 59 624 72 q 581 46 606 46 q 550 58 555 46 q 538 224 538 85 l 551 433 z "},"":{"ha":715,"x_min":96,"x_max":695,"o":"m 342 119 l 365 119 q 450 146 407 119 q 526 219 493 172 q 589 422 589 307 l 589 437 q 546 591 589 538 q 430 644 503 644 l 422 644 q 337 617 380 644 q 260 544 294 591 q 195 332 195 453 l 195 316 q 236 175 195 231 q 342 119 278 119 m 536 794 q 523 784 536 783 q 505 785 510 785 q 431 857 479 785 q 368 930 409 890 q 328 989 328 971 l 328 993 q 351 1000 328 1000 l 365 1002 q 429 975 406 1002 q 486 886 435 967 q 536 796 536 805 l 536 794 m 349 19 l 327 19 q 161 92 227 19 q 96 283 96 164 l 96 294 q 122 448 96 371 q 308 671 177 606 q 434 703 372 703 l 455 703 q 624 628 552 703 q 695 449 695 553 l 695 439 q 669 292 695 374 q 590 146 642 210 q 474 51 538 83 q 349 19 410 19 z "},"":{"ha":715,"x_min":95,"x_max":694,"o":"m 597 460 q 554 594 597 545 q 454 643 512 643 l 439 643 q 349 616 393 643 q 274 547 304 589 q 199 321 199 444 l 199 298 q 239 171 199 224 q 345 118 279 118 l 353 118 l 360 119 q 518 206 446 119 q 575 312 554 250 q 595 408 595 374 l 597 423 l 597 460 m 392 781 q 383 784 383 781 l 383 786 q 523 968 383 809 q 590 1000 550 1000 q 606 1002 604 1002 l 616 1002 q 634 996 634 1002 l 634 994 q 533 883 634 983 q 408 782 433 782 l 401 781 l 392 781 m 348 18 l 326 18 q 164 87 230 18 q 114 168 134 119 q 95 272 95 217 l 95 293 l 96 304 q 118 436 96 364 q 186 569 140 508 q 298 666 231 630 q 423 702 365 702 l 454 702 q 625 625 555 702 q 694 448 694 549 l 694 437 l 694 427 q 661 271 694 355 q 465 46 597 109 q 348 18 406 18 z "},"":{"ha":715,"x_min":95,"x_max":694,"o":"m 340 113 l 355 113 q 523 203 450 113 q 576 303 557 244 q 596 409 596 363 l 596 416 q 557 575 596 515 q 445 635 518 635 l 430 635 q 345 609 388 635 q 215 435 254 554 q 193 315 193 368 l 193 307 q 236 163 193 214 q 340 113 279 113 m 499 981 l 509 981 q 567 932 534 981 q 642 802 642 825 q 621 791 642 791 q 541 843 585 791 q 476 919 478 919 q 403 848 474 919 q 296 777 332 777 l 292 777 l 287 777 q 279 786 279 777 q 319 832 279 795 q 375 886 359 868 q 499 981 462 981 m 694 450 l 694 430 l 693 419 q 663 271 693 351 q 465 38 601 103 q 336 9 406 9 l 326 10 q 163 79 229 10 q 115 159 134 109 q 95 264 95 209 l 95 296 q 125 450 95 373 q 307 663 185 604 q 433 694 373 694 l 444 694 l 454 694 q 623 620 552 694 q 694 450 694 545 z "},"":{"ha":715,"x_min":93,"x_max":692,"o":"m 345 111 l 361 111 q 447 136 404 111 q 521 201 490 161 q 595 409 595 298 l 595 439 q 553 577 595 526 q 437 629 511 629 l 429 629 q 342 604 385 629 q 269 539 300 580 q 192 322 192 439 l 192 283 q 238 159 192 208 q 345 111 283 111 m 679 913 q 638 841 679 874 q 554 808 597 808 q 458 836 511 808 q 380 864 406 864 q 325 832 354 864 q 279 801 296 801 l 274 801 q 258 810 258 801 l 258 814 q 311 891 258 852 q 389 917 345 917 q 482 890 432 917 q 557 864 532 864 q 611 896 582 864 q 659 927 640 927 l 663 927 q 679 917 679 927 l 679 913 m 345 8 l 324 8 q 161 77 227 8 q 112 160 130 110 q 93 262 93 211 l 93 294 q 123 448 94 372 q 305 661 183 600 q 431 692 369 692 l 452 692 q 621 618 549 692 q 692 449 692 543 l 692 418 q 659 264 692 347 q 578 125 627 182 q 467 38 529 68 q 345 8 404 8 z "},"":{"ha":714,"x_min":100,"x_max":699,"o":"m 349 113 l 364 113 q 444 137 399 113 q 522 205 489 160 q 593 420 593 304 l 593 435 q 553 581 593 528 q 452 634 513 634 l 430 634 q 343 608 386 634 q 272 543 300 581 q 198 311 198 440 q 241 163 198 214 q 349 113 285 113 m 386 949 q 431 904 431 949 l 431 902 l 431 901 l 431 899 l 429 884 q 428 876 428 882 q 412 850 428 870 q 377 829 395 829 l 373 828 l 359 826 l 347 826 l 333 829 q 310 852 310 829 q 309 857 309 854 l 307 866 l 307 876 l 310 892 q 326 925 310 905 q 359 945 342 945 l 363 947 l 380 949 l 386 949 m 615 939 l 629 939 q 651 923 651 939 l 653 912 l 653 903 q 650 882 650 892 q 614 819 650 854 q 562 800 595 800 l 560 801 l 555 801 q 547 803 548 803 q 534 821 534 803 l 534 837 l 536 854 q 561 909 536 879 q 615 939 585 939 m 352 12 l 330 12 q 164 86 228 12 q 100 267 100 160 l 100 298 q 127 446 100 369 q 321 669 184 603 q 440 697 378 697 q 544 680 501 697 q 624 625 587 662 q 680 537 661 588 q 699 443 699 487 l 699 432 l 698 422 q 698 418 698 420 q 666 267 698 344 q 469 41 599 103 q 352 12 410 12 z "},"":{"ha":787,"x_min":153,"x_max":718,"o":"m 431 574 q 378 590 393 574 q 362 616 362 606 l 362 617 q 386 653 362 629 q 431 677 410 677 l 439 679 l 475 682 l 477 682 q 536 666 520 682 q 552 642 552 650 l 552 636 q 528 602 552 626 q 475 578 504 578 l 469 576 l 445 574 l 431 574 m 561 481 q 718 463 718 481 l 718 458 q 694 410 718 414 q 414 402 648 402 l 401 402 l 382 401 l 357 401 q 153 420 153 401 l 154 426 l 154 431 q 197 475 154 475 l 210 476 l 439 481 l 561 481 m 462 182 q 458 160 462 182 q 444 135 458 153 q 409 117 430 117 q 403 115 405 115 l 389 113 l 374 113 l 371 114 l 367 114 q 361 115 363 115 q 330 145 330 115 q 329 151 329 148 l 328 159 l 328 161 l 329 163 l 329 168 l 330 172 q 331 190 330 172 q 346 218 331 199 q 378 236 361 236 q 389 239 386 239 l 401 240 l 417 240 q 430 238 423 238 q 460 213 460 238 q 461 207 461 209 l 463 199 l 463 184 l 462 182 z "},"":{"ha":707,"x_min":102,"x_max":701,"o":"m 206 286 q 229 184 206 227 q 239 176 233 176 q 344 300 256 176 q 513 572 513 537 l 513 577 q 450 616 513 616 l 427 616 q 358 595 399 616 q 229 430 273 553 q 208 329 208 370 l 208 322 l 207 316 l 206 298 l 206 286 m 593 463 q 570 538 593 538 q 481 422 551 538 q 433 348 467 399 q 346 209 399 297 q 293 117 293 121 l 293 113 q 337 76 293 76 l 349 76 l 355 77 q 520 181 444 77 q 572 288 551 222 q 594 407 594 353 l 594 445 q 593 463 593 457 m 665 681 l 657 633 q 679 558 657 623 q 701 438 701 493 l 701 425 l 700 413 q 579 109 700 235 q 463 30 527 54 q 339 5 399 5 q 243 -3 279 5 q 193 -12 208 -12 l 175 -14 l 166 -16 l 160 -16 q 134 24 134 -16 l 135 33 l 139 52 q 140 81 140 57 q 121 153 140 104 q 102 269 102 202 l 102 294 q 134 450 102 371 q 484 694 233 694 q 556 700 528 694 q 593 707 584 705 q 616 711 603 708 l 634 716 l 641 716 q 665 681 665 716 z "},"":{"ha":729,"x_min":137,"x_max":655,"o":"m 508 788 l 503 788 l 490 790 q 413 859 465 790 q 324 991 324 977 l 324 994 q 349 1008 324 1008 l 359 1008 q 374 1006 369 1006 q 432 977 412 1006 q 524 802 524 848 l 524 800 q 508 788 524 788 m 568 60 q 538 76 553 60 q 518 93 523 93 q 481 76 513 93 q 418 48 449 58 q 320 37 387 37 l 306 37 q 185 73 221 37 q 137 212 137 121 l 137 228 q 193 619 137 353 q 231 667 203 667 l 242 667 q 272 644 265 667 q 279 569 279 621 q 252 388 279 517 q 224 205 224 260 q 328 96 224 96 q 414 131 366 96 q 491 216 462 166 q 562 454 519 266 q 620 643 604 643 q 655 612 655 643 l 655 598 q 648 520 655 570 q 631 366 640 471 q 623 199 623 262 l 627 127 q 568 60 627 60 z "},"":{"ha":729,"x_min":137,"x_max":655,"o":"m 633 995 l 633 990 q 534 874 633 961 q 412 787 435 787 l 400 787 q 389 793 389 787 l 389 795 q 514 966 389 823 q 587 1000 544 1000 l 604 1002 l 613 1002 q 633 995 633 1002 m 627 126 q 568 59 627 59 q 537 76 552 59 q 518 92 522 92 q 483 75 514 92 q 419 47 452 58 q 321 36 386 36 l 306 36 q 180 77 222 36 q 137 211 137 119 l 137 227 q 193 618 137 347 q 231 666 203 666 l 242 666 q 272 643 266 666 q 279 569 279 619 q 252 388 279 518 q 224 209 224 257 q 247 127 224 160 q 315 95 270 95 q 409 127 361 95 q 489 214 458 159 q 562 455 521 268 q 620 642 603 642 q 655 611 655 642 l 655 597 q 648 520 655 569 q 632 374 640 472 q 624 242 624 277 l 623 213 l 623 185 q 627 126 627 149 z "},"":{"ha":729,"x_min":136,"x_max":654,"o":"m 378 901 q 497 997 466 997 q 551 965 528 997 q 641 802 641 835 q 612 789 641 789 q 536 857 583 789 q 488 925 490 925 l 401 846 q 302 787 337 787 q 283 797 283 787 l 378 901 m 567 55 q 536 72 551 55 q 517 88 522 88 q 478 69 513 88 q 409 41 442 50 q 298 32 375 32 q 136 207 136 32 l 136 223 q 193 614 136 343 q 230 662 203 662 l 241 662 q 271 639 264 662 q 278 565 278 616 q 251 384 278 514 q 224 204 224 253 q 247 123 224 156 q 315 91 269 91 q 409 123 360 91 q 488 208 457 155 q 561 449 519 261 q 619 637 603 637 q 654 607 654 637 l 654 593 q 647 516 654 566 q 631 361 640 467 q 622 195 622 256 l 626 122 q 567 55 626 55 z "},"":{"ha":729,"x_min":142,"x_max":663,"o":"m 340 820 q 302 857 302 820 l 302 866 q 320 916 302 895 q 353 938 337 938 l 371 941 l 386 941 q 425 906 425 941 l 425 889 l 422 876 q 405 844 422 865 q 368 823 389 823 q 362 821 364 821 l 352 820 l 340 820 m 624 942 q 659 919 659 942 l 663 905 l 663 889 q 645 846 663 868 q 610 824 627 824 l 606 823 l 592 821 l 576 821 q 541 855 541 821 l 541 869 q 558 916 541 895 q 588 937 575 937 l 610 942 l 624 942 m 633 141 q 633 139 633 141 q 581 62 633 62 q 544 79 559 62 q 525 96 530 96 q 485 77 519 96 q 415 48 450 58 q 299 39 380 39 q 180 86 218 39 q 142 244 142 133 q 199 622 142 356 q 237 669 209 669 l 248 669 q 278 645 271 669 q 285 573 285 621 q 257 393 285 525 q 230 212 230 260 q 252 131 230 164 q 323 98 275 98 q 422 135 372 98 q 500 227 473 172 q 569 463 528 281 q 625 646 610 646 q 661 614 661 646 l 661 601 q 646 475 661 576 q 630 260 630 373 l 629 231 q 628 189 628 217 l 631 165 l 633 141 z "},"":{"ha":672,"x_min":94,"x_max":648,"o":"m 389 783 l 371 783 q 362 787 362 783 l 362 791 q 479 950 362 833 q 549 986 515 986 q 559 987 556 987 l 574 988 q 601 980 601 988 l 601 978 q 518 880 601 975 q 399 785 435 785 q 389 783 391 783 m 94 -245 q 156 -181 94 -220 q 261 -84 218 -142 q 304 27 304 -26 q 250 161 304 81 q 173 323 195 242 q 134 583 134 466 q 153 624 134 607 q 191 640 172 640 q 271 471 231 640 q 286 303 276 448 q 304 159 296 159 q 334 180 312 159 q 509 472 433 279 q 535 543 517 493 q 562 608 553 593 q 630 654 591 654 q 648 635 648 654 l 648 622 q 546 346 648 613 q 419 37 444 79 q 275 -153 341 -93 q 174 -221 235 -188 q 111 -255 113 -255 l 104 -255 q 94 -245 94 -255 z "},"":{"ha":727,"x_min":1,"x_max":683,"o":"m 309 54 l 322 54 q 412 77 355 54 q 507 144 469 100 q 569 254 544 189 q 593 374 593 319 l 593 404 q 562 519 593 471 q 450 592 513 592 l 430 592 q 346 560 391 592 q 226 347 259 498 q 203 186 203 249 l 203 148 q 233 78 203 102 q 309 54 262 54 m 683 347 q 572 91 683 201 q 464 15 517 35 q 351 -5 410 -5 q 272 2 292 -5 q 230 18 253 8 q 195 27 206 27 q 139 -120 170 27 q 100 -280 107 -267 q 20 -328 76 -328 q 1 -315 1 -328 q 114 271 1 -288 q 228 894 228 829 q 258 958 228 958 l 269 958 q 299 937 284 958 q 315 874 315 916 q 307 776 315 832 q 298 667 298 720 q 304 604 298 614 q 331 593 310 593 q 390 609 351 593 q 477 624 429 624 q 617 541 551 624 q 683 347 683 458 z "},"":{"ha":670,"x_min":94,"x_max":650,"o":"m 350 939 q 371 920 371 939 q 373 913 373 915 l 374 904 l 374 890 l 374 888 q 374 884 374 886 l 370 867 q 355 837 370 856 q 321 819 340 819 l 314 817 l 310 817 l 304 816 l 298 816 l 283 819 q 267 833 267 819 q 264 842 264 840 l 263 855 l 263 863 l 267 883 q 282 920 267 901 q 314 939 297 939 l 332 942 l 333 942 q 350 939 341 939 m 610 888 l 607 865 q 592 838 607 857 q 558 819 576 819 q 552 818 554 818 l 543 817 l 533 817 l 531 817 l 528 817 q 522 819 524 819 q 502 837 502 819 q 500 842 500 840 l 499 851 l 499 865 l 500 867 l 502 881 q 505 900 505 891 q 522 926 505 909 q 565 943 539 943 l 572 943 l 587 940 q 610 907 610 940 l 610 890 l 610 888 m 248 -92 q 301 36 301 -18 q 251 170 301 90 q 181 317 201 250 q 137 595 137 461 q 155 633 137 618 q 194 648 174 648 q 265 492 231 648 q 286 305 276 445 q 304 165 296 165 q 328 179 313 165 q 536 555 439 287 q 562 618 553 604 q 631 664 590 664 q 650 646 650 664 q 548 360 650 628 q 417 45 446 93 q 261 -155 336 -91 q 106 -248 154 -248 q 94 -229 94 -248 q 159 -170 94 -214 q 248 -92 223 -125 z "},"":{"ha":358,"x_min":115,"x_max":279,"o":"m 221 674 l 243 674 q 279 655 279 674 l 279 648 l 278 640 q 253 480 278 617 q 227 248 227 342 q 241 126 227 153 q 254 74 254 100 q 242 35 254 47 q 158 11 216 11 q 142 22 146 11 q 116 149 116 82 l 115 164 l 115 189 q 143 385 115 233 q 171 564 171 537 q 163 631 163 609 q 221 674 163 674 z "},"":{"ha":711,"x_min":82,"x_max":676,"o":"m 163 342 q 123 370 163 370 q 82 394 82 370 q 125 480 82 424 q 191 589 168 536 q 215 721 215 642 q 238 886 215 800 q 270 911 245 911 q 305 857 305 911 l 304 843 l 300 785 q 296 688 296 711 q 316 608 296 608 q 398 634 324 608 q 495 660 471 660 q 519 638 519 660 q 493 581 519 604 q 452 558 485 574 q 401 523 420 542 q 298 416 305 429 q 273 308 291 403 q 254 172 254 213 q 294 88 254 102 q 513 74 333 74 l 551 75 l 612 75 q 664 60 652 75 q 676 14 676 45 q 530 -22 676 -22 l 510 -22 l 490 -22 q 174 -3 302 -22 q 133 15 142 2 q 124 65 124 28 l 163 342 z "},"":{"ha":415,"x_min":70,"x_max":414,"o":"m 363 621 q 414 589 414 621 q 364 528 414 572 q 300 451 313 483 q 242 168 242 314 q 248 104 242 129 q 253 72 253 80 q 236 21 253 33 q 174 9 218 9 q 134 46 151 9 q 125 95 125 66 q 130 163 125 123 l 134 189 l 140 231 q 153 353 153 341 q 98 395 153 395 q 70 420 70 395 q 125 490 70 446 q 194 569 180 533 q 204 621 197 577 q 228 751 212 665 q 243 889 243 836 q 258 962 243 941 q 304 982 273 982 l 317 982 q 343 973 338 982 q 349 911 349 964 l 314 663 q 334 617 314 617 q 363 621 351 621 z "},"":{"ha":991,"x_min":144,"x_max":1043,"o":"m 887 1345 l 918 1345 q 960 1337 960 1345 q 853 1223 960 1318 q 728 1128 747 1128 l 709 1128 q 674 1139 674 1128 q 738 1224 674 1142 q 824 1325 801 1305 q 887 1345 846 1345 m 806 63 q 725 114 749 63 q 699 194 720 126 q 669 292 678 262 l 659 320 q 622 433 644 363 q 542 634 599 503 q 444 811 486 766 q 404 833 425 833 q 307 461 401 833 l 298 433 l 279 379 q 248 243 274 362 q 220 119 222 124 q 180 85 207 85 q 144 136 144 85 q 178 368 144 208 l 186 397 l 193 425 q 209 518 200 454 q 240 671 217 583 l 262 743 l 266 769 l 271 823 q 305 959 286 934 q 373 985 324 985 l 394 985 q 469 939 429 985 q 690 551 596 793 q 767 345 740 423 q 800 267 794 267 q 851 456 806 267 q 908 729 896 645 q 924 828 920 814 l 932 853 q 978 916 948 898 q 1026 934 1008 934 q 1043 921 1043 934 q 975 700 1043 909 q 897 453 906 492 q 867 269 888 415 q 843 104 847 122 q 806 63 833 63 z "},"":{"ha":739,"x_min":83,"x_max":707,"o":"m 686 1063 q 707 1050 707 1063 l 707 1047 q 532 847 707 1022 q 468 814 500 814 l 465 814 l 460 813 l 446 812 l 442 812 q 434 823 434 812 l 434 829 l 435 833 q 583 1036 435 869 q 643 1059 603 1059 q 659 1061 655 1061 l 667 1062 l 682 1063 l 686 1063 m 589 54 q 559 180 559 54 q 573 355 559 214 q 587 513 587 497 q 557 591 587 562 q 478 621 527 621 q 305 511 370 621 q 209 181 265 444 q 178 50 183 60 q 138 26 165 26 q 83 56 83 26 q 110 191 83 68 q 149 371 138 314 q 166 496 159 429 q 190 629 174 564 q 247 695 205 695 q 283 686 273 695 q 296 637 293 677 q 304 597 298 597 q 340 626 309 597 q 424 680 372 654 q 524 706 476 706 q 690 522 690 706 l 690 503 q 680 408 690 489 l 677 389 q 670 331 673 355 q 667 300 667 308 q 673 244 667 293 q 680 166 680 195 l 684 131 q 663 73 684 92 q 589 54 643 54 z "},"":{"ha":1340,"x_min":166,"x_max":1357,"o":"m 774 532 l 774 563 q 756 717 774 635 q 724 824 739 799 q 666 871 709 849 q 571 894 623 894 l 561 894 q 405 809 465 894 q 241 398 241 578 l 241 350 q 301 170 241 241 q 454 99 361 99 l 477 99 q 585 122 536 99 q 659 187 633 146 q 741 337 726 294 q 774 532 774 431 m 1204 79 q 1143 42 1204 60 q 1015 24 1082 24 q 826 64 897 24 q 780 83 793 83 q 669 44 768 83 q 490 5 571 5 q 189 207 259 5 q 166 349 166 274 l 166 380 q 166 384 166 382 q 203 602 166 496 q 472 931 284 835 q 643 970 549 970 q 819 922 737 970 q 871 899 858 899 q 920 928 885 899 q 996 968 954 956 q 1128 979 1037 979 q 1267 971 1220 979 q 1336 944 1314 964 q 1357 924 1357 925 q 1253 890 1357 890 l 1226 890 q 1074 893 1153 893 q 970 856 994 893 q 925 617 925 787 q 959 567 925 576 q 1140 557 992 557 q 1235 525 1235 557 q 1215 489 1235 505 q 1168 469 1196 473 l 1141 468 l 1113 467 q 1000 464 1084 467 q 902 446 917 460 q 877 403 886 432 q 850 210 850 318 q 889 121 850 140 q 1066 102 928 102 q 1204 79 1204 102 z "},"":{"ha":1123,"x_min":122,"x_max":1125,"o":"m 212 287 l 212 264 q 252 126 212 172 q 358 80 292 80 l 366 80 q 521 173 463 80 q 591 435 591 285 l 591 443 q 558 581 591 537 q 456 625 525 625 l 448 625 l 441 625 q 357 598 399 625 q 280 521 315 572 q 212 287 212 419 m 933 618 l 920 618 q 722 477 803 618 q 690 403 690 423 q 708 389 690 389 l 721 389 l 725 390 l 743 391 q 766 393 758 393 l 838 403 q 987 441 932 403 q 1019 512 1019 463 l 1019 534 q 994 596 1019 574 q 933 618 970 618 m 828 337 q 721 323 745 337 q 696 249 696 310 q 737 143 696 187 q 856 98 778 98 q 958 126 897 98 q 1025 155 1019 155 q 1048 111 1048 155 q 981 42 1048 79 q 840 5 913 5 q 728 28 768 5 q 656 88 688 52 q 620 124 627 124 q 566 84 612 124 q 355 2 471 3 q 250 23 289 3 q 122 264 122 90 q 148 431 122 349 q 221 574 174 513 q 467 702 321 701 q 652 624 591 702 q 692 580 686 580 q 736 614 699 580 q 919 690 820 690 q 1071 639 1017 690 q 1125 488 1125 588 q 1113 411 1125 440 q 1068 366 1101 382 q 828 337 1010 337 z "},"":{"ha":766,"x_min":122,"x_max":766,"o":"m 761 930 q 744 891 761 911 q 716 871 726 871 q 672 892 705 871 q 607 927 640 913 q 508 941 574 941 q 399 897 442 941 q 356 794 356 852 q 410 690 356 736 q 528 620 433 670 q 669 517 623 570 q 715 393 715 465 q 616 169 715 252 q 372 85 518 85 q 200 124 279 85 q 122 196 122 162 q 141 253 122 231 q 173 275 160 275 q 219 252 186 275 q 293 210 252 229 q 403 191 334 191 q 525 239 473 191 q 576 354 576 288 q 522 468 576 421 q 406 538 500 486 q 277 631 311 590 q 229 774 229 688 q 251 867 229 820 q 418 1010 298 968 q 496 1029 460 1025 q 445 1074 476 1043 q 389 1148 389 1130 l 389 1159 q 413 1196 389 1185 q 463 1200 422 1200 q 516 1187 504 1200 q 535 1154 528 1175 q 544 1133 543 1133 q 555 1149 545 1133 q 632 1224 578 1189 q 727 1259 686 1259 l 758 1269 l 760 1269 q 766 1267 766 1269 q 721 1225 766 1261 q 658 1164 676 1188 q 621 1098 640 1140 q 600 1053 602 1055 q 569 1030 585 1038 q 696 1002 636 1028 q 761 930 761 973 z "},"":{"ha":596,"x_min":99,"x_max":615,"o":"m 607 987 q 615 984 615 987 l 615 982 q 449 773 615 958 q 386 748 427 748 l 380 748 q 306 811 359 748 q 252 907 252 873 l 252 911 q 298 937 252 937 q 364 919 344 937 q 394 875 385 901 q 405 848 404 848 q 421 872 407 848 q 483 937 436 895 q 564 978 530 978 l 604 987 l 607 987 m 208 450 q 194 468 208 450 q 180 553 180 486 q 234 670 180 620 q 364 721 289 721 l 406 721 q 534 684 467 721 q 556 661 556 671 q 525 614 556 614 l 496 628 q 393 654 439 654 q 321 628 347 654 q 296 564 296 602 q 333 496 296 526 q 414 450 346 485 q 516 377 482 415 q 551 266 551 339 q 480 129 551 193 q 310 65 410 65 l 279 65 q 158 92 217 65 q 99 146 99 118 q 135 199 99 199 q 158 190 142 199 q 291 148 233 148 q 292 147 292 148 q 295 147 294 147 q 388 178 351 147 q 427 273 427 209 q 395 328 427 300 q 311 375 386 336 q 208 450 237 414 z "},"":{"ha":783,"x_min":171,"x_max":812,"o":"m 381 1093 q 352 1107 352 1093 l 351 1109 l 351 1110 l 349 1125 l 349 1131 l 349 1133 q 349 1137 349 1135 l 353 1154 q 370 1194 353 1177 q 402 1211 387 1211 q 412 1213 410 1213 l 425 1215 l 441 1215 q 472 1183 472 1215 l 472 1177 l 471 1175 q 471 1169 471 1173 l 468 1154 q 453 1117 468 1136 q 422 1099 438 1099 q 410 1095 412 1095 l 393 1093 l 381 1093 m 618 1097 q 606 1107 606 1097 q 605 1113 605 1112 l 604 1120 l 604 1135 q 607 1158 607 1145 q 623 1191 607 1171 q 658 1211 639 1211 q 664 1212 662 1212 l 685 1215 l 691 1215 l 714 1211 q 727 1187 727 1211 l 727 1173 l 726 1171 l 726 1168 l 724 1157 q 708 1118 724 1139 q 675 1098 692 1098 l 656 1094 l 652 1094 l 646 1093 l 640 1093 l 637 1094 l 622 1096 q 618 1097 620 1097 m 424 544 q 521 635 449 544 q 637 805 593 726 q 703 907 682 884 q 791 962 749 962 l 801 962 q 812 953 812 962 l 812 945 q 664 701 812 940 q 492 411 515 461 q 433 195 469 361 q 374 30 398 30 q 307 62 307 30 q 325 211 307 99 q 344 395 344 323 q 264 665 344 427 q 212 792 253 699 q 171 912 171 886 q 224 951 171 951 q 307 892 277 951 q 362 715 310 887 q 424 544 414 544 z "},"":{"ha":791,"x_min":58,"x_max":844,"o":"m 539 1082 q 484 1133 519 1082 q 405 1267 405 1248 l 405 1272 q 440 1289 405 1289 q 522 1229 476 1289 q 576 1170 568 1170 q 589 1180 577 1169 q 616 1204 600 1191 q 637 1222 632 1217 q 748 1289 709 1289 l 758 1289 q 787 1279 787 1289 l 787 1275 q 623 1109 787 1259 q 555 1081 592 1081 q 539 1082 544 1082 m 218 12 q 58 43 58 12 q 160 229 58 93 q 279 380 172 245 q 664 880 664 861 q 544 897 664 897 q 353 887 423 897 q 262 878 282 878 q 211 911 211 878 q 229 967 211 954 q 381 990 260 990 l 406 990 l 430 989 l 745 989 l 769 988 q 844 956 844 983 q 534 534 844 913 q 258 163 330 285 q 242 131 242 135 q 269 104 242 110 q 400 99 295 99 q 590 111 505 99 q 679 122 674 122 q 730 85 730 122 q 709 29 730 43 q 556 5 675 5 l 532 5 l 508 6 l 386 8 l 314 10 q 218 12 242 12 z "},"":{"ha":621,"x_min":37,"x_max":632,"o":"m 591 1015 l 606 1015 q 632 1002 632 1015 q 471 823 632 971 q 408 795 439 795 l 397 795 q 338 850 374 795 q 259 994 259 972 l 259 998 q 291 1013 259 1013 q 337 1001 323 1013 q 361 971 350 989 q 378 946 373 953 q 402 913 383 940 q 425 886 420 886 q 456 913 429 886 q 591 1015 557 1015 m 382 612 q 340 611 365 611 q 257 602 315 611 q 188 593 199 593 q 144 629 144 593 q 167 685 144 669 q 273 700 189 700 l 342 700 l 359 699 l 446 698 q 627 676 627 698 l 627 663 q 417 384 627 640 q 207 119 207 127 q 284 100 207 100 q 425 109 361 100 q 500 118 488 118 q 542 77 542 118 q 522 26 542 36 q 396 12 492 12 l 311 12 l 293 12 l 241 13 q 37 31 37 13 l 37 44 q 249 330 37 71 q 461 600 461 588 q 399 612 461 612 l 382 612 z "},"":{"ha":634,"x_min":-27,"x_max":677,"o":"m 425 700 q 485 643 425 657 q 568 604 568 623 q 495 559 568 575 q 399 497 421 544 q 298 169 353 401 q 205 -122 243 -64 q 125 -203 168 -180 q 28 -226 83 -226 q -27 -205 -27 -226 q -5 -146 -27 -168 q 33 -133 -3 -144 q 95 -99 68 -122 q 142 -29 121 -77 q 201 187 163 18 q 240 405 240 356 l 241 435 l 241 513 l 242 528 l 243 541 q 237 568 243 563 q 210 589 210 583 q 247 645 210 618 q 321 701 319 697 q 336 745 323 705 q 364 821 349 784 q 417 897 379 859 q 581 962 482 962 l 598 962 q 677 922 677 962 q 647 869 677 886 q 602 863 636 863 l 586 865 l 570 865 q 469 811 512 865 q 425 700 425 758 z "},"":{"ha":559,"x_min":159,"x_max":530,"o":"m 395 958 q 453 903 415 958 q 530 769 530 793 q 496 755 530 755 q 419 818 463 755 q 368 880 376 880 q 292 817 361 880 q 185 753 222 753 l 180 753 q 159 763 159 753 l 159 766 q 320 930 159 783 q 385 959 351 959 l 391 958 l 395 958 z "},"":{"ha":509,"x_min":180,"x_max":555,"o":"m 521 951 l 531 951 q 555 938 555 951 q 387 760 555 914 q 323 732 357 732 l 318 733 l 313 733 q 257 785 290 733 q 180 925 180 905 l 180 934 q 213 950 180 950 q 292 885 246 950 q 345 819 337 819 l 385 856 l 414 883 l 422 890 q 521 951 483 951 z "},"":{"ha":505,"x_min":144,"x_max":528,"o":"m 144 863 l 144 873 q 182 893 144 893 q 218 862 205 893 q 257 812 232 831 q 329 793 281 793 q 454 869 401 793 q 492 894 471 894 l 497 894 q 528 881 528 894 l 528 872 q 457 773 528 826 q 310 720 387 720 l 304 720 q 194 761 243 720 q 144 863 144 802 z "},"":{"ha":412,"x_min":228,"x_max":370,"o":"m 259 748 q 231 769 231 748 q 229 776 229 773 l 228 785 l 228 810 l 233 836 q 271 882 233 882 q 282 884 280 884 l 299 886 l 311 886 l 314 885 l 329 884 q 334 883 332 883 q 366 861 366 883 q 368 852 368 854 l 370 840 l 370 825 l 369 823 l 367 806 q 366 801 366 803 q 324 748 366 748 l 322 747 l 319 747 l 300 745 l 283 745 l 280 745 l 263 747 q 259 748 260 748 z "},"":{"ha":493,"x_min":178,"x_max":448,"o":"m 328 906 l 315 906 q 262 882 286 906 q 237 833 237 857 l 235 819 l 235 808 q 253 765 235 783 q 286 748 270 748 l 302 746 l 307 746 q 328 748 315 748 q 365 772 340 748 q 389 828 389 797 l 389 846 q 371 888 389 870 q 328 906 353 906 m 178 801 l 178 819 q 222 916 178 876 q 321 956 267 956 l 334 956 q 414 927 381 956 q 448 847 448 897 l 448 834 q 405 739 448 781 q 304 696 363 696 l 295 696 q 209 728 240 696 q 178 801 178 759 z "},"":{"ha":436,"x_min":69,"x_max":305,"o":"m 305 -224 l 305 -237 q 294 -256 305 -251 q 191 -279 249 -279 l 184 -278 q 101 -250 132 -278 q 69 -175 69 -221 l 69 -170 q 132 -50 69 -119 q 252 18 195 18 l 263 20 l 278 18 q 286 12 286 18 q 248 -26 286 3 q 163 -155 163 -93 q 180 -192 163 -174 q 237 -209 197 -209 l 286 -203 q 305 -224 305 -203 z "},"":{"ha":568,"x_min":150,"x_max":587,"o":"m 587 878 l 587 869 q 540 791 587 827 q 450 755 493 755 l 444 755 q 357 786 410 755 q 278 818 304 818 q 222 789 251 818 q 172 760 193 760 q 150 776 150 760 q 194 852 150 812 q 285 892 237 892 l 306 892 q 381 862 332 892 q 458 832 431 832 q 514 861 486 832 q 565 890 543 890 q 587 878 587 890 z "},"":{"ha":629,"x_min":213,"x_max":674,"o":"m 222 680 q 213 686 213 680 l 213 692 q 341 890 213 726 q 395 915 360 915 l 399 916 l 402 916 l 433 918 l 444 918 q 465 912 465 918 l 465 909 q 373 788 465 893 q 252 683 281 683 q 241 682 244 682 l 226 680 l 222 680 m 419 680 q 409 685 409 680 l 409 688 q 547 888 409 711 q 606 914 568 914 q 617 916 613 916 l 637 917 l 656 917 q 674 911 674 917 l 674 909 q 654 873 674 896 q 489 696 526 728 q 433 681 471 681 l 426 680 l 419 680 z "},"":{"ha":737,"x_min":87,"x_max":686,"o":"m 633 337 l 104 337 q 87 349 87 337 l 87 355 q 104 410 87 400 q 161 416 113 416 l 661 416 q 686 404 686 416 l 686 392 q 676 348 686 358 q 633 337 665 337 z "},"":{"ha":1111,"x_min":77,"x_max":1070,"o":"m 969 337 l 100 337 q 77 353 77 337 q 91 405 77 394 q 189 416 106 416 l 1045 416 q 1070 401 1070 416 l 1070 392 q 1050 345 1070 352 q 969 337 1030 337 z "},"":{"ha":338,"x_min":162,"x_max":323,"o":"m 217 694 l 199 694 q 162 728 162 694 l 162 731 l 163 735 l 164 751 q 168 786 168 775 q 217 925 168 855 q 300 996 267 996 q 323 979 323 996 l 323 977 q 315 964 323 975 q 265 850 265 890 l 268 829 q 271 805 271 812 l 273 787 q 273 779 273 783 l 274 768 q 260 709 274 725 q 217 694 246 694 z "},"":{"ha":351,"x_min":147,"x_max":327,"o":"m 297 994 q 327 970 327 994 l 327 967 l 326 963 l 326 960 q 286 815 326 889 q 213 716 245 742 q 170 690 181 690 l 166 690 q 147 706 147 690 q 172 742 147 707 q 204 794 196 777 q 212 880 212 811 q 226 970 212 949 q 274 991 240 991 l 293 994 l 297 994 z "},"":{"ha":347,"x_min":45,"x_max":230,"o":"m 107 99 q 189 165 107 165 l 200 165 q 230 141 230 165 l 230 130 q 170 -54 230 40 q 71 -148 111 -148 l 64 -148 q 45 -132 45 -148 l 45 -129 q 60 -104 45 -126 q 93 -55 76 -83 q 109 3 109 -26 l 106 25 l 105 35 l 105 62 l 106 75 l 106 86 q 107 99 107 94 z "},"":{"ha":534,"x_min":152,"x_max":545,"o":"m 298 1006 l 304 1006 q 323 991 323 1006 l 323 988 q 308 963 323 985 q 277 913 292 941 q 262 844 262 886 l 267 786 q 251 720 267 739 q 202 702 235 702 l 184 702 q 152 726 152 702 l 152 740 l 155 764 q 204 916 155 826 q 298 1006 254 1006 m 488 774 q 486 745 486 755 q 470 719 486 734 q 441 703 455 703 q 423 702 428 702 l 412 701 q 373 728 373 701 l 373 736 l 377 767 q 426 917 377 827 q 519 1006 475 1006 l 526 1006 q 545 991 545 1006 l 545 988 q 529 964 545 985 q 499 914 514 942 q 484 846 484 886 l 484 840 q 484 833 484 836 l 487 812 l 487 805 l 488 798 l 488 774 z "},"":{"ha":546,"x_min":142,"x_max":545,"o":"m 142 709 q 163 741 142 711 q 196 794 184 771 q 209 887 209 817 q 225 978 209 957 q 287 1000 241 1000 l 294 1000 q 325 976 325 1000 l 325 972 l 324 969 q 264 788 324 882 q 165 694 204 694 l 161 694 l 159 694 q 142 709 142 694 m 387 694 l 380 694 q 362 708 362 694 l 362 711 q 381 740 362 716 q 414 790 399 763 q 429 886 429 818 q 444 977 429 955 q 505 1000 459 1000 l 516 1000 q 545 977 545 1000 l 545 970 l 544 967 q 484 787 544 881 q 387 694 425 694 z "},"":{"ha":552,"x_min":41,"x_max":452,"o":"m 65 -157 l 56 -157 q 41 -142 41 -157 q 67 -103 41 -141 q 100 -47 94 -65 q 107 31 107 -28 l 106 39 q 106 62 106 50 l 107 70 l 107 77 l 110 98 q 126 135 110 119 q 171 151 142 151 q 182 153 181 153 l 197 153 q 224 132 224 153 l 224 121 q 163 -62 224 33 q 65 -157 103 -157 m 411 153 l 422 153 q 452 128 452 153 l 451 124 l 451 121 q 391 -63 451 31 q 292 -158 330 -158 l 288 -158 q 267 -141 267 -158 q 292 -106 267 -136 q 326 -53 316 -75 q 335 29 335 -30 l 334 40 l 334 63 l 336 87 q 356 136 336 119 q 411 153 376 153 z "},"":{"ha":633,"x_min":115,"x_max":622,"o":"m 277 621 q 217 630 265 630 q 141 646 168 630 q 115 665 115 661 q 134 695 115 677 q 193 712 153 712 l 209 711 l 225 710 q 258 709 247 709 q 332 732 313 709 q 351 834 340 742 q 372 947 363 926 q 427 983 387 983 l 443 983 q 472 966 472 983 q 451 853 472 949 q 429 745 429 758 q 454 715 429 720 q 546 713 471 713 q 622 677 622 713 q 594 648 622 665 q 539 631 566 631 l 510 633 l 478 633 q 442 618 455 633 q 397 539 408 579 q 373 416 387 499 q 348 278 359 333 q 333 193 338 224 q 307 60 328 163 q 286 -45 287 -43 q 227 -75 274 -75 q 202 -54 202 -75 q 233 150 202 -33 q 283 433 264 333 q 302 550 302 532 q 277 621 302 602 z "},"":{"ha":643,"x_min":75,"x_max":646,"o":"m 646 693 q 612 646 646 657 q 517 641 595 641 q 422 604 439 641 q 396 475 411 581 q 380 367 380 370 q 407 283 380 301 q 453 269 422 273 q 548 231 548 256 q 484 189 548 198 l 465 188 q 346 155 367 178 q 321 45 333 140 q 304 -63 309 -50 q 247 -102 292 -102 q 203 -86 203 -102 q 226 32 203 -71 q 249 137 249 134 q 162 184 249 168 q 75 224 75 201 q 137 260 75 247 q 250 301 237 283 q 292 398 279 340 q 323 584 323 549 q 306 630 323 619 q 223 642 289 642 q 144 651 157 642 q 131 679 131 661 q 150 709 131 696 q 207 722 168 722 l 227 721 q 268 720 248 720 q 353 743 340 720 q 369 842 357 751 q 385 946 380 933 q 442 985 399 985 q 485 964 485 985 q 462 848 485 950 q 439 740 439 746 q 511 719 439 719 l 593 722 q 646 693 646 722 z "},"":{"ha":617,"x_min":167,"x_max":500,"o":"m 167 400 l 167 422 q 221 544 167 484 q 342 603 276 603 l 369 603 q 462 561 423 603 q 500 459 500 518 l 500 454 q 446 327 500 386 q 319 267 391 267 l 303 267 q 211 303 255 267 q 167 400 167 339 z "},"":{"ha":991,"x_min":77,"x_max":878,"o":"m 154 146 l 165 146 l 167 146 l 188 144 q 193 143 191 143 q 228 96 228 143 l 228 83 l 227 81 l 225 62 q 224 48 224 60 q 210 18 224 36 q 175 0 195 0 l 170 -1 l 152 -3 l 134 -3 l 113 -1 q 80 25 80 -1 q 78 35 78 32 l 77 47 l 77 60 l 77 62 q 77 68 77 65 l 81 91 q 154 146 81 146 m 512 144 q 552 96 552 144 l 552 83 l 551 81 l 549 62 q 549 58 549 60 q 532 16 549 32 q 496 -1 516 -1 q 489 -2 491 -2 l 476 -3 l 455 -3 l 452 -3 l 448 -3 q 440 -1 442 -1 q 404 27 404 -1 q 402 35 402 33 l 401 47 l 401 60 l 406 90 q 419 126 406 110 q 453 143 433 143 q 460 144 458 144 l 473 146 l 497 146 q 512 144 503 144 m 877 84 l 875 63 l 873 53 q 857 15 873 31 q 819 -1 841 -1 l 814 -2 l 809 -2 l 796 -3 l 786 -3 l 773 -2 l 758 1 q 726 42 726 1 l 726 63 l 727 66 l 729 81 q 730 94 730 84 q 748 130 730 103 q 776 143 757 143 l 779 144 l 781 144 l 801 146 l 819 146 q 875 114 875 146 l 877 104 q 877 99 877 102 l 878 92 l 878 87 l 877 84 z "},"":{"ha":1413,"x_min":158,"x_max":1383,"o":"m 224 669 q 247 592 224 623 q 304 561 269 561 l 313 561 l 318 562 q 409 622 371 562 q 447 753 447 682 l 447 781 q 424 855 447 826 q 367 884 401 884 l 359 884 q 274 838 307 884 q 227 711 227 773 l 226 707 l 225 702 l 224 683 l 224 669 m 703 74 l 722 74 q 823 140 775 74 q 871 292 871 205 l 870 297 q 846 368 870 341 q 787 395 821 395 l 782 395 q 669 325 713 395 q 624 180 624 254 l 624 172 q 647 103 624 132 q 703 74 669 74 m 1061 165 q 1082 87 1061 119 q 1137 56 1104 56 l 1154 56 q 1243 114 1203 56 q 1284 248 1284 172 l 1284 281 q 1282 298 1282 294 q 1259 354 1282 328 q 1208 380 1236 380 l 1191 380 q 1105 328 1148 380 q 1063 207 1063 276 l 1061 197 l 1061 179 l 1061 165 m 167 621 l 167 656 q 234 843 167 765 q 389 920 301 920 l 395 920 q 497 874 461 920 q 533 758 533 828 l 533 751 l 532 744 q 468 553 532 634 q 311 472 403 472 l 304 472 q 206 514 245 472 q 167 621 167 556 m 208 7 q 158 16 158 7 q 180 56 158 25 q 734 825 522 545 q 858 950 829 950 q 908 941 908 950 q 886 901 908 932 q 339 141 541 407 q 208 7 237 7 m 545 157 l 545 186 q 607 362 545 284 q 682 424 640 403 q 761 446 725 446 l 789 446 q 891 400 848 446 q 933 279 933 354 l 933 251 q 866 68 933 146 q 717 -9 799 -9 l 688 -9 q 588 35 632 -9 q 545 157 545 79 m 995 157 l 995 179 q 1057 362 995 284 q 1133 424 1090 403 q 1211 446 1175 446 l 1240 446 q 1341 400 1299 446 q 1383 279 1383 354 l 1383 258 q 1321 75 1383 153 q 1241 11 1285 30 q 1167 -9 1198 -9 l 1139 -9 q 1039 35 1082 -9 q 995 157 995 79 z "},"":{"ha":493,"x_min":117,"x_max":431,"o":"m 355 138 q 321 102 355 102 l 315 102 q 236 182 289 102 q 172 272 226 197 q 117 359 117 347 l 117 366 q 249 507 117 383 q 402 631 381 631 l 408 631 q 431 610 431 631 l 431 604 q 325 479 431 585 q 219 363 219 373 q 287 254 219 353 q 355 138 355 155 z "},"":{"ha":494,"x_min":104,"x_max":410,"o":"m 182 602 q 213 630 182 630 l 218 630 q 293 549 234 630 q 410 372 410 386 l 410 366 q 282 229 410 357 q 130 101 155 101 q 104 127 104 101 q 211 253 104 153 q 318 368 318 353 q 250 477 318 370 q 182 602 182 585 z "},"":{"ha":412,"x_min":-117,"x_max":650,"o":"m -96 -20 q -117 -7 -117 -20 q -99 23 -117 -4 q 543 928 162 415 q 629 984 585 984 q 650 971 650 984 q 624 928 650 963 q 389 600 597 892 q 103 193 181 307 q -14 30 24 79 q -96 -20 -52 -20 z "},"":{"ha":824,"x_min":88,"x_max":807,"o":"m 559 395 q 517 355 559 368 q 444 343 504 351 q 357 323 385 336 q 306 248 306 298 q 354 152 306 198 q 479 106 401 106 q 595 126 514 106 q 680 146 676 146 q 704 120 704 146 q 629 46 704 84 q 492 8 553 8 l 466 8 q 213 174 281 8 q 183 257 196 215 q 158 319 170 298 q 117 359 145 340 q 88 385 88 379 q 120 423 88 413 q 177 446 175 441 q 184 490 184 458 q 151 528 184 521 q 118 555 118 536 q 171 604 118 569 q 238 655 224 640 q 266 690 253 670 l 279 713 q 322 779 296 741 q 395 857 349 817 q 500 917 442 896 q 599 937 557 937 l 624 937 q 752 907 698 937 q 807 837 807 878 q 747 804 807 804 q 684 819 743 804 q 586 833 626 833 q 452 781 519 833 q 385 668 385 729 q 504 620 385 643 q 623 584 623 596 q 578 542 623 552 q 440 531 534 531 q 320 520 346 531 q 294 474 294 509 q 330 431 294 439 q 431 427 347 427 q 538 413 516 427 q 559 395 559 399 z "},"":{"ha":1024,"x_min":121,"x_max":987,"o":"m 266 960 l 440 960 q 472 944 472 960 q 456 904 472 912 q 396 901 450 901 q 330 869 342 901 q 318 807 324 852 q 300 687 313 763 q 288 568 288 610 q 251 508 288 508 l 227 508 q 206 530 206 508 q 227 678 206 552 q 248 852 248 804 q 203 899 248 899 l 140 892 q 121 918 121 892 q 140 949 121 944 q 266 960 174 960 m 901 820 q 897 829 901 829 q 826 709 893 829 q 758 586 760 589 q 712 553 736 553 q 677 574 687 553 q 640 706 673 583 q 597 829 607 829 l 569 700 q 538 558 541 565 q 500 523 525 523 q 484 543 484 523 l 486 556 l 493 586 q 511 740 498 607 q 537 911 525 873 q 614 949 550 949 q 705 742 633 949 l 730 669 l 823 814 q 935 950 909 950 q 987 909 987 950 q 971 777 987 893 l 949 629 l 943 583 l 937 528 q 922 521 933 521 l 911 521 q 884 594 884 521 l 901 820 z "},"":{"ha":777,"x_min":116,"x_max":719,"o":"m 719 442 l 719 432 q 684 382 719 388 q 391 380 671 380 l 194 380 l 174 380 l 160 380 l 134 379 l 128 379 q 116 389 116 379 q 126 434 116 423 q 171 446 136 446 l 184 447 l 707 448 q 719 442 719 448 z "}}}
